<svg width="194" height="52" viewBox="0 0 194 52" fill="none" xmlns="http://www.w3.org/2000/svg">
<g clip-path="url(#clip0_2_45001)">
<path d="M10.8486 11H21.3295L31.178 39.2315H22.1427L20.7196 34.3011H11.3681L9.89989 39.2315H1.00012L10.8486 11ZM19.4321 28.5153L16.1117 17.4613L12.746 28.5153H19.4321Z" fill="#72707E"/>
<path d="M36.5088 38.376C34.8242 37.5121 33.41 36.2038 32.4204 34.5938C31.3847 32.9177 30.859 30.9783 30.9069 29.0105C30.8706 27.0659 31.354 25.1467 32.3074 23.4498C33.233 21.8659 34.5768 20.5655 36.1926 19.6901C37.9124 18.7652 39.8404 18.2926 41.7945 18.3167C43.4116 18.3112 45.0146 18.617 46.5154 19.2173C47.9173 19.7605 49.1765 20.6151 50.1973 21.7162C51.1801 22.7669 51.832 24.082 52.0721 25.4985L45.2956 27.277C45.1533 26.4717 44.7484 25.7358 44.1436 25.1833C43.5356 24.7035 42.7719 24.4632 41.9978 24.5079C41.3503 24.4988 40.7197 24.7136 40.2133 25.1157C39.646 25.5394 39.2144 26.1182 38.9709 26.7817C38.6773 27.4886 38.5239 28.2455 38.5192 29.0105C38.4963 29.8361 38.6746 30.655 39.0387 31.3969C39.3697 32.0603 39.8678 32.6266 40.4844 33.0404C41.0846 33.423 41.7822 33.6261 42.4947 33.6257C43.1576 33.635 43.8116 33.4721 44.3921 33.1529C44.9711 32.8283 45.4661 32.3735 45.8378 31.8247C46.2276 31.2426 46.4823 30.5811 46.5832 29.8885L53.5855 30.789C53.4023 32.4847 52.7536 34.0972 51.7107 35.4493C50.6386 36.7956 49.2604 37.8683 47.69 38.5786C46.0079 39.3344 44.1816 39.7185 42.3366 39.7043C40.3132 39.753 38.3098 39.2964 36.5088 38.376Z" fill="#72707E"/>
<path d="M60.9494 38.7811C59.706 38.1923 58.6848 37.2218 58.0355 36.012C57.338 34.616 57.004 33.0676 57.0642 31.5093V24.5077H53.5405V18.8794H57.0642V13.5213L64.6991 11.8553V18.8794H72.3791V24.5077H64.6991V30.2936C64.6431 31.2069 64.9517 32.1051 65.5574 32.7926C65.8215 33.085 66.1461 33.3169 66.5087 33.4723C66.8714 33.6278 67.2635 33.7031 67.6581 33.6931C68.4015 33.714 69.1386 33.5516 69.804 33.2203C70.5172 32.8277 71.1588 32.3177 71.7014 31.712L73.2826 36.8675C72.279 37.7908 71.1355 38.5506 69.8943 39.1188C68.5631 39.6307 67.1415 39.8681 65.7155 39.8167C64.0675 39.8474 62.4351 39.4927 60.9494 38.7811Z" fill="#72707E"/>
<path d="M75.3834 18.8796H83.0182V39.1415H75.3834V18.8796Z" fill="#72707E"/>
<path d="M84.5763 18.8796H92.3692L96.8869 32.8828L101.405 18.8796H109.197L101.54 39.1415H92.1885L84.5763 18.8796Z" fill="#72707E"/>
<path d="M114.664 38.4211C112.983 37.6001 111.578 36.3094 110.621 34.7064C109.616 32.9791 109.115 31.0063 109.175 29.0106C109.126 27.0302 109.626 25.0748 110.621 23.3597C111.57 21.745 112.977 20.4452 114.664 19.6226C116.557 18.7429 118.629 18.3115 120.717 18.3618C122.803 18.3207 124.868 18.768 126.748 19.6676C128.433 20.5017 129.844 21.7983 130.814 23.4048C131.823 25.1004 132.347 27.0392 132.328 29.0106C132.372 30.9933 131.864 32.9495 130.86 34.6614C129.881 36.2555 128.472 37.5429 126.794 38.376C124.919 39.294 122.851 39.7496 120.763 39.7043C118.656 39.7631 116.566 39.3233 114.664 38.4211ZM122.818 32.8378C123.435 32.4665 123.923 31.9168 124.219 31.2619C124.565 30.5626 124.735 29.79 124.716 29.0106C124.731 28.2315 124.56 27.46 124.219 26.7592C123.916 26.121 123.428 25.5878 122.818 25.2283C122.178 24.8711 121.45 24.6995 120.717 24.733C119.981 24.7191 119.255 24.9059 118.617 25.2734C118.012 25.639 117.526 26.1705 117.216 26.8043C116.874 27.505 116.704 28.2765 116.719 29.0556C116.7 29.835 116.87 30.6076 117.216 31.3069C117.526 31.9407 118.012 32.4721 118.617 32.8378C119.236 33.2618 119.966 33.4965 120.717 33.5132C121.47 33.5032 122.202 33.2679 122.818 32.8378Z" fill="#72707E"/>
<path d="M133.141 19.0822V22.3916H140.799V39.4791H144.526V22.3916H152.183V19.0822H133.141Z" fill="#72707E"/>
<path d="M168.898 19.8252C170.386 20.7253 171.585 22.0296 172.354 23.5849C173.186 25.2716 173.604 27.1313 173.574 29.0106V29.686C173.574 29.9336 173.574 30.1587 173.574 30.4064H157.085C157.22 31.6189 157.655 32.7791 158.35 33.7834C159.017 34.7437 159.919 35.5186 160.97 36.0347C162.087 36.582 163.317 36.8597 164.561 36.8452C165.95 36.8627 167.32 36.5214 168.537 35.8546C169.619 35.2992 170.497 34.4165 171.044 33.3331L174.094 34.5488C173.405 36.2391 172.142 37.6338 170.525 38.4886C168.696 39.5236 166.619 40.0449 164.516 39.997C162.527 40.0249 160.566 39.5361 158.824 38.5787C157.16 37.6634 155.789 36.2975 154.871 34.6389C153.918 32.9163 153.428 30.9775 153.448 29.0106C153.412 27.1344 153.863 25.2808 154.758 23.6299C155.617 22.0583 156.89 20.7504 158.44 19.8477C160.021 18.9466 161.814 18.4804 163.635 18.4969C165.479 18.4455 167.301 18.9053 168.898 19.8252ZM160.631 22.2566C159.719 22.7415 158.942 23.4457 158.372 24.3053C157.748 25.2095 157.332 26.2394 157.152 27.3221H169.892C169.735 26.2477 169.367 25.2148 168.808 24.2828C168.29 23.4344 167.558 22.7359 166.685 22.2566C165.738 21.7958 164.687 21.5864 163.635 21.6488C162.599 21.6082 161.569 21.8167 160.631 22.2566Z" fill="#72707E"/>
<path d="M180.735 28.853L174.094 19.2849H178.137L183.4 27.2095L188.663 19.2849H192.684L185.907 28.853L193 39.2316H188.934L183.4 30.6315L177.866 39.2316H173.71L180.735 28.853Z" fill="#72707E"/>
</g>
<defs>
<clipPath id="clip0_2_45001">
<rect width="192" height="29" fill="white" transform="translate(1.00012 11)"/>
</clipPath>
</defs>
</svg>
