<svg width="116" height="52" viewBox="0 0 116 52" fill="none" xmlns="http://www.w3.org/2000/svg">
<g clip-path="url(#clip0_2_44973)">
<g clip-path="url(#clip1_2_44973)">
<path fill-rule="evenodd" clip-rule="evenodd" d="M81.6418 18.0427H77.8351C77.8185 17.9594 77.8023 17.876 77.7861 17.7926C77.7546 17.6308 77.7232 17.4688 77.6883 17.3074C77.5132 16.5025 77.0625 16.1226 76.2563 16.0969C75.5172 16.0724 74.9351 16.433 74.7883 17.1825C74.608 18.1032 74.4767 19.0484 74.4689 19.9833C74.4549 21.7377 74.5262 23.4933 74.5974 25.2464L74.5974 25.2469L74.6003 25.3185C74.617 25.7152 74.7381 26.1234 74.8836 26.4968C75.0999 27.0544 75.5481 27.2901 76.1533 27.294C76.783 27.2978 77.3342 27.1536 77.5673 26.5187C77.7792 25.9433 77.9602 25.3559 78.1412 24.7684C78.2187 24.5171 78.2961 24.2657 78.376 24.0153C78.4082 23.9149 78.4404 23.8131 78.4945 23.6393L80.2267 24.3827L82.0744 25.1756C81.9371 25.5094 81.8155 25.8457 81.6948 26.1793L81.6948 26.1795L81.6947 26.1797L81.6947 26.1798C81.4104 26.9658 81.1313 27.7378 80.6631 28.4311C80.099 29.2642 79.2942 29.7896 78.3554 30.091C77.038 30.5147 75.6794 30.5443 74.3569 30.1708C72.2398 29.572 71.0332 28.0988 70.746 25.9444C70.5843 24.73 70.5605 23.4948 70.5368 22.2662V22.2661L70.5348 22.1648C70.5116 20.9878 70.531 19.8069 70.6056 18.6325C70.6494 17.9332 70.7705 17.2237 70.9714 16.5515C71.5818 14.5039 73.0447 13.4274 75.1051 13.0964C76.2448 12.9135 77.3728 12.9921 78.4674 13.3681C80.3991 14.0339 81.7358 15.9758 81.6418 18.0427ZM16.9014 13.0737C16.2088 13.0709 15.5124 13.0681 14.8116 13.0527V30.0731C14.8512 30.0815 14.8845 30.0904 14.9139 30.0981L14.9139 30.0981L14.9139 30.0981C14.965 30.1116 15.0042 30.122 15.0434 30.122C15.602 30.1216 16.1607 30.1234 16.7195 30.1252H16.7198H16.72H16.7202H16.7205H16.7207H16.7209H16.7211H16.7214H16.7216H16.7218H16.7221H16.7223H16.7223H16.7223H16.7224H16.7224H16.7224H16.7224H16.7224H16.7225H16.7225H16.7225H16.7225H16.7226C18.0941 30.1296 19.4663 30.134 20.8371 30.1066C22.9593 30.0641 25.3623 28.8059 25.8053 25.6998C26.0847 23.736 26.0461 21.7632 25.9958 19.7916C25.9765 19.0022 25.9018 18.2064 25.7756 17.426C25.3958 15.081 23.9045 13.4713 21.5505 13.2382C20.0169 13.0863 18.469 13.0801 16.9014 13.0737ZM18.9788 26.363V16.7203C19.1652 16.7203 19.3458 16.7177 19.5224 16.7152C19.9071 16.7098 20.2725 16.7047 20.6362 16.7267C21.4707 16.7769 21.9999 17.2122 22.1467 18.0441C22.2729 18.7575 22.3412 19.489 22.3502 20.2127C22.3682 21.5185 22.3399 22.8256 22.2935 24.1301C22.2781 24.5512 22.1699 24.9748 22.0643 25.3869C21.9227 25.9406 21.5247 26.2922 20.9787 26.3476C20.528 26.3932 20.0718 26.3829 19.6039 26.3724C19.3979 26.3677 19.1898 26.363 18.9788 26.363ZM52.0784 30.102H55.9159C55.9159 25.4661 55.9159 20.9048 55.9147 16.3281H60.4952V30.0827H69.5508V27.0526H64.4911V23.1301H68.8257V20.0639H64.4821V16.2779H69.5353V13.1357H41.2999L39.1327 20.5075L39.13 20.5168C38.1932 23.7029 37.2566 26.8887 36.3175 30.084H40.3868C40.5129 29.5676 40.6359 29.0653 40.7569 28.5713L40.7595 28.5609L40.7691 28.5217L40.7703 28.5167L41.014 27.5213H45.5083C45.7259 28.4073 45.9332 29.2534 46.1393 30.0968H50.1957C48.8397 25.4789 47.4991 20.9151 46.1444 16.3049H52.0784V30.102ZM43.3332 19.514C43.3809 19.5089 43.4298 19.5024 43.4775 19.496L43.67 20.3089C43.9912 21.6645 44.3136 23.0257 44.6442 24.4165H42.1627C42.5606 22.7527 42.9469 21.134 43.3332 19.514ZM9.16254 27.4949H4.68757L4.43328 28.5189C4.30306 29.0435 4.17239 29.57 4.03983 30.1026H0.00012207C1.66906 24.421 3.32383 18.7883 4.98504 13.1337H8.86507L11.2861 21.3723L13.8487 30.0923H9.81286C9.67115 29.528 9.5283 28.9569 9.38278 28.3751L9.38251 28.374L9.38189 28.3715L9.16254 27.4949ZM6.99266 19.3935L6.87805 19.4051C6.41832 21.0625 5.95859 22.7198 5.48856 24.4158H8.39117L8.3467 24.2563C7.88712 22.6073 7.43929 21.0004 6.99266 19.3935ZM38.7527 13.126H34.4503C33.764 16.9841 33.0892 20.7804 32.4144 24.5767L32.2727 24.569L32.2604 24.4991L32.2227 24.2843C31.571 20.5739 30.9193 16.8632 30.2664 13.144H25.964L27.4456 18.9462C28.3975 22.6737 29.3451 26.3847 30.2922 30.0922H34.3962C35.2349 26.8273 36.0702 23.574 36.9062 20.3176C37.5207 17.9239 38.1357 15.5287 38.7527 13.126ZM36.4174 40.8578H38.483C37.739 38.8475 37.0076 36.8734 36.2814 34.9134L35.0472 31.582H32.3198C31.7142 33.2056 31.1091 34.8277 30.5016 36.4559L30.497 36.4683L30.4853 36.4996L28.8634 40.8475H30.8903L31.1458 40.15L31.1469 40.1471C31.3379 39.6255 31.5263 39.1112 31.7171 38.5913H35.5868C35.8637 39.3459 36.1405 40.1019 36.4174 40.8578ZM33.6721 33.3055L33.7365 33.3017L33.7865 33.2986C34.187 34.4705 34.5875 35.6411 35.0189 36.8953H32.2979L32.804 35.4493C33.0573 34.7255 33.3045 34.0192 33.5521 33.3128C33.5919 33.3101 33.6319 33.3078 33.6721 33.3055ZM43.6422 34.3423L43.6796 34.1314L43.6797 34.1307C43.7082 33.9695 43.7341 33.8233 43.7632 33.6624H45.5326V43.5395H43.7272V40.1514C43.6368 40.212 43.5496 40.2726 43.4643 40.3319C43.0379 40.6282 42.6578 40.8923 42.1535 40.9589C41.4839 41.0477 40.8323 41.0284 40.1871 40.8249C39.5239 40.6163 39.0642 40.1695 38.8659 39.5243C38.4267 38.1013 38.4074 36.6526 38.8246 35.2232C39.238 33.8092 40.5219 33.3611 41.9642 33.5285C42.2784 33.5645 42.5991 33.656 42.8837 33.7912C43.0602 33.8746 43.2163 34.0017 43.388 34.1415C43.4681 34.2068 43.5516 34.2747 43.6422 34.3423ZM40.4215 37.2282C40.4368 37.3525 40.4495 37.479 40.4623 37.6066L40.4623 37.6068C40.4915 37.8967 40.5211 38.1924 40.5837 38.4812C40.7408 39.2165 41.1967 39.5758 41.941 39.6119C42.7729 39.6531 43.3807 39.3466 43.5778 38.6589C43.7272 38.1335 43.78 37.5656 43.78 37.0157C43.78 36.5985 43.6847 36.1594 43.5301 35.7705C43.2661 35.1034 42.7047 34.8317 41.9101 34.8819C41.1671 34.9296 40.7254 35.3481 40.5786 36.0615C40.5256 36.3185 40.4962 36.5809 40.466 36.8513L40.466 36.8514L40.4659 36.852C40.4521 36.9756 40.438 37.101 40.4215 37.2282ZM58.1697 35.0953C59.0158 35.1365 59.3519 35.5911 59.2257 36.5389C59.1556 36.5429 59.0893 36.5474 59.0255 36.5518C58.882 36.5617 58.7515 36.5707 58.6205 36.5698C58.4137 36.5715 58.2067 36.5692 57.9997 36.567H57.9996H57.9995H57.9994H57.9994H57.9993H57.9992C57.5847 36.5624 57.17 36.5578 56.7571 36.5853C55.9458 36.6394 55.1203 36.8196 54.734 37.6116C54.3232 38.4525 54.3322 39.372 54.8435 40.1936C55.2298 40.8156 55.9123 40.9456 56.5845 40.9958C57.5658 41.0693 58.4827 40.8799 59.2489 40.1253L59.3714 40.4391L59.3726 40.4422C59.428 40.5843 59.4763 40.708 59.5232 40.8272H61.1535C61.1535 40.3005 61.1559 39.7777 61.1584 39.2578L61.1584 39.2566V39.2561V39.2561V39.256V39.256V39.256V39.2559C61.1645 37.9762 61.1704 36.7134 61.1393 35.452C61.12 34.6626 60.6693 34.069 59.9044 33.8114C58.7042 33.4084 57.4795 33.4032 56.2265 33.6865V35.0889C56.4339 35.0889 56.6382 35.0865 56.8403 35.0842C57.2909 35.079 57.7306 35.074 58.1697 35.0953ZM58.8506 37.7963C58.9617 37.7967 59.0737 37.797 59.1871 37.797C59.4987 38.7371 59.0969 39.1659 58.453 39.3861C58.0242 39.5317 57.5362 39.5703 57.0803 39.5458C56.5459 39.5175 56.296 39.193 56.2948 38.7165C56.2935 38.2722 56.5845 37.9104 57.0687 37.837C57.321 37.7991 57.5799 37.7993 57.8383 37.7995C57.9227 37.7995 58.0071 37.7996 58.0912 37.7983C58.3427 37.7947 58.5942 37.7955 58.8506 37.7963ZM51.6939 33.6644H53.5315V40.8449H51.8935C51.8415 40.6908 51.7888 40.5325 51.7232 40.3354L51.6462 40.1045C51.1814 40.5565 50.7036 40.9261 50.0906 40.9389L50.0209 40.9404C49.4297 40.9531 48.8217 40.9661 48.2543 40.8372C47.5795 40.684 47.1816 40.1586 47.076 39.4593C47.0348 39.185 47.0258 38.9043 47.0245 38.6261C47.0193 37.2328 47.018 35.8394 47.0219 34.4473C47.0228 34.2735 47.0368 34.0997 47.0517 33.9141V33.9141V33.9141V33.914V33.914C47.0583 33.8329 47.065 33.7496 47.0708 33.6631H48.7836C48.7907 33.7332 48.7994 33.803 48.8081 33.8726L48.8081 33.8729C48.8277 34.0292 48.8471 34.1842 48.8479 34.3392C48.8521 35.0693 48.8514 35.7994 48.8508 36.5295C48.8504 36.9352 48.8501 37.3409 48.8505 37.7466L48.8503 37.8323C48.8498 37.9753 48.8492 38.1187 48.8621 38.2604C48.9484 39.1824 49.3115 39.5391 50.1357 39.5211C51.0487 39.5005 51.6681 38.9764 51.6862 38.1484C51.7034 37.3181 51.7008 36.4872 51.6982 35.6565V35.6564V35.6563V35.6562V35.6561V35.656C51.6972 35.308 51.6961 34.96 51.6965 34.6122C51.6939 34.3147 51.6939 34.0185 51.6939 33.6644ZM76.2198 39.3446C76.0816 39.322 75.9397 39.2988 75.7921 39.2771V40.722C76.7193 40.9679 77.6169 40.9447 78.5131 40.9113C80.4036 40.8404 80.9947 39.9132 80.8891 38.3048C80.8388 37.5579 80.5195 37.0428 79.8202 36.784C79.5767 36.6932 79.3272 36.6196 79.0775 36.5459L79.0774 36.5458C78.9587 36.5108 78.84 36.4758 78.7217 36.4389C78.6417 36.4136 78.5611 36.39 78.4806 36.3664C78.2941 36.3118 78.1079 36.2572 77.9298 36.1826C77.6465 36.0641 77.4919 35.8349 77.5409 35.5168C77.5872 35.2155 77.7508 34.994 78.0753 34.9657C78.4359 34.9348 78.8003 34.9039 79.1596 34.9245C79.4652 34.9423 79.7696 34.9863 80.0965 35.0334L80.0968 35.0335L80.0977 35.0336C80.2415 35.0543 80.3895 35.0757 80.5439 35.0957V33.7268C79.2665 33.4448 77.9916 33.3109 76.7399 33.8814C76.3304 34.0681 76.0458 34.3939 75.917 34.8214C75.6028 35.8697 75.6582 37.2231 77.2666 37.5605C77.5219 37.6151 77.7737 37.6878 78.0249 37.7602L78.1262 37.7894L78.1951 37.809L78.2226 37.8169C78.3579 37.8554 78.4945 37.8944 78.6187 37.9558C79.0218 38.1567 79.1725 38.4336 79.1287 38.8302C79.0823 39.2449 78.8003 39.4406 78.4397 39.4728C77.9967 39.5115 77.5447 39.496 77.0992 39.4625C76.8104 39.4413 76.5241 39.3944 76.2198 39.3446ZM74.9366 33.7185V35.211C74.8169 35.1922 74.7022 35.1711 74.5909 35.1507C74.3441 35.1054 74.114 35.0631 73.8832 35.0552C73.4802 35.041 73.0681 35.0449 72.674 35.1183C72.2079 35.2058 71.8692 35.5033 71.7044 35.9669C71.4004 36.8271 71.4223 37.6912 71.7069 38.5463C71.8782 39.0614 72.271 39.373 72.8054 39.4026C73.3042 39.4304 73.8056 39.4245 74.3255 39.4183C74.5519 39.4157 74.7817 39.4129 75.0165 39.4129V40.7355C74.1434 41.0394 73.2278 41.0948 72.316 40.9647C70.5891 40.7187 69.7882 39.8997 69.6362 38.1381C69.5667 37.3384 69.6298 36.509 69.7637 35.7145C69.9659 34.5169 70.772 33.8318 71.9735 33.6077C72.9586 33.4261 73.9232 33.4712 74.9366 33.7185ZM65.8058 39.5627C65.4703 39.5023 65.1511 39.4448 64.7794 39.3784C64.6036 38.3931 64.621 37.4523 64.6386 36.5022V36.5021V36.5021V36.5019V36.5016C64.6473 36.0325 64.6561 35.5612 64.6416 35.0811H66.138V33.6569L65.8223 33.6421C65.4394 33.6242 65.0627 33.6065 64.6326 33.5873V31.9686H62.8117C62.7965 32.3041 62.7826 32.6242 62.769 32.9377L62.7689 32.9398C62.7595 33.1552 62.7503 33.3675 62.7409 33.5796C62.5822 33.5967 62.4413 33.6122 62.3075 33.6269C62.1687 33.6422 62.0376 33.6566 61.9026 33.671V35.0463C62.2206 35.0863 62.4679 35.1172 62.7473 35.1519C62.7512 35.2382 62.7557 35.3191 62.7599 35.3964L62.7599 35.3965C62.7684 35.5501 62.7761 35.6897 62.7769 35.8293C62.7778 36.1569 62.7771 36.4844 62.7764 36.812V36.8144C62.7749 37.4711 62.7735 38.1279 62.7847 38.7847C62.7898 39.1234 62.8388 39.4672 62.916 39.7982C63.019 40.236 63.2856 40.5811 63.717 40.737C64.4768 41.0113 65.2533 40.9572 66.0118 40.8709V39.5999L65.8058 39.5627ZM66.7804 33.6602H68.4249C68.5742 34.1572 68.6051 40.0809 68.4635 40.8343H66.7804V33.6602ZM66.6941 32.2442C67.2607 32.6202 68.0527 32.6202 68.6077 32.2442C68.6077 31.7716 68.6077 31.2732 68.609 30.8006C67.9664 30.4426 67.3946 30.4864 66.7791 30.7259C66.5344 31.2307 66.6129 31.7497 66.6941 32.2442Z" fill="#72707E"/>
<path fill-rule="evenodd" clip-rule="evenodd" d="M88.8557 28.41L88.8897 28.4222L88.8755 28.435L88.8557 28.41ZM88.7475 28.2697C88.7834 28.3167 88.8193 28.3636 88.8557 28.41C87.711 27.9945 86.9723 27.1394 86.461 26.0836C85.7051 24.5215 85.8313 22.917 86.3773 21.3253C86.931 19.7117 87.8505 18.3004 89.1048 17.1723C90.1646 16.2193 90.6282 15.0256 90.9437 13.7236C91.294 12.2762 91.3725 10.7991 91.3365 9.31436C91.3339 9.21733 91.3347 9.11976 91.3356 9.01512V9.0151V9.01508C91.336 8.96001 91.3365 8.90298 91.3365 8.84304C92.0782 8.41421 92.8946 8.21203 93.7149 8.11674C98.405 7.57459 102.521 8.93189 106.114 11.9568C106.145 11.9828 106.17 12.0159 106.201 12.0558L106.201 12.0558C106.217 12.0771 106.235 12.1004 106.256 12.1255C105.571 14.1847 105.808 16.2065 106.617 18.1935C106.633 18.2318 106.637 18.2755 106.642 18.3189V18.3189C106.643 18.3298 106.644 18.3406 106.645 18.3514C106.576 18.2919 106.505 18.2345 106.433 18.177C106.266 18.0427 106.1 17.9086 105.962 17.7492C105.166 16.8349 104.486 15.842 104.294 14.6174C104.239 14.2692 104.252 13.9105 104.267 13.5237V13.5236V13.5236C104.274 13.3381 104.281 13.1462 104.281 12.9458C104.172 12.9398 104.062 12.9309 103.952 12.9219L103.952 12.9219C103.711 12.9022 103.468 12.8824 103.226 12.893C101.056 12.9858 98.9252 13.3026 96.8725 14.0379C93.4793 15.2535 90.6668 17.2856 88.4454 20.1148C87.6457 21.1334 87.0907 22.2782 86.9555 23.6072C86.7842 25.3058 87.3869 26.7056 88.4854 27.9444C88.5781 28.0483 88.6628 28.159 88.7475 28.2697ZM106.645 18.3514L106.662 18.366L106.649 18.3802C106.648 18.3707 106.646 18.3611 106.645 18.3514ZM91.6213 15.0268L91.6411 15.0194C91.6686 15.0092 91.6959 14.9991 91.7202 14.9844C94.7992 13.0411 98.1783 12.0766 101.797 11.9156C102.481 11.8848 103.166 11.8931 103.852 11.9015H103.852H103.852C104.168 11.9053 104.485 11.9092 104.801 11.9092C104.183 11.4997 103.548 11.1494 102.886 10.8661C102.677 10.7764 102.468 10.6851 102.259 10.5937L102.259 10.5937C101.37 10.2053 100.479 9.81575 99.5549 9.53843C97.8479 9.02569 96.0719 9.0959 94.3112 9.1655L94.194 9.17013C93.8992 9.18157 93.608 9.26817 93.3114 9.35638C93.174 9.39726 93.0353 9.4385 92.8946 9.47275C92.9014 9.54973 92.9054 9.6154 92.9088 9.67341V9.67341V9.67342C92.9152 9.78038 92.9201 9.86127 92.9384 9.93892C93.272 11.3915 93.035 12.7398 92.2211 13.9915C92.0703 14.2227 91.9357 14.4647 91.8013 14.7065C91.7417 14.8137 91.6822 14.9207 91.6213 15.0268ZM93.179 29.9836C93.1649 29.9824 93.1509 29.981 93.1371 29.9791L93.1538 29.9611C93.1623 29.9685 93.1707 29.976 93.179 29.9836ZM93.2652 30.0645C93.2366 30.0372 93.2081 30.0099 93.179 29.9836C93.1991 29.9852 93.2195 29.9863 93.2398 29.9874C93.3143 29.9915 93.3885 29.9956 93.45 30.0255C93.8077 30.2029 94.1681 30.3757 94.5285 30.5486L94.5285 30.5486C95.4422 30.9869 96.3562 31.4253 97.227 31.9378C98.4221 32.6409 99.2243 33.7368 99.7201 35.04C99.7493 35.118 99.7704 35.1988 99.7965 35.2984L99.7965 35.2984L99.7965 35.2984L99.7965 35.2985C99.8096 35.3486 99.824 35.4034 99.8412 35.465C97.7254 35.7651 95.692 36.2016 93.8454 37.2885C92.0489 38.347 90.4277 39.6283 88.872 41.0088C88.8244 40.9947 88.7767 40.9805 88.7278 40.9663C88.7167 40.489 88.7008 40.0116 88.6848 39.5341C88.6489 38.4593 88.6129 37.3842 88.6325 36.3098C88.6763 33.9673 89.0188 31.6597 89.5571 29.3765C89.8791 28.0114 90.3478 26.716 91.0046 25.4784C92 23.6034 93.517 22.3685 95.5053 21.6744C96.9965 21.1541 98.5393 20.93 100.105 20.8219C100.523 20.7929 100.943 20.7759 101.362 20.7588C102.23 20.7235 103.098 20.6882 103.949 20.5476C107.461 19.9655 110.711 18.6855 113.633 16.6212C114.004 16.3585 114.367 16.0894 114.442 15.4751C114.375 15.4166 114.306 15.3525 114.234 15.2859L114.234 15.2859C114.067 15.1313 113.884 14.9629 113.685 14.817C112.465 13.9246 111.109 13.2885 109.704 12.7515C109.57 12.7 109.44 12.6369 109.323 12.5467C111.53 12.8622 113.53 13.649 115.207 15.1609C115.673 15.5807 115.722 15.8962 115.28 16.3649C114.813 16.8607 114.295 17.323 113.745 17.7261C111.283 19.5341 108.561 20.8116 105.604 21.5791C105.264 21.6679 105.04 21.8302 104.835 22.0968C104.674 22.3056 104.515 22.5165 104.356 22.7275C103.855 23.3907 103.354 24.055 102.791 24.6607C101.204 26.3683 99.2037 27.1615 96.824 27.1435C96.5754 25.5995 95.6302 24.5718 94.3424 23.6756C94.2288 23.79 94.1134 23.9002 93.9989 24.0095L93.9989 24.0095C93.7554 24.2419 93.5168 24.4698 93.3109 24.7238C92.2176 26.0747 91.463 27.611 91.0316 29.2889C90.6917 30.6127 90.371 31.9481 90.1508 33.2964C89.8765 34.9692 89.8134 36.6613 90.1431 38.4526C92.622 36.5751 95.3379 35.3414 98.4285 34.8224C97.8992 33.9583 97.2631 33.2694 96.5896 32.6178C95.6624 31.7202 94.6464 30.9334 93.5286 30.2805C93.4321 30.2242 93.3486 30.1443 93.2652 30.0645ZM99.0603 26.1737C98.5832 26.3612 98.0909 26.5546 97.5168 26.3039C97.0983 24.9492 96.0307 24.1726 94.7893 23.485C97.2151 22.1775 99.7683 22.1062 102.398 22.0329C102.918 22.0184 103.441 22.0038 103.966 21.9796C103.855 22.1073 103.745 22.2347 103.636 22.3616L103.635 22.3631L103.634 22.3638C102.283 23.9328 101.008 25.4129 99.0994 26.1584L99.0603 26.1737ZM95.0837 19.2907L95.0837 19.2906C95.1428 19.1846 95.2019 19.0783 95.2731 18.9816C96.1591 17.7686 97.3863 16.9727 98.7037 16.3392C99.4966 15.9582 100.319 15.6376 101.192 15.2973L101.192 15.2972C101.587 15.1429 101.994 14.9844 102.412 14.8145C102.029 16.2065 101.967 17.466 102.232 18.773C101.702 18.3197 101.623 18.0635 101.389 16.1009C99.7842 16.5001 98.3599 17.238 96.9511 18.3648C98.423 18.0467 99.7172 18.1369 100.968 18.7215C98.9239 18.4163 96.9923 18.9134 95.08 19.5599C95.0546 19.5205 95.028 19.4799 95.0013 19.4393L95.0001 19.4375C95.0287 19.3893 95.0562 19.34 95.0837 19.2907ZM110.49 14.4386C110.479 13.8875 110.069 13.4818 109.51 13.4728C108.925 13.4638 108.49 13.89 108.496 14.4669C108.503 15.0039 108.933 15.4315 109.475 15.4418C110.036 15.4521 110.499 14.9949 110.49 14.4386Z" fill="#72707E"/>
<path d="M93.2404 30.0908C93.3178 30.1481 93.3951 30.2054 93.4725 30.2614L93.4867 30.2445C93.4093 30.1976 93.3332 30.152 93.2558 30.1051L93.2404 30.0908Z" fill="#72707E"/>
<path d="M93.2552 30.1059C93.2422 30.0994 93.2279 30.0915 93.215 30.085C93.2228 30.0863 93.2305 30.0889 93.2396 30.0902L93.2552 30.1059Z" fill="#72707E"/>
<path d="M89.1925 28.7029C89.2179 28.7169 89.2445 28.731 89.2407 28.7285C89.2432 28.7323 89.2255 28.7093 89.2065 28.6875L89.1925 28.7029Z" fill="#72707E"/>
<path d="M91.9308 15.126L91.9083 15.1449L91.9408 15.1272L91.9308 15.126Z" fill="#72707E"/>
</g>
</g>
<defs>
<clipPath id="clip0_2_44973">
<rect width="116" height="52" fill="white"/>
</clipPath>
<clipPath id="clip1_2_44973">
<rect width="116" height="52" fill="white"/>
</clipPath>
</defs>
</svg>
