<svg width="80" height="25" viewBox="0 0 80 25" fill="none" xmlns="http://www.w3.org/2000/svg">
<path d="M49.724 18.9152C45.0961 22.3263 38.3883 24.1463 32.613 24.1463C24.5151 24.1463 17.2249 21.1512 11.7096 16.1697C11.2763 15.778 11.6646 15.2441 12.1845 15.5492C18.1366 19.0123 25.4962 21.0957 33.0983 21.0957C38.2254 21.0957 43.8655 20.0349 49.0515 17.8336C49.8349 17.5009 50.4901 18.3467 49.724 18.9152Z" fill="#44464A"/>
<path d="M51.648 16.7144C51.0587 15.9587 47.7377 16.3574 46.2471 16.5342C45.793 16.5896 45.7236 16.1944 46.1327 15.9102C48.7777 14.0486 53.1178 14.5859 53.6239 15.2099C54.1301 15.8374 53.4922 20.1879 51.0067 22.2644C50.6254 22.5834 50.2614 22.4135 50.4312 21.9906C50.9894 20.597 52.2408 17.4736 51.648 16.7144Z" fill="#44464A"/>
<path d="M46.3511 2.76715V0.957589C46.3511 0.683729 46.5591 0.5 46.8087 0.5H54.91C55.17 0.5 55.378 0.687196 55.378 0.957589V2.50715C55.3745 2.76715 55.1561 3.10687 54.7679 3.64419L50.5699 9.63793C52.1298 9.5998 53.7765 9.83205 55.1908 10.6294C55.5097 10.8096 55.5964 11.0731 55.6207 11.3331V13.264C55.6207 13.5274 55.3295 13.836 55.0244 13.6765C52.532 12.3696 49.2214 12.2275 46.4655 13.6904C46.1847 13.8429 45.89 13.5378 45.89 13.2744V11.4406C45.89 11.1459 45.8935 10.6432 46.1881 10.196L51.0517 3.22127H46.8191C46.5591 3.22127 46.3511 3.03754 46.3511 2.76715Z" fill="#44464A"/>
<path d="M16.7983 14.0577H14.3336C14.0978 14.0403 13.9106 13.8635 13.8933 13.6382V0.988631C13.8933 0.73557 14.1048 0.534506 14.3682 0.534506H16.6666C16.9058 0.544899 17.0964 0.728634 17.1138 0.957429V2.61099H17.1588C17.7585 1.01289 18.8852 0.267578 20.4035 0.267578C21.9461 0.267578 22.9098 1.01289 23.6032 2.61099C24.1994 1.01289 25.5548 0.267578 27.0073 0.267578C28.0404 0.267578 29.1705 0.693968 29.8603 1.65075C30.6403 2.71499 30.4808 4.26109 30.4808 5.61653L30.4774 13.6001C30.4774 13.8531 30.2659 14.0577 30.0024 14.0577H27.5412C27.2951 14.0403 27.0975 13.8427 27.0975 13.6001V6.8957C27.0975 6.36184 27.146 5.03067 27.0281 4.52455C26.8444 3.67524 26.2932 3.43604 25.5791 3.43604C24.9829 3.43604 24.3589 3.8347 24.1058 4.47255C23.8528 5.1104 23.877 6.17811 23.877 6.8957V13.6001C23.877 13.8531 23.6656 14.0577 23.4021 14.0577H20.9408C20.6912 14.0403 20.4971 13.8427 20.4971 13.6001L20.4937 6.8957C20.4937 5.4848 20.7259 3.40831 18.9753 3.40831C17.2039 3.40831 17.2732 5.43279 17.2732 6.8957V13.6001C17.2732 13.8531 17.0618 14.0577 16.7983 14.0577Z" fill="#44464A"/>
<path d="M62.3527 0.267578C66.01 0.267578 67.9894 3.40831 67.9894 7.40182C67.9894 11.2601 65.802 14.3211 62.3527 14.3211C58.7614 14.3211 56.8062 11.1804 56.8062 7.26662C56.8062 3.32858 58.7856 0.267578 62.3527 0.267578ZM62.3735 2.85019C60.557 2.85019 60.4426 5.32533 60.4426 6.86796C60.4426 8.41406 60.4184 11.7143 62.3527 11.7143C64.2628 11.7143 64.3529 9.05192 64.3529 7.42955C64.3529 6.36184 64.3079 5.08614 63.9855 4.07389C63.7081 3.19338 63.157 2.85019 62.3735 2.85019Z" fill="#44464A"/>
<path d="M72.7323 14.0577H70.2779C70.0318 14.0403 69.8342 13.8427 69.8342 13.6001L69.8307 0.947029C69.8515 0.714768 70.0561 0.534506 70.3057 0.534506H72.5901C72.8051 0.544899 72.9819 0.690503 73.0304 0.888098V2.82245H73.0755C73.7653 1.09263 74.7325 0.267578 76.4346 0.267578C77.5404 0.267578 78.6185 0.666236 79.3118 1.75821C79.9566 2.77046 79.9566 4.47255 79.9566 5.69626V13.659C79.9289 13.8809 79.7243 14.0577 79.4817 14.0577H77.01C76.7847 14.0403 76.5975 13.8739 76.5732 13.659V6.78823C76.5732 5.40506 76.7327 3.38057 75.0306 3.38057C74.4309 3.38057 73.8797 3.7827 73.6058 4.39282C73.2592 5.16587 73.2141 5.93545 73.2141 6.78823V13.6001C73.2107 13.8531 72.9957 14.0577 72.7323 14.0577Z" fill="#44464A"/>
<path d="M39.8931 8.01564V7.48179C38.1113 7.48179 36.2289 7.86311 36.2289 9.96386C36.2289 11.0281 36.7801 11.7492 37.7265 11.7492C38.4198 11.7492 39.0403 11.3228 39.432 10.6294C39.9173 9.77667 39.8931 8.97589 39.8931 8.01564ZM42.3786 14.0232C42.2157 14.1688 41.9799 14.1792 41.7962 14.0822C40.9781 13.4027 40.8325 13.0873 40.3819 12.439C39.0299 13.8187 38.0731 14.2312 36.319 14.2312C34.246 14.2312 32.6306 12.9521 32.6306 10.3903C32.6306 8.39003 33.7157 7.02766 35.2583 6.36208C36.5964 5.77276 38.4648 5.66876 39.8931 5.50583V5.18691C39.8931 4.60105 39.9381 3.90773 39.5949 3.40161C39.2934 2.94749 38.7179 2.76029 38.2118 2.76029C37.2723 2.76029 36.4334 3.24215 36.2289 4.24053C36.1873 4.46239 36.0244 4.68078 35.8025 4.69118L33.4106 4.43465C33.2095 4.38959 32.9877 4.22666 33.0431 3.91813C33.5943 1.02007 36.2116 0.146484 38.555 0.146484C39.7544 0.146484 41.3213 0.465411 42.2677 1.37366C43.4671 2.49336 43.3527 3.98746 43.3527 5.6133V9.45428C43.3527 10.6087 43.8311 11.1148 44.2817 11.7388C44.4412 11.9606 44.4759 12.2275 44.2748 12.3939C43.7722 12.8134 42.8778 13.5934 42.3855 14.0302L42.3786 14.0232Z" fill="#44464A"/>
<path d="M7.5813 8.01564V7.48179C5.79949 7.48179 3.91714 7.86311 3.91714 9.96386C3.91714 11.0281 4.46833 11.7492 5.4147 11.7492C6.10801 11.7492 6.72853 11.3228 7.12025 10.6294C7.60557 9.77667 7.5813 8.97589 7.5813 8.01564ZM10.0668 14.0232C9.9039 14.1688 9.66818 14.1792 9.48445 14.0822C8.66634 13.4027 8.52074 13.0873 8.07009 12.439C6.71813 13.8187 5.76136 14.2312 4.00727 14.2312C1.93427 14.2312 0.318848 12.9521 0.318848 10.3903C0.318848 8.39003 1.40388 7.02766 2.9465 6.36208C4.2846 5.77276 6.15308 5.66876 7.5813 5.50583V5.18691C7.5813 4.60105 7.62637 3.90773 7.28318 3.40161C6.98159 2.94749 6.40614 2.76029 5.90002 2.76029C4.96058 2.76029 4.12167 3.24215 3.91714 4.24053C3.87554 4.46239 3.71262 4.68078 3.49076 4.69118L1.09883 4.43465C0.897764 4.38959 0.675903 4.22666 0.731368 3.91813C1.28255 1.02007 3.89981 0.146484 6.24321 0.146484C7.44264 0.146484 9.00953 0.465411 9.9559 1.37366C11.1553 2.49336 11.0409 3.98746 11.0409 5.6133V9.45428C11.0409 10.6087 11.5193 11.1148 11.97 11.7388C12.1294 11.9606 12.1641 12.2275 11.963 12.3939C11.4604 12.8134 10.566 13.5934 10.0738 14.0302L10.0668 14.0232Z" fill="#44464A"/>
</svg>
