<svg width="122" height="31" viewBox="0 0 122 31" fill="none" xmlns="http://www.w3.org/2000/svg">
<path d="M122 16.239C122 17.579 121.566 18.6021 120.696 19.3083C119.827 20.0145 118.707 20.4807 117.096 20.4807C114.9 20.4807 113.849 20.1962 112.372 19.8238C112.246 19.7922 112.158 19.6792 112.158 19.5497V18.1486C112.158 17.965 112.331 17.8305 112.509 17.8763C113.983 18.2561 115.03 18.5818 116.66 18.5818C117.239 18.5818 117.737 18.5093 118.154 18.3645C118.57 18.2015 118.86 18.0023 119.023 17.7669C119.204 17.5315 119.331 17.3142 119.403 17.115C119.476 16.9158 119.556 16.5649 119.556 16.4019C119.556 15.913 119.312 15.5161 118.859 15.1902C118.425 14.8643 117.326 14.5974 116.486 14.3648C115.646 14.1321 114.438 13.6897 113.569 13.074C112.7 12.4402 112.158 11.5743 112.158 10.2524C112.158 7.71729 113.833 6.24326 117.183 6.24326C118.915 6.24326 120.555 6.78666 121.151 7.00975C121.259 7.05002 121.328 7.15336 121.328 7.26828V8.48026C121.328 8.66383 121.155 8.7983 120.977 8.75372C119.61 8.41142 118.824 8.2261 117.319 8.2261C116.757 8.2261 116.277 8.29853 115.879 8.4434C115.481 8.57015 115.2 8.74218 115.037 8.95948C114.874 9.15867 114.756 9.33975 114.684 9.50273C114.63 9.6657 114.602 9.82867 114.602 9.99165C114.602 10.4806 114.802 10.888 115.2 11.2139C115.598 11.5399 116.198 11.8975 116.743 12.0159C117.576 12.197 118.27 12.4181 118.795 12.5992C119.32 12.7622 119.854 13.0067 120.398 13.3326C120.941 13.6404 121.339 14.0388 121.593 14.5277C121.864 14.9986 122 15.569 122 16.239Z" fill="#44464A"/>
<path d="M92.2846 17.3254V14.3876C92.2846 14.3876 90.7711 14.132 89.5852 14.132C88.3994 14.132 87.6891 14.3396 87.1474 14.8374C86.7637 15.1901 86.5332 15.6506 86.5332 16.4655C86.5332 17.1863 86.6404 17.5429 87.1474 17.9594C87.6544 18.3578 88.596 18.4662 88.8893 18.4662C90.175 18.4662 91.3067 18.0859 92.2846 17.3254ZM89.1609 8.28033C88.2752 8.28033 86.566 8.59815 85.6241 8.90984C85.3837 8.98938 85.0002 8.76272 85.0002 8.50951V7.3676C85.0002 7.2757 85.0436 7.18892 85.1238 7.14414C85.9615 6.6767 88.279 6.24316 89.7041 6.24316C91.4244 6.24316 92.692 6.56911 93.5069 7.22101C94.3217 7.8729 94.7292 9.04088 94.7292 10.7249V19.8137C94.7292 19.9696 94.6028 20.0959 94.447 20.0959H92.9383C92.8166 20.0959 92.7087 20.018 92.6704 19.9025L92.2957 18.7715C92.2891 18.7514 92.2702 18.7378 92.249 18.7378C92.2369 18.7378 92.2252 18.7423 92.2161 18.7504C91.0086 19.8292 89.9297 20.4583 88.2882 20.4583C86.9482 20.4583 85.8889 20.0962 85.1102 19.3719C84.3316 18.6294 83.9422 17.6606 83.9422 16.4655C83.9422 15.035 84.4583 13.9847 85.4905 13.3147C86.7395 12.3685 87.9109 12.3685 89.2325 12.3685C90.5542 12.3685 92.2846 12.6381 92.2846 12.6381V10.8607C92.2846 9.95534 92.0401 9.30344 91.5512 8.90506C91.0623 8.48858 90.2655 8.28033 89.1609 8.28033Z" fill="#44464A"/>
<path d="M107.726 20.319C107.589 20.319 107.472 20.2213 107.448 20.087L107.251 18.9969C107.247 18.976 107.229 18.9609 107.208 18.9609C107.196 18.9609 107.186 18.9652 107.177 18.9731C106.052 20.0503 104.031 20.4465 102.39 20.4465C99.0396 20.4465 97.3646 18.0925 97.3646 13.3844C97.3646 11.2476 97.772 9.53638 98.5869 8.2507C99.4198 6.96502 100.733 6.32218 102.525 6.32218C104.113 6.32218 106.09 6.98679 107.179 8.03086C107.186 8.03781 107.196 8.04164 107.206 8.04164C107.227 8.04164 107.244 8.02432 107.244 8.00295V0.882164C107.244 0.726332 107.371 0.600006 107.527 0.600006H109.407C109.563 0.600006 109.689 0.726333 109.689 0.882164V20.0368C109.689 20.1926 109.563 20.319 109.407 20.319H107.726ZM103.34 8.35935C101.077 8.35935 99.945 10.0344 99.945 13.3844C99.945 16.7344 101.077 18.4094 103.34 18.4094C104.517 18.4094 106.248 18.1732 107.244 17.4126V9.67137C106.285 8.89272 104.554 8.35935 103.34 8.35935Z" fill="#44464A"/>
<path d="M49.0122 24.8629C44.4211 28.2469 37.7666 30.0524 32.0373 30.0524C24.0038 30.0524 16.7716 27.0811 11.3001 22.1392C10.8702 21.7506 11.2554 21.221 11.7713 21.5236C17.676 24.9592 24.977 27.0261 32.5187 27.0261C37.605 27.0261 43.2003 25.9737 48.345 23.79C49.1222 23.4598 49.7722 24.2989 49.0122 24.8629Z" fill="#44464A"/>
<path d="M50.9212 22.6793C50.3366 21.9296 47.042 22.3251 45.5632 22.5005C45.1127 22.5555 45.044 22.1634 45.4498 21.8814C48.0737 20.0347 52.3793 20.5677 52.8814 21.1868C53.3835 21.8092 52.7508 26.1252 50.285 28.1852C49.9067 28.5016 49.5456 28.333 49.7141 27.9135C50.2678 26.531 51.5093 23.4324 50.9212 22.6793Z" fill="#44464A"/>
<path d="M45.6667 8.84299V7.04782C45.6667 6.77614 45.8731 6.59387 46.1207 6.59387H54.1576C54.4155 6.59387 54.6219 6.77958 54.6219 7.04782V8.58506C54.6185 8.84299 54.4018 9.18001 54.0166 9.71306L49.852 15.6591C51.3995 15.6213 53.0331 15.8517 54.4362 16.6427C54.7526 16.8215 54.8385 17.0829 54.8626 17.3408V19.2563C54.8626 19.5177 54.5737 19.8238 54.2711 19.6656C51.7985 18.3691 48.5142 18.2281 45.7802 19.6793C45.5017 19.8307 45.2094 19.528 45.2094 19.2667V17.4474C45.2094 17.1551 45.2128 16.6564 45.5051 16.2128L50.33 9.2935H46.131C45.8731 9.2935 45.6667 9.11124 45.6667 8.84299Z" fill="#44464A"/>
<path d="M16.3484 20.0439H13.9033C13.6695 20.0267 13.4837 19.8513 13.4666 19.6278V7.07878C13.4666 6.82773 13.6763 6.62827 13.9377 6.62827H16.2177C16.455 6.63858 16.6442 6.82085 16.6614 7.04783V8.68824H16.7061C17.301 7.10285 18.4187 6.36346 19.925 6.36346C21.4553 6.36346 22.4114 7.10285 23.0992 8.68824C23.6907 7.10285 25.0353 6.36346 26.4763 6.36346C27.5011 6.36346 28.6222 6.78646 29.3066 7.73563C30.0803 8.79141 29.9222 10.3252 29.9222 11.6699L29.9187 19.5899C29.9187 19.841 29.7089 20.0439 29.4476 20.0439H27.0059C26.7617 20.0267 26.5657 19.8307 26.5657 19.5899V12.9389C26.5657 12.4093 26.6138 11.0887 26.4969 10.5866C26.3147 9.74402 25.7678 9.50673 25.0594 9.50673C24.4679 9.50673 23.8489 9.90222 23.5978 10.535C23.3468 11.1678 23.3709 12.227 23.3709 12.9389V19.5899C23.3709 19.841 23.1611 20.0439 22.8997 20.0439H20.458C20.2104 20.0267 20.0178 19.8307 20.0178 19.5899L20.0144 12.9389C20.0144 11.5392 20.2448 9.47922 18.5081 9.47922C16.7508 9.47922 16.8196 11.4876 16.8196 12.9389V19.5899C16.8196 19.841 16.6098 20.0439 16.3484 20.0439Z" fill="#44464A"/>
<path d="M61.5407 6.36346C65.1688 6.36346 67.1325 9.47922 67.1325 13.441C67.1325 17.2686 64.9625 20.3052 61.5407 20.3052C57.9779 20.3052 56.0383 17.1895 56.0383 13.3068C56.0383 9.40012 58.0019 6.36346 61.5407 6.36346ZM61.5613 8.92554C59.7593 8.92554 59.6458 11.381 59.6458 12.9114C59.6458 14.4452 59.6217 17.7191 61.5407 17.7191C63.4356 17.7191 63.525 15.0779 63.525 13.4685C63.525 12.4093 63.4803 11.1437 63.1604 10.1395C62.8853 9.266 62.3385 8.92554 61.5613 8.92554Z" fill="#44464A"/>
<path d="M71.837 20.0439H69.4022C69.158 20.0267 68.962 19.8307 68.962 19.5899L68.9586 7.03751C68.9792 6.8071 69.1821 6.62827 69.4297 6.62827H71.696C71.9092 6.63858 72.0846 6.78303 72.1327 6.97905V8.89802H72.1775C72.8618 7.18195 73.8213 6.36346 75.5098 6.36346C76.6069 6.36346 77.6764 6.75895 78.3642 7.84224C79.0039 8.84644 79.0039 10.535 79.0039 11.749V19.6484C78.9764 19.8685 78.7734 20.0439 78.5327 20.0439H76.0807C75.8572 20.0267 75.6715 19.8616 75.6474 19.6484V12.8323C75.6474 11.4601 75.8056 9.4517 74.1171 9.4517C73.5221 9.4517 72.9753 9.85063 72.7036 10.4559C72.3597 11.2228 72.315 11.9863 72.315 12.8323V19.5899C72.3116 19.841 72.0984 20.0439 71.837 20.0439Z" fill="#44464A"/>
<path d="M39.2595 14.0498V13.5202C37.4919 13.5202 35.6245 13.8985 35.6245 15.9826C35.6245 17.0383 36.1713 17.7537 37.1101 17.7537C37.7979 17.7537 38.4135 17.3307 38.8021 16.6429C39.2836 15.7969 39.2595 15.0024 39.2595 14.0498ZM41.7253 20.0097C41.5636 20.1541 41.3298 20.1644 41.1475 20.0681C40.3359 19.3941 40.1915 19.0811 39.7444 18.438C38.4032 19.8067 37.454 20.216 35.7139 20.216C33.6574 20.216 32.0548 18.947 32.0548 16.4056C32.0548 14.4212 33.1312 13.0697 34.6616 12.4094C35.989 11.8248 37.8426 11.7216 39.2595 11.56V11.2436C39.2595 10.6624 39.3042 9.97459 38.9638 9.4725C38.6646 9.02198 38.0937 8.83628 37.5916 8.83628C36.6596 8.83628 35.8274 9.3143 35.6245 10.3047C35.5832 10.5248 35.4216 10.7415 35.2015 10.7518L32.8286 10.4973C32.6291 10.4526 32.409 10.291 32.464 9.98491C33.0109 7.10989 35.6073 6.24326 37.9321 6.24326C39.1219 6.24326 40.6764 6.55965 41.6152 7.46067C42.8051 8.57147 42.6916 10.0537 42.6916 11.6666V15.477C42.6916 16.6222 43.1662 17.1243 43.6133 17.7433C43.7715 17.9634 43.8059 18.2282 43.6064 18.3933C43.1077 18.8094 42.2205 19.5832 41.7321 20.0165L41.7253 20.0097Z" fill="#44464A"/>
<path d="M7.2047 14.0497V13.5201C5.43705 13.5201 3.56968 13.8984 3.56968 15.9825C3.56968 17.0382 4.11648 17.7536 5.05533 17.7536C5.74312 17.7536 6.3587 17.3306 6.74731 16.6428C7.22877 15.7968 7.2047 15.0023 7.2047 14.0497ZM9.67046 20.0096C9.50883 20.154 9.27497 20.1643 9.09271 20.068C8.28111 19.394 8.13667 19.081 7.6896 18.4379C6.34839 19.8067 5.39923 20.2159 3.65909 20.2159C1.60257 20.2159 0 18.9469 0 16.4055C0 14.4212 1.07641 13.0696 2.60676 12.4093C3.93421 11.8247 5.78783 11.7215 7.2047 11.5599V11.2435C7.2047 10.6623 7.24941 9.9745 6.90895 9.4724C6.60975 9.02189 6.03888 8.83618 5.53678 8.83618C4.60482 8.83618 3.77258 9.31421 3.56968 10.3046C3.52841 10.5247 3.36678 10.7414 3.14668 10.7517L0.773775 10.4972C0.574312 10.4525 0.354216 10.2909 0.40924 9.98482C0.956041 7.1098 3.55248 6.24316 5.87725 6.24316C7.06714 6.24316 8.62156 6.55955 9.56041 7.46058C10.7503 8.57138 10.6368 10.0536 10.6368 11.6665V15.4769C10.6368 16.6221 11.1114 17.1242 11.5585 17.7432C11.7167 17.9633 11.7511 18.2281 11.5516 18.3932C11.0529 18.8093 10.1657 19.5831 9.67734 20.0164L9.67046 20.0096Z" fill="#44464A"/>
</svg>
