<svg width="20" height="20" viewBox="0 0 20 20" fill="none" xmlns="http://www.w3.org/2000/svg">
<path d="M16.6954 16.1471C8.59942 20.0001 3.57498 16.7764 0.358669 14.8184C0.159645 14.695 -0.178626 14.8472 0.114871 15.1843C1.18638 16.4836 4.69796 19.6151 9.28158 19.6151C13.8684 19.6151 16.5971 17.1123 16.9384 16.6757C17.2775 16.2428 17.038 16.004 16.6953 16.1471H16.6954ZM18.9691 14.8914C18.7517 14.6083 17.6471 14.5555 16.952 14.6409C16.2557 14.7238 15.2107 15.1493 15.3015 15.4048C15.3481 15.5005 15.4433 15.4576 15.9216 15.4146C16.4012 15.3667 17.7447 15.1972 18.0247 15.5631C18.306 15.9317 17.5962 17.6871 17.4666 17.9702C17.3413 18.2533 17.5144 18.3263 17.7497 18.1378C17.9817 17.9493 18.4017 17.4611 18.6836 16.7704C18.9636 16.0758 19.1344 15.1069 18.9691 14.8914Z" fill="#FF9900"/>
<path fill-rule="evenodd" clip-rule="evenodd" d="M11.2515 8.28499C11.2515 9.29595 11.2771 10.1391 10.7661 11.0369C10.3536 11.7669 9.70034 12.2158 8.9704 12.2158C7.97398 12.2158 7.39368 11.4566 7.39368 10.3362C7.39368 8.12435 9.37545 7.72292 11.2515 7.72292V8.28499ZM13.8684 14.61C13.6968 14.7633 13.4486 14.7743 13.2552 14.6721C12.3939 13.9567 12.2406 13.6246 11.7661 12.9421C10.3427 14.3947 9.33537 14.829 7.48861 14.829C5.30604 14.829 3.60522 13.4822 3.60522 10.7851C3.60522 8.67919 4.74767 7.24479 6.37171 6.54409C7.78057 5.92355 9.7478 5.81408 11.2515 5.6426V5.30679C11.2515 4.68994 11.2989 3.96001 10.9376 3.42718C10.6201 2.94904 10.0142 2.75194 9.48131 2.75194C8.49227 2.75194 7.60901 3.25923 7.39368 4.31036C7.34982 4.544 7.17834 4.77395 6.94478 4.78488L4.4264 4.51485C4.21476 4.4673 3.98119 4.29582 4.03958 3.97094C4.61988 0.919802 7.37537 0 9.84258 0C11.1054 0 12.7551 0.335809 13.7515 1.29208C15.0144 2.47091 14.8939 4.04394 14.8939 5.75569V9.79963C14.8939 11.015 15.3976 11.5478 15.872 12.2048C16.0399 12.4384 16.0764 12.7195 15.8647 12.8946C15.3355 13.3362 14.3938 14.1575 13.8756 14.6174L13.8683 14.61" fill="black"/>
<path d="M16.6954 16.1471C8.59942 20.0001 3.57498 16.7764 0.358669 14.8184C0.159645 14.695 -0.178626 14.8472 0.114871 15.1843C1.18638 16.4836 4.69796 19.6151 9.28158 19.6151C13.8684 19.6151 16.5971 17.1123 16.9384 16.6757C17.2775 16.2428 17.038 16.004 16.6953 16.1471H16.6954ZM18.9691 14.8914C18.7517 14.6083 17.6471 14.5555 16.952 14.6409C16.2557 14.7238 15.2107 15.1493 15.3015 15.4048C15.3481 15.5005 15.4433 15.4576 15.9216 15.4146C16.4012 15.3667 17.7447 15.1972 18.0247 15.5631C18.306 15.9317 17.5962 17.6871 17.4666 17.9702C17.3413 18.2533 17.5144 18.3263 17.7497 18.1378C17.9817 17.9493 18.4017 17.4611 18.6836 16.7704C18.9636 16.0758 19.1344 15.1069 18.9691 14.8914Z" fill="#FFCB76"/>
<path fill-rule="evenodd" clip-rule="evenodd" d="M11.2515 8.28499C11.2515 9.29595 11.2771 10.1391 10.7661 11.0369C10.3536 11.7669 9.70034 12.2158 8.9704 12.2158C7.97398 12.2158 7.39368 11.4566 7.39368 10.3362C7.39368 8.12435 9.37545 7.72292 11.2515 7.72292V8.28499ZM13.8684 14.61C13.6968 14.7633 13.4486 14.7743 13.2552 14.6721C12.3939 13.9567 12.2406 13.6246 11.7661 12.9421C10.3427 14.3947 9.33537 14.829 7.48861 14.829C5.30604 14.829 3.60522 13.4822 3.60522 10.7851C3.60522 8.67919 4.74767 7.24479 6.37171 6.54409C7.78057 5.92355 9.7478 5.81408 11.2515 5.6426V5.30679C11.2515 4.68994 11.2989 3.96001 10.9376 3.42718C10.6201 2.94904 10.0142 2.75194 9.48131 2.75194C8.49227 2.75194 7.60901 3.25923 7.39368 4.31036C7.34982 4.544 7.17834 4.77395 6.94478 4.78488L4.4264 4.51485C4.21476 4.4673 3.98119 4.29582 4.03958 3.97094C4.61988 0.919802 7.37537 0 9.84258 0C11.1054 0 12.7551 0.335809 13.7515 1.29208C15.0144 2.47091 14.8939 4.04394 14.8939 5.75569V9.79963C14.8939 11.015 15.3976 11.5478 15.872 12.2048C16.0399 12.4384 16.0764 12.7195 15.8647 12.8946C15.3355 13.3362 14.3938 14.1575 13.8756 14.6174L13.8683 14.61" fill="#646464"/>
</svg>
