<svg width="131" height="46" viewBox="0 0 131 46" fill="none" xmlns="http://www.w3.org/2000/svg">
<path fill-rule="evenodd" clip-rule="evenodd" d="M32.4349 5.45956C28.8846 5.45956 26.0066 8.35865 26.0066 11.9349C26.0066 15.5111 28.8846 18.4102 32.4349 18.4102C35.9851 18.4102 38.8631 15.5111 38.8631 11.9349C38.8631 8.35865 35.9851 5.45956 32.4349 5.45956ZM20.5867 11.9349C20.5867 5.34342 25.8913 0 32.4349 0C38.9784 0 44.283 5.34342 44.283 11.9349C44.283 18.5263 38.9784 23.8697 32.4349 23.8697C25.8913 23.8697 20.5867 18.5263 20.5867 11.9349ZM95.6041 0.308948C92.9362 0.825271 91.0665 2.37427 90.2094 4.65967C89.722 5.99705 89.7892 8.28245 90.3943 9.50133C91.1673 11.1096 93.3185 12.7686 96.6292 14.2922C97.4023 14.6646 98.3266 15.2233 98.6796 15.5449C99.2006 16.0359 99.3014 16.256 99.3014 16.8146C99.3014 17.5933 98.8644 18.2536 98.125 18.6429C97.5872 18.9307 96.2763 19.1607 95.2176 18.7445C94.367 18.4101 93.6473 17.4532 93.1883 16.7596C93.0352 16.5282 92.9285 16.3047 92.8618 16.1648C92.8187 16.0744 92.7923 16.019 92.7807 16.019C92.7135 16.019 91.9236 16.8654 91.0161 17.8811C89.7052 19.3709 89.3439 19.9972 89.3439 19.9972C89.722 20.6321 91.4362 22.3342 92.558 22.854C95.331 24.1389 100.679 23.857 102.965 21.5716C103.368 21.1823 103.957 20.302 104.276 19.6248C104.814 18.5075 104.864 18.2705 104.864 16.8315C104.881 14.8678 104.478 13.6997 103.385 12.4639C102.377 11.3296 101.402 10.7033 98.4275 9.26433C96.4612 8.29938 95.8898 7.9608 95.6881 7.55451C95.1671 6.53878 95.5369 5.5569 96.6124 5.11675C98.0578 4.54117 99.4022 4.96439 100.31 6.30177L100.848 7.06357L102.041 5.91241C102.204 5.75584 102.377 5.59025 102.549 5.42466L102.55 5.42441L102.55 5.42426L102.55 5.42374C103.087 4.90928 103.623 4.39502 103.889 4.1518L104.545 3.55929L103.671 2.59435C102.142 0.918387 100.142 0.0888712 97.6208 0.122729C96.8309 0.122729 96.057 0.221295 95.6041 0.308948ZM8.80157 0.495172C4.3312 1.64634 1.42377 4.54117 0.314585 8.92576C-0.00472755 10.1277 -0.0383394 10.6694 0.0288843 12.4639C0.112914 14.6646 0.41542 15.9005 1.32294 17.7118C2.51616 20.0988 5.17149 22.2657 7.96127 23.1629C8.90241 23.4507 11.1544 23.8062 12.0787 23.8062C14.0786 23.8062 17.0365 23.0275 18.5994 22.0795L19.1372 21.7409V18.626C19.1372 16.9162 19.0868 15.5111 19.0196 15.5111C18.9355 15.5111 18.6162 15.782 18.2801 16.0867C16.297 17.9827 13.6249 18.8969 11.0872 18.5414C8.91921 18.2366 7.30584 17.0347 6.43194 15.1048C5.81012 13.7505 5.67567 11.1942 6.11262 9.6537C6.85208 6.99586 9.08727 5.23526 11.9107 5.04904C14.2467 4.91361 16.1962 5.60769 18.0112 7.23287C18.549 7.70688 19.0028 8.07931 19.0364 8.04545C19.07 8.0116 19.1372 6.58957 19.1876 4.89668L19.2885 1.83255L18.5826 1.49398C16.6835 0.596746 15.1038 0.241239 12.6669 0.173524C10.6334 0.122737 10.1124 0.173524 8.80157 0.495172ZM71.0339 23.163C70.9499 23.1291 70.8994 18.0504 70.8994 11.8545V0.613691H73.7564H76.6134V4.59198C76.6134 7.02974 76.6386 8.63373 76.7394 8.63373C76.8655 8.63373 77.4537 7.99468 79.2184 5.50614C79.4032 5.2522 80.2771 4.05025 81.151 2.83137L82.7476 0.613691H86.176H89.659C89.659 0.613691 88.3776 2.22193 87.4533 3.40696C85.7391 5.59078 84.3778 7.35138 82.5964 9.67064C81.7224 10.8049 81.6384 10.9911 81.7897 11.3297C81.9913 11.7021 84.8988 16.0698 85.487 16.8654C85.6718 17.1024 86.6802 18.5922 87.7558 20.2004L89.7221 23.1122C89.7221 23.1122 88.5709 23.1545 86.5625 23.163C84.5542 23.1714 83.0501 23.2222 83.0501 23.2222C83.0501 23.2222 82.3611 22.5366 77.3529 14.6139C77.1176 14.2753 76.8235 13.9028 76.7394 13.9028C76.7394 13.9028 76.6134 15.6635 76.6134 18.5583V23.1122L73.8909 23.163C72.3784 23.1968 71.1011 23.1968 71.0339 23.163ZM50.8373 11.9349C50.8373 8.35865 53.7154 5.45956 57.2656 5.45956C60.8158 5.45956 63.6939 8.35865 63.6939 11.9349C63.6939 15.5111 60.8158 18.4102 57.2656 18.4102C53.7154 18.4102 50.8373 15.5111 50.8373 11.9349ZM57.2656 0C50.722 0 45.4174 5.34342 45.4174 11.9349C45.4174 18.5263 50.722 23.8697 57.2656 23.8697C63.8092 23.8697 69.1138 18.5263 69.1138 11.9349C69.1138 5.34342 63.8092 0 57.2656 0Z" fill="#72707E"/>
<path d="M36.5212 39.8447V46H35.7145V33.0392H36.5212V34.4816C37.3145 33.3981 38.39 32.8564 39.748 32.8564C40.958 32.8564 41.926 33.2627 42.652 34.0753C43.378 34.8743 43.741 35.8901 43.741 37.1225C43.741 38.382 43.3713 39.4384 42.6319 40.2916C41.9058 41.1312 40.9311 41.5511 39.7076 41.5511C39.0892 41.5511 38.5312 41.4292 38.0338 41.1854C37.5363 40.9281 37.1935 40.6979 37.0052 40.4947C36.817 40.278 36.6557 40.0613 36.5212 39.8447ZM37.3279 39.7431C37.8926 40.4338 38.6791 40.7791 39.6875 40.7791C40.6958 40.7791 41.4823 40.4338 42.047 39.7431C42.6117 39.0524 42.894 38.1789 42.894 37.1225C42.894 36.0255 42.5848 35.1723 41.9663 34.5628C41.3479 33.9399 40.595 33.6284 39.7076 33.6284C38.8337 33.6284 38.0741 33.9331 37.4287 34.5425C36.7968 35.152 36.4809 35.9984 36.4809 37.0819C36.4809 38.1518 36.7632 39.0388 37.3279 39.7431Z" fill="#72707E"/>
<path d="M46.819 41.3276V33.0392H47.6257V34.1159C47.9887 33.2762 48.5937 32.8564 49.4408 32.8564C49.7634 32.8564 50.0525 32.9241 50.308 33.0596L49.9046 33.7909C49.7567 33.6825 49.555 33.6284 49.2996 33.6284C48.9097 33.6284 48.587 33.7435 48.3316 33.9737C48.0896 34.1904 47.9215 34.5019 47.8274 34.9082C47.7467 35.3009 47.693 35.6327 47.6661 35.9036C47.6392 36.1745 47.6257 36.4995 47.6257 36.8787V41.3276H46.819Z" fill="#72707E"/>
<path d="M53.0362 34.1159C53.8698 33.2762 54.8983 32.8564 56.1217 32.8564C57.3452 32.8564 58.367 33.2762 59.1871 34.1159C60.0207 34.942 60.4375 35.9713 60.4375 37.2037C60.4375 38.4362 60.0207 39.4722 59.1871 40.3119C58.367 41.138 57.3452 41.5511 56.1217 41.5511C54.8983 41.5511 53.8698 41.138 53.0362 40.3119C52.2161 39.4722 51.806 38.4362 51.806 37.2037C51.806 35.9713 52.2161 34.942 53.0362 34.1159ZM53.6412 39.7431C54.3134 40.4338 55.1403 40.7791 56.1217 40.7791C57.1032 40.7791 57.9233 40.4338 58.5821 39.7431C59.2544 39.0524 59.5905 38.2059 59.5905 37.2037C59.5905 36.2016 59.2544 35.3551 58.5821 34.6644C57.9233 33.9737 57.1032 33.6284 56.1217 33.6284C55.1403 33.6284 54.3134 33.9737 53.6412 34.6644C52.9824 35.3551 52.653 36.2016 52.653 37.2037C52.653 38.2059 52.9824 39.0524 53.6412 39.7431Z" fill="#72707E"/>
<path d="M66.3773 33.8112H64.3203V41.3276H63.5136V33.8112H62.5859V33.0392H63.5136V29.0982C63.5136 28.0418 63.722 27.3105 64.1388 26.9042C64.5556 26.4844 65.0665 26.2745 65.6715 26.2745C65.8597 26.2745 66.095 26.3151 66.3773 26.3963V27.148C66.216 27.0803 66.0076 27.0464 65.7522 27.0464C65.3219 27.0464 64.9724 27.2022 64.7035 27.5137C64.448 27.8116 64.3203 28.394 64.3203 29.2607V33.0392H66.3773V33.8112Z" fill="#72707E"/>
<path d="M75.8935 37.285H68.8552C68.8552 38.3143 69.1712 39.154 69.8031 39.804C70.4484 40.4541 71.2215 40.7791 72.1223 40.7791C72.7676 40.7791 73.339 40.6098 73.8365 40.2713C74.334 39.9191 74.7171 39.4587 74.986 38.8899L75.6717 39.2962C75.3625 39.8921 74.9121 40.4202 74.3205 40.8807C73.7289 41.3276 72.976 41.5511 72.0618 41.5511C70.8114 41.5511 69.8232 41.1448 69.0972 40.3322C68.3712 39.5061 68.0082 38.47 68.0082 37.2241C68.0082 35.8562 68.3981 34.7863 69.1779 34.0143C69.9711 33.2424 70.9123 32.8564 72.0013 32.8564C73.1172 32.8564 74.0449 33.2695 74.7843 34.0956C75.5238 34.9217 75.8935 35.9849 75.8935 37.285ZM68.9157 36.513H75.0465C74.939 35.6734 74.6028 34.9827 74.0382 34.441C73.4869 33.8992 72.808 33.6284 72.0013 33.6284C71.1812 33.6284 70.4888 33.906 69.9241 34.4613C69.3594 35.003 69.0233 35.6869 68.9157 36.513Z" fill="#72707E"/>
<path d="M83.1819 34.1972L82.4962 34.5628C82.2273 33.9399 81.75 33.6284 81.0644 33.6284C80.6341 33.6284 80.2913 33.7638 80.0358 34.0347C79.7938 34.3055 79.6728 34.6102 79.6728 34.9488C79.6728 35.2061 79.7468 35.4296 79.8947 35.6192C80.0426 35.7953 80.1972 35.9307 80.3585 36.0255C80.5198 36.1068 80.7753 36.2151 81.1249 36.3505C81.1786 36.3641 81.3064 36.4182 81.508 36.513C81.7231 36.5943 81.8643 36.6485 81.9315 36.6756C81.9988 36.7027 82.113 36.7568 82.2744 36.8381C82.4492 36.9058 82.5769 36.9735 82.6576 37.0412C82.7382 37.0954 82.8323 37.1699 82.9399 37.2647C83.0609 37.3595 83.1617 37.4611 83.2424 37.5694C83.5247 37.9215 83.6659 38.3685 83.6659 38.9102C83.6659 39.7905 83.397 40.4541 82.8592 40.901C82.3349 41.3344 81.7097 41.5511 80.9837 41.5511C80.2846 41.5511 79.6795 41.3547 79.1686 40.962C78.6577 40.5692 78.3149 40.0343 78.1401 39.3571L78.9266 39.1133C79.0611 39.6415 79.3165 40.0546 79.693 40.3525C80.0829 40.6369 80.5131 40.7791 80.9837 40.7791C81.508 40.7791 81.945 40.6098 82.2945 40.2713C82.6441 39.9191 82.8189 39.479 82.8189 38.9508C82.8189 38.5174 82.6844 38.1856 82.4155 37.9554C82.1467 37.7116 81.6694 37.4475 80.9837 37.1631C80.0425 36.7704 79.4443 36.4047 79.1888 36.0661C78.9468 35.7411 78.8258 35.3822 78.8258 34.9895C78.8258 34.3665 79.0342 33.8586 79.451 33.4658C79.8678 33.0596 80.3921 32.8564 81.024 32.8564C82.0862 32.8564 82.8054 33.3033 83.1819 34.1972Z" fill="#72707E"/>
<path d="M90.6232 34.1972L89.9376 34.5628C89.6687 33.9399 89.1914 33.6284 88.5057 33.6284C88.0755 33.6284 87.7326 33.7638 87.4772 34.0347C87.2352 34.3055 87.1142 34.6102 87.1142 34.9488C87.1142 35.2061 87.1881 35.4296 87.336 35.6192C87.4839 35.7953 87.6385 35.9307 87.7998 36.0255C87.9612 36.1068 88.2166 36.2151 88.5662 36.3505C88.62 36.3641 88.7477 36.4182 88.9494 36.513C89.1645 36.5943 89.3057 36.6485 89.3729 36.6756C89.4401 36.7027 89.5544 36.7568 89.7157 36.8381C89.8905 36.9058 90.0182 36.9735 90.0989 37.0412C90.1796 37.0954 90.2737 37.1699 90.3812 37.2647C90.5022 37.3595 90.6031 37.4611 90.6837 37.5694C90.9661 37.9215 91.1073 38.3685 91.1073 38.9102C91.1073 39.7905 90.8384 40.4541 90.3006 40.901C89.7762 41.3344 89.151 41.5511 88.425 41.5511C87.7259 41.5511 87.1209 41.3547 86.61 40.962C86.0991 40.5692 85.7562 40.0343 85.5815 39.3571L86.368 39.1133C86.5024 39.6415 86.7579 40.0546 87.1343 40.3525C87.5242 40.6369 87.9545 40.7791 88.425 40.7791C88.9494 40.7791 89.3863 40.6098 89.7359 40.2713C90.0855 39.9191 90.2602 39.479 90.2602 38.9508C90.2602 38.5174 90.1258 38.1856 89.8569 37.9554C89.588 37.7116 89.1107 37.4475 88.425 37.1631C87.4839 36.7704 86.8856 36.4047 86.6302 36.0661C86.3881 35.7411 86.2671 35.3822 86.2671 34.9895C86.2671 34.3665 86.4755 33.8586 86.8923 33.4658C87.3091 33.0596 87.8335 32.8564 88.4654 32.8564C89.5275 32.8564 90.2468 33.3033 90.6232 34.1972Z" fill="#72707E"/>
<path d="M93.8698 33.0392H94.6765V41.3276H93.8698V33.0392ZM94.7773 30.8249C94.6429 30.9604 94.4748 31.0281 94.2732 31.0281C94.0715 31.0281 93.8967 30.9604 93.7488 30.8249C93.6144 30.676 93.5472 30.4931 93.5472 30.2764C93.5472 30.0598 93.6144 29.8837 93.7488 29.7483C93.8967 29.5993 94.0715 29.5248 94.2732 29.5248C94.4748 29.5248 94.6429 29.5993 94.7773 29.7483C94.9252 29.8837 94.9992 30.0598 94.9992 30.2764C94.9992 30.4931 94.9252 30.676 94.7773 30.8249Z" fill="#72707E"/>
<path d="M98.9841 34.1159C99.8176 33.2762 100.846 32.8564 102.07 32.8564C103.293 32.8564 104.315 33.2762 105.135 34.1159C105.969 34.942 106.385 35.9713 106.385 37.2037C106.385 38.4362 105.969 39.4722 105.135 40.3119C104.315 41.138 103.293 41.5511 102.07 41.5511C100.846 41.5511 99.8176 41.138 98.9841 40.3119C98.1639 39.4722 97.7539 38.4362 97.7539 37.2037C97.7539 35.9713 98.1639 34.942 98.9841 34.1159ZM99.5891 39.7431C100.261 40.4338 101.088 40.7791 102.07 40.7791C103.051 40.7791 103.871 40.4338 104.53 39.7431C105.202 39.0524 105.538 38.2059 105.538 37.2037C105.538 36.2016 105.202 35.3551 104.53 34.6644C103.871 33.9737 103.051 33.6284 102.07 33.6284C101.088 33.6284 100.261 33.9737 99.5891 34.6644C98.9303 35.3551 98.6009 36.2016 98.6009 37.2037C98.6009 38.2059 98.9303 39.0524 99.5891 39.7431Z" fill="#72707E"/>
<path d="M109.462 41.3276V33.0392H110.268V34.3394C110.819 33.3507 111.66 32.8564 112.789 32.8564C113.811 32.8564 114.571 33.2424 115.068 34.0143C115.337 34.4477 115.471 35.1452 115.471 36.1068V41.3276H114.665V36.1068C114.665 35.3348 114.557 34.7795 114.342 34.441C114.019 33.8992 113.481 33.6284 112.729 33.6284C111.814 33.6284 111.142 34.0143 110.712 34.7863C110.416 35.3145 110.268 36.0594 110.268 37.0209V41.3276H109.462Z" fill="#72707E"/>
<path d="M125.784 34.4816V33.0392H126.591V41.3276H125.784V39.8447C125.045 40.9823 123.976 41.5511 122.578 41.5511C121.462 41.5511 120.514 41.1516 119.734 40.3525C118.954 39.5535 118.565 38.4971 118.565 37.1834C118.565 35.8968 118.934 34.854 119.674 34.055C120.413 33.2559 121.381 32.8564 122.578 32.8564C123.949 32.8564 125.018 33.3981 125.784 34.4816ZM122.618 33.6284C121.744 33.6284 120.991 33.9466 120.359 34.5832C119.728 35.2061 119.412 36.0526 119.412 37.1225C119.412 38.1111 119.701 38.9711 120.279 39.7025C120.857 40.4202 121.643 40.7791 122.638 40.7791C123.62 40.7791 124.393 40.427 124.958 39.7228C125.536 39.005 125.825 38.1382 125.825 37.1225C125.825 35.9984 125.495 35.1384 124.837 34.5425C124.178 33.9331 123.438 33.6284 122.618 33.6284Z" fill="#72707E"/>
<path d="M130.193 26.5182H131V41.3276H130.193V26.5182Z" fill="#72707E"/>
</svg>
