<svg width="52" height="52" viewBox="0 0 52 52" fill="none" xmlns="http://www.w3.org/2000/svg">
<g clip-path="url(#clip0_2_44931)">
<path d="M24.1176 0.106781C13.6892 0.875572 4.69577 7.9228 1.39959 17.9028C-1.65505 27.1852 0.788665 37.45 7.70779 44.3833C17.8094 54.5057 34.2619 54.5057 44.3635 44.3833C54.4936 34.2324 54.4936 17.8032 44.3635 7.6523C39.0215 2.31349 31.6335 -0.448452 24.1176 0.106781ZM28.4652 0.975227C36.9329 1.82944 44.4914 6.96893 48.3275 14.486C49.6062 16.9632 50.487 19.6539 50.9275 22.3874C51.1548 23.8538 51.1548 28.1818 50.9275 29.6482C50.4728 32.4386 49.6204 35.0439 48.2422 37.7205C47.1198 39.9414 45.9548 41.5075 43.8663 43.6145C41.863 45.6504 40.6269 46.6185 38.5384 47.8144C31.1078 52.0854 22.3985 52.3132 14.7406 48.455C12.2684 47.2022 10.663 46.049 8.57446 44.0274C6.37227 41.8776 4.96572 39.9699 3.65861 37.3361C2.46517 34.9301 1.89686 33.3213 1.35697 30.7302C1.01599 29.1214 0.973365 28.6231 0.973365 26.0178C0.973365 23.4125 1.01599 22.9142 1.35697 21.3197C1.55588 20.3373 1.92528 18.9279 2.16681 18.1875C2.84878 16.0663 4.53949 12.7918 5.83238 11.0691C7.11107 9.37496 9.54058 6.94046 11.1176 5.77304C16.0903 2.09994 22.4127 0.348808 28.4652 0.975227Z" fill="#72707E"/>
<path d="M24.4728 6.01506V8.36413H24.8706H25.2684L25.24 6.79808C25.2258 5.92964 25.2684 5.20356 25.3252 5.16085C25.4531 5.07543 25.8651 5.75879 26.675 7.32484C27.158 8.30718 27.2149 8.36413 27.6837 8.36413H28.1668V6.54182C28.1668 5.54524 28.2094 4.49172 28.252 4.19274C28.3373 3.68022 28.3373 3.66598 27.8968 3.66598H27.4564V5.40287V7.12553L26.8881 6.24285C26.5755 5.75879 26.1209 4.97577 25.8935 4.50595C25.4957 3.72293 25.4247 3.66598 24.97 3.66598H24.4728V6.01506Z" fill="#72707E"/>
<path d="M29.3602 5.97235C29.1045 7.09706 28.863 8.10787 28.8203 8.236C28.7351 8.42108 28.8914 8.5065 29.5591 8.70582C30.5963 8.99056 31.5624 9.00479 31.9744 8.70582C32.9548 8.02245 33.2531 5.44559 32.4149 4.77646C32.1165 4.52019 31.122 4.17851 30.2553 4.0219L29.8007 3.93648L29.3602 5.97235ZM31.193 5.1039C31.9176 5.30322 32.2018 5.77303 32.0881 6.58453C31.9744 7.45298 31.6477 8.05093 31.2356 8.16482C30.9089 8.236 29.7296 7.99398 29.7296 7.85161C29.7296 7.75195 30.2979 5.3744 30.369 5.11814C30.44 4.90459 30.511 4.90459 31.193 5.1039Z" fill="#72707E"/>
<path d="M20.722 6.54182C20.5799 7.82313 20.4236 8.93361 20.3952 9.03326C20.3526 9.14716 19.9974 9.07597 19.2444 8.83395C18.6477 8.63463 18.122 8.43532 18.0794 8.40684C18.051 8.37837 18.193 8.20753 18.392 8.03669C18.8892 7.60958 18.9887 7.21095 18.7187 6.57029C18.4346 5.90116 18.1362 5.67337 17.4969 5.65914C16.9996 5.65914 15.2379 6.44216 15.2379 6.66995C15.2379 6.7269 15.5504 7.41027 15.9198 8.17905C16.2892 8.94784 16.7154 9.84476 16.8433 10.1864C17.0706 10.7559 17.1133 10.7844 17.4116 10.6278C17.5821 10.5424 17.7384 10.4427 17.7668 10.4285C17.7952 10.4 17.6532 10.0583 17.4542 9.65968C17.2553 9.26105 17.0848 8.90513 17.0848 8.87666C17.0848 8.777 18.0226 9.11869 18.7471 9.46037L19.3155 9.74511L20.0685 9.40342C20.4805 9.21834 20.9351 9.07597 21.0772 9.07597C21.3045 9.07597 21.3471 8.96208 21.3471 8.44955C21.3471 7.72348 21.3756 7.695 22.1428 7.56687C22.6827 7.48145 22.7253 7.50992 22.981 7.99398C23.251 8.5065 23.6204 8.63463 24.0182 8.39261C24.1461 8.30719 24.0466 8.05092 23.6346 7.41027C23.322 6.92621 22.7679 6.01506 22.4127 5.38864C21.8444 4.39206 21.6881 4.23546 21.3614 4.23546H20.9777L20.722 6.54182ZM22.1428 6.41369C22.2422 6.71266 22.228 6.7269 21.816 6.85503C21.5034 6.95469 21.4892 6.92621 21.4892 6.20014V5.44559L21.7734 5.80151C21.9297 6.00082 22.0859 6.27132 22.1428 6.41369ZM17.9657 6.86927C18.0794 7.13977 18.0794 7.2679 17.9231 7.45298C17.7384 7.68077 16.8149 8.15058 16.7297 8.05092C16.6586 7.9655 16.2324 7.09706 16.2324 7.02587C16.2324 6.86927 17.028 6.52758 17.4116 6.51335C17.6958 6.51335 17.8521 6.613 17.9657 6.86927Z" fill="#72707E"/>
<path d="M34.3329 6.20014C34.134 6.64148 33.6935 7.58111 33.3384 8.27872C32.9974 8.97632 32.7274 9.56003 32.7558 9.58851C32.77 9.60274 33.3241 9.87324 33.9635 10.2007C34.9012 10.6705 35.1996 10.7702 35.3558 10.6278C35.6542 10.3858 35.5974 9.95866 35.2422 9.84477C35.0575 9.78782 34.6455 9.63122 34.3187 9.48885C33.7362 9.24682 33.722 9.21835 33.864 8.79125C33.9493 8.56346 34.0914 8.32143 34.1624 8.27872C34.2476 8.22177 34.6881 8.36414 35.1569 8.59193C35.8673 8.93361 36.0236 8.96209 36.1231 8.79125C36.393 8.36414 36.2367 8.15059 35.3985 7.76619L34.546 7.3818L34.7733 6.94046C34.887 6.71267 35.0717 6.51335 35.1569 6.51335C35.2422 6.51335 35.6684 6.71267 36.0946 6.95469C36.5209 7.19672 36.8761 7.36756 36.9045 7.33909C37.0181 7.19672 37.2739 6.62725 37.2312 6.58454C37.2028 6.55606 36.6203 6.28556 35.9384 5.95812L34.6881 5.38864L34.3329 6.20014Z" fill="#72707E"/>
<path d="M13.4619 7.6523C13.2062 7.93703 13.2062 7.95127 13.6324 8.40685C14.4991 9.33224 15.2379 10.3858 15.2379 10.7132C15.2379 11.0264 14.5275 11.781 14.2433 11.781C13.8881 11.781 12.8936 10.5993 12.0411 9.14716C11.9133 8.93361 11.828 8.91937 11.5723 9.06174C11.4018 9.14716 11.2597 9.33224 11.2739 9.47461C11.2881 9.859 13.1351 12.1084 13.6892 12.4074C14.3428 12.7633 14.8401 12.6352 15.5504 11.9376C16.1187 11.3539 16.204 10.9837 15.934 10.2576C15.7778 9.83053 13.9734 7.36756 13.8171 7.36756C13.7603 7.36756 13.604 7.49569 13.4619 7.6523Z" fill="#72707E"/>
<path d="M37.9985 8.02245C37.8138 8.29295 37.2171 9.10445 36.663 9.80206C35.7111 11.0122 35.6684 11.0834 35.9242 11.2827C36.3078 11.5817 36.3504 11.5674 36.8477 10.8413C37.3876 10.0441 37.5439 10.1722 37.5439 11.4678C37.5439 12.2793 37.5865 12.4216 37.9701 12.806C38.2116 13.0481 38.4531 13.2047 38.4958 13.1477C38.5384 13.105 38.4958 12.5782 38.4105 11.9803C38.3111 11.3966 38.2684 10.8698 38.2969 10.8271C38.3395 10.7986 38.4958 10.8271 38.6521 10.9125C39.3482 11.2827 40.1296 10.8841 40.5275 9.93019C40.6695 9.57427 40.6553 9.44614 40.428 9.04751C40.1581 8.59193 38.7799 7.50993 38.4816 7.50993C38.3963 7.50993 38.1832 7.73772 37.9985 8.02245ZM39.2062 8.87666C39.6892 9.24682 39.8171 9.73087 39.5045 10.0441C39.2346 10.3146 38.8225 10.2434 38.2969 9.84477L37.828 9.48885L38.2116 8.99056C38.4389 8.73429 38.6378 8.50651 38.6663 8.50651C38.6947 8.50651 38.9362 8.66311 39.2062 8.87666Z" fill="#72707E"/>
<path d="M40.3853 11.9233L38.7515 13.5748L39.0782 13.888L39.405 14.2012L39.8455 13.6602C40.087 13.3755 40.8258 12.6067 41.4651 11.9803L42.6444 10.8129L42.3318 10.5566L42.0192 10.2861L40.3853 11.9233Z" fill="#72707E"/>
<path d="M9.29904 11.2827C8.70231 11.781 8.36133 12.6779 8.56024 13.2616C8.70231 13.7172 9.5974 14.671 10.2794 15.0839C11.2171 15.6676 12.24 15.4114 12.8225 14.4575C13.1209 13.9734 13.1919 13.2758 12.9788 12.9342C12.7799 12.6352 12.2542 12.9911 12.2542 13.4324C12.2542 14.3009 11.5723 14.7707 10.7908 14.429C10.0236 14.1016 9.4127 13.4182 9.4127 12.8772C9.4127 12.3077 9.85313 11.781 10.3362 11.781C10.6772 11.781 10.9329 11.3539 10.7624 11.0691C10.5919 10.7986 9.72526 10.9125 9.29904 11.2827Z" fill="#72707E"/>
<path d="M43.028 11.8522C42.7865 12.0372 42.7865 12.0657 43.1559 12.564C43.369 12.8345 43.5253 13.0908 43.4969 13.105C43.4684 13.1192 43.0848 13.4324 42.6586 13.7884C42.2324 14.1443 41.5788 14.6426 41.2094 14.8988C40.8258 15.1409 40.5275 15.4114 40.5275 15.4683C40.5275 15.5253 40.6553 15.6961 40.7974 15.8242C41.0674 16.0663 41.0958 16.0663 41.4794 15.6961C42.3603 14.8561 43.9373 13.7457 44.1504 13.8311C44.2641 13.8738 44.4346 14.0731 44.534 14.2724C44.7187 14.671 44.8892 14.7138 45.2586 14.429C45.5001 14.2439 45.4575 14.1443 44.5056 12.9342C43.9373 12.2223 43.44 11.6386 43.3832 11.6386C43.3406 11.6386 43.1843 11.7383 43.028 11.8522Z" fill="#72707E"/>
<path d="M24.3449 12.9342C23.5067 13.1904 21.887 14.3294 20.8356 15.4114C19.3154 16.9774 18.2214 19.3265 18.2214 21.0207C18.2214 21.3481 18.1646 21.6044 18.1077 21.6044C18.0367 21.6044 17.8094 21.4193 17.5821 21.1773C15.9766 19.4973 13.1209 20.0099 12.1405 22.1454C11.8564 22.786 11.7995 23.0708 11.8706 23.7257C11.899 24.1812 12.0695 24.7934 12.2116 25.1066C12.3679 25.4198 12.5668 26.2741 12.6662 27.0713C12.9504 29.5485 13.9307 31.9546 15.3941 33.7911C16.2892 34.9158 17.8946 36.4249 18.6903 36.8947C19.287 37.2506 19.3154 37.2934 19.5001 38.3042C19.6138 38.8736 19.9405 39.8133 20.2531 40.4397C20.7362 41.4078 20.8356 41.5217 21.0203 41.3651C21.3329 41.1088 22.0148 39.6282 22.1285 38.9591C22.2138 38.4323 22.2422 38.4181 22.6684 38.5177C22.9241 38.5747 24.0181 38.6174 25.1121 38.6174C28.1241 38.6174 29.758 38.0621 32.3296 36.1687C33.0258 35.6561 33.6083 35.2717 33.6225 35.3002C33.6509 35.3144 33.7362 36.1259 33.8214 37.0798C33.9351 38.2899 34.1056 39.1157 34.3613 39.7848C34.5602 40.3116 34.7307 40.8668 34.7165 40.9949C34.7165 41.1373 34.8159 41.2512 34.9296 41.2512C35.0433 41.2512 35.1285 41.3081 35.1285 41.3793C35.1285 41.6071 35.8105 41.1943 35.8247 40.9665C35.8247 40.8526 36.052 40.098 36.3362 39.315C36.6914 38.2615 36.8618 37.5069 36.9329 36.5673C36.9755 35.8412 37.0608 35.229 37.1176 35.2005C37.1744 35.1578 37.3307 35.2575 37.4728 35.4141C38.0695 36.0832 38.1121 35.8839 38.1121 32.4956C38.1121 30.7302 38.0553 29.2923 37.9842 29.2923C37.9274 29.2923 37.7001 29.4204 37.487 29.5912C37.146 29.8617 37.0465 29.8475 37.1176 29.5058C37.1318 29.4204 37.2028 28.7513 37.2739 28.011C37.3449 27.2706 37.5438 25.8754 37.7001 24.9216C37.899 23.6545 37.97 22.601 37.9558 20.9352C37.9274 18.6146 37.828 18.1164 37.3733 17.9598C37.2312 17.917 37.0039 17.675 36.8761 17.433C35.9526 15.6392 33.3241 13.347 31.6476 12.9057C30.852 12.6921 29.687 12.8345 28.8203 13.2616L28.0957 13.6175L27.3569 13.2474C26.5045 12.8345 25.1263 12.6921 24.3449 12.9342ZM26.8739 13.9165C27.5985 14.2582 27.8684 14.5571 27.8826 15.0554C27.8826 15.3829 27.8116 15.4256 26.9449 15.5964C25.723 15.8242 24.7427 16.3368 23.7908 17.2337C22.2564 18.7001 21.887 19.7536 21.9012 22.601C21.9154 24.8931 21.7307 25.8897 21.1482 26.6442C20.7788 27.1283 19.9263 27.6408 19.77 27.4699C19.6138 27.2991 18.9318 22.7006 18.9318 21.8749C18.946 19.298 20.1821 16.835 22.3842 15.0554C24.1318 13.6318 25.4815 13.2901 26.8739 13.9165ZM31.7329 13.8026C32.5569 14.0731 33.6651 14.8704 34.7307 15.9381L35.7679 16.9632L35.1711 17.0486C34.8444 17.1055 34.4465 17.2479 34.2903 17.3903C34.134 17.5326 33.793 17.7035 33.5373 17.7462C33.111 17.8459 32.9974 17.7889 32.287 17.1483C31.3777 16.3225 30.3689 15.81 29.1613 15.5964C28.3799 15.4398 28.3088 15.3971 28.3088 15.0554C28.3088 14.6141 28.8771 14.0304 29.5165 13.8026C30.099 13.6033 31.1504 13.6033 31.7329 13.8026ZM30.0564 16.1944C30.8662 16.4934 32.1875 17.4045 32.5285 17.8886C32.6706 18.1021 32.6848 18.2587 32.5711 18.458C32.3722 18.8424 32.3864 19.6539 32.6138 19.9529C32.7558 20.1522 32.77 20.3515 32.6706 20.7359C32.4859 21.4193 32.8269 22.2308 33.4236 22.5725C33.793 22.786 33.8356 22.8715 33.7646 23.2416C33.5088 24.4517 32.2586 26.1032 31.0793 26.8008C29.6301 27.6408 27.5416 27.7974 25.8793 27.171C24.7995 26.7581 23.3788 25.4626 22.8673 24.409C21.2618 21.1203 22.7963 17.3618 26.2345 16.1659C27.2575 15.81 29.0761 15.8242 30.0564 16.1944ZM36.0094 17.7177C36.1515 17.8459 36.2651 18.0309 36.2651 18.1448C36.2651 18.3726 36.4356 18.3869 36.6487 18.1733C36.8761 17.9455 37.3875 18.2587 37.558 18.7285C37.7143 19.1556 37.6148 19.8105 37.4017 19.6824C37.1744 19.54 37.2455 20.1807 37.4728 20.4085C37.5864 20.5366 37.6859 20.7644 37.6859 20.921C37.6859 21.2769 36.8192 22.1739 36.464 22.1739C36.3362 22.1739 36.2651 22.2166 36.3077 22.2735C36.464 22.4301 36.1088 22.7433 35.7679 22.7433C35.5121 22.7433 35.4695 22.6864 35.5263 22.3874C35.6116 21.9461 35.3416 21.6044 34.9012 21.6044C34.5602 21.6044 34.1908 22.0742 34.3471 22.3162C34.546 22.6437 33.722 22.4301 33.381 22.06C32.9121 21.5759 32.8695 20.8783 33.2815 20.2092L33.5799 19.7251L33.2815 19.8248C32.8411 19.9671 32.6138 19.2695 32.9121 18.6574C33.1536 18.1448 33.5657 17.974 34.3471 18.0736C34.7165 18.1164 34.8017 18.0879 34.6881 17.9455C34.6028 17.8459 34.5744 17.7035 34.6312 17.6181C34.7733 17.3903 35.711 17.4472 36.0094 17.7177ZM16.4028 21.2627C17.1558 21.6471 17.0848 21.7895 16.0476 21.9603C15.7493 22.003 15.3088 22.2308 15.0673 22.4444C14.6553 22.8145 14.6411 22.8572 14.7974 23.3555C14.9963 23.925 15.5504 24.4517 15.9624 24.4517C16.3176 24.4517 16.3034 24.6368 15.8914 25.1066L15.5646 25.5053L14.8684 25.1066C14.4848 24.8788 14.0586 24.5656 13.9307 24.3948C13.8028 24.2382 13.6608 24.1385 13.6039 24.1812C13.4761 24.3236 14.2291 25.1493 14.7121 25.4056C15.0815 25.5907 15.1099 25.6476 14.911 25.7615C14.5985 25.9324 13.6465 25.6761 13.3624 25.3487C12.8509 24.765 12.652 24.1385 12.7088 23.2986C12.8509 21.4193 14.6979 20.3942 16.4028 21.2627ZM35.1995 22.1881C35.1995 22.2877 35.0859 22.4016 34.958 22.4301C34.7023 22.4728 34.6028 22.1739 34.8017 21.9745C34.9438 21.8322 35.1995 21.9603 35.1995 22.1881ZM17.6247 22.8145C18.0509 24.1101 17.1985 25.6476 15.8771 25.9608L15.4509 26.0605L15.8771 25.7046C16.1187 25.5053 16.4455 25.0782 16.6159 24.7792L16.9427 24.2097L16.3318 24.1243C15.6924 24.0389 15.0957 23.5121 15.0957 23.0281C15.0957 22.601 16.1045 22.1739 17.0138 22.2166C17.3832 22.245 17.4684 22.3305 17.6247 22.8145ZM37.2028 22.7718C37.1602 23.0281 36.9897 24.1385 36.8334 25.2348C36.4498 27.7547 36.5067 27.6123 36.0236 27.4272C34.958 27.0286 34.4181 25.9751 34.3045 24.1243L34.2334 22.843L34.6455 22.9426C35.8247 23.2416 36.0946 23.2131 36.5067 22.7718C37.0608 22.1881 37.3165 22.1881 37.2028 22.7718ZM33.722 25.1921C33.6367 25.6049 33.5941 26.8862 33.6083 28.0394C33.6367 29.9329 33.6225 30.1038 33.4094 29.9187C33.2957 29.8048 33.1394 29.7194 33.0968 29.7194C33.04 29.7194 32.9974 30.8014 32.9974 32.1396V34.5599L32.0455 35.3429C30.852 36.3253 29.1897 37.1937 27.7832 37.5639C26.4476 37.9198 24.2597 37.9767 22.8673 37.7062L21.9154 37.5211L22.0006 36.1402C22.0575 35.3856 22.1143 34.745 22.1427 34.7165C22.1711 34.688 22.37 34.8162 22.5832 34.987L22.981 35.3002L23.0236 33.4637L23.0662 31.6413L24.2739 31.3993C26.2771 31.0149 27.8684 30.0468 28.8771 28.5947C29.2181 28.1106 29.5307 27.8259 29.8717 27.712C31.3919 27.1995 33.1252 25.8185 33.5515 24.7507C33.8214 24.1101 33.9067 24.2951 33.722 25.1921ZM18.4487 25.1209C18.3067 25.2632 18.1788 25.0497 18.3067 24.8646C18.3919 24.708 18.4203 24.708 18.4771 24.8646C18.5056 24.9643 18.4914 25.0782 18.4487 25.1209ZM18.3067 26.0463C18.7613 26.2883 19.1591 26.5018 19.1875 26.5161C19.2017 26.5303 19.287 27.1567 19.358 27.8828C19.4291 28.6231 19.5143 29.3492 19.5569 29.5058C19.6848 29.9187 19.4575 30.1892 19.0739 30.0753C18.5482 29.9044 17.028 28.2672 16.5449 27.3276C16.0903 26.4734 16.0618 26.1602 16.417 26.1602C16.5165 26.1602 16.7438 26.032 16.9427 25.8754C17.1416 25.7188 17.3405 25.5907 17.3832 25.5907C17.4258 25.5907 17.8378 25.79 18.3067 26.0463ZM21.887 27.8543C21.6312 28.3384 21.3329 28.6374 20.7788 28.9791C19.9121 29.4916 19.7985 29.4346 19.7416 28.495C19.7132 28.011 19.7558 27.954 20.1821 27.8401C20.793 27.6835 21.6881 26.7723 21.9296 26.0747L22.1285 25.5195L22.1711 26.3595C22.1995 27.0286 22.1427 27.3418 21.887 27.8543ZM35.1285 27.3418C35.3842 27.5696 35.7821 27.7832 36.0094 27.8259C36.2367 27.8686 36.464 27.9825 36.4924 28.0821C36.6061 28.3811 36.3362 29.2211 36.1088 29.2638C35.9952 29.278 35.5974 29.0929 35.228 28.8509C34.3329 28.253 33.9919 27.5838 34.0061 26.4164V25.5195L34.3329 26.2313C34.5176 26.63 34.8728 27.1283 35.1285 27.3418ZM15.1668 26.4449C15.7209 26.4449 15.7493 26.4734 16.0761 27.2564C16.3034 27.7689 16.7722 28.4238 17.3974 29.0645L18.3635 30.0753V32.6664C18.3635 34.1043 18.4061 35.2717 18.4487 35.2717C18.4914 35.2717 18.7329 35.1151 19.0028 34.9016C19.2586 34.7023 19.5001 34.6026 19.5427 34.6595C19.6706 34.9016 19.6564 36.4107 19.5143 36.4107C19.3012 36.4107 18.0935 35.471 17.1842 34.5741C15.0815 32.5525 13.7034 29.6909 13.4334 26.7723L13.3482 25.8754L13.9733 26.1602C14.3143 26.3168 14.8542 26.4449 15.1668 26.4449ZM24.6859 26.9432C25.8083 27.6123 26.7034 27.8828 27.8826 27.9113C28.4225 27.9255 28.8771 27.9825 28.8771 28.0537C28.8771 28.2957 27.0444 29.9614 26.3766 30.3173C25.5668 30.7587 24.217 31.1431 23.5209 31.1431H23.052V30.4027C23.052 29.8333 23.0094 29.7051 22.8815 29.8333C22.7821 29.9329 22.6826 30.0041 22.64 30.0041C22.5689 30.0041 22.5405 27.6693 22.5974 26.9859C22.6258 26.7723 23.1799 26.5018 23.7056 26.4591C23.7908 26.4449 24.2312 26.6727 24.6859 26.9432ZM21.9864 30.0753C21.7307 30.7871 20.864 31.4847 20.5088 31.2854C19.5711 30.7871 19.5853 29.9329 20.5515 29.5343C20.8782 29.3919 21.3755 29.0502 21.6455 28.7797L22.1285 28.2814L22.1711 28.8794C22.1995 29.2211 22.1143 29.7478 21.9864 30.0753ZM35.64 29.5343C36.1941 29.7621 36.393 30.0326 36.4072 30.5166C36.4072 30.6163 36.1799 30.8583 35.9099 31.0576L35.4127 31.442L34.9296 31.0719C34.2903 30.5878 33.9919 29.9187 33.9919 28.9933V28.253L34.5034 28.7655C34.7875 29.0502 35.299 29.3919 35.64 29.5343ZM19.6422 31.1431L20.2815 31.7125L19.7842 32.1396C19.358 32.5098 19.3154 32.5952 19.5143 32.7091C19.6422 32.7803 19.8837 32.9511 20.0542 33.0935L20.3668 33.3498L19.6706 33.8908C19.287 34.1755 18.9034 34.4175 18.8039 34.4175C18.6903 34.4175 18.6476 33.8338 18.6476 32.4956C18.6476 31.0576 18.6903 30.5736 18.8323 30.5736C18.9176 30.5736 19.287 30.8298 19.6422 31.1431ZM22.7679 32.4956C22.7679 33.7057 22.711 34.4175 22.6258 34.4175C22.5405 34.4175 21.9154 33.9904 21.2192 33.4637L19.9405 32.5098L21.2334 31.5417C21.9438 31.0149 22.5832 30.5736 22.6542 30.5736C22.711 30.5736 22.7679 31.442 22.7679 32.4956ZM34.2903 31.0861C34.6739 31.3708 34.9864 31.6413 34.9864 31.6841C34.9864 31.741 34.7591 31.9403 34.475 32.1254L33.9635 32.4813L34.5034 32.9227L35.0291 33.364L34.4039 33.848C34.0629 34.1043 33.6935 34.389 33.6083 34.4602C33.4662 34.5599 33.4236 34.1755 33.4236 32.581C33.4236 31.4847 33.4662 30.5736 33.5088 30.5736C33.5657 30.5736 33.9067 30.8014 34.2903 31.0861ZM37.4017 32.581C37.4017 34.1755 37.3591 34.5599 37.2312 34.4602C37.1318 34.3748 36.5209 33.9192 35.8673 33.4209C35.2138 32.9369 34.7165 32.5098 34.7591 32.4671C34.9864 32.2393 37.2028 30.5736 37.3023 30.5736C37.3591 30.5736 37.4017 31.4847 37.4017 32.581ZM21.2618 34.0047C21.617 34.2752 21.6312 34.3606 21.6312 35.5992C21.6312 37.5354 21.2334 39.9699 20.9209 39.9699C20.6083 39.9699 19.9263 36.5815 19.9263 34.9728C19.9263 34.3036 19.9832 34.1328 20.2531 33.9477C20.6793 33.6487 20.8214 33.6487 21.2618 34.0047ZM35.9099 33.9335C36.2225 34.1328 36.2651 34.2752 36.2651 34.9728C36.2651 36.5246 35.6258 39.8275 35.2848 40.0411C35.0717 40.1692 34.6881 38.233 34.5886 36.5388C34.4608 34.446 34.4892 34.2467 34.958 33.9477C35.4411 33.6487 35.4837 33.6487 35.9099 33.9335Z" fill="#72707E"/>
<path d="M30.0564 17.0486C29.9712 17.2906 29.7865 17.4757 29.6586 17.4757C29.275 17.4757 28.6357 17.9171 28.4652 18.2872C28.181 18.9136 28.3089 18.9706 28.7493 18.4296C29.346 17.7035 29.9712 17.6893 30.6674 18.3869C31.122 18.8424 31.3209 18.814 31.0226 18.3442C30.9231 18.2018 30.9799 18.0167 31.1646 17.7889C31.3067 17.5896 31.4346 17.3618 31.4346 17.2764C31.4346 17.191 31.3351 17.2764 31.2073 17.4472C31.0936 17.6181 30.9089 17.7604 30.7952 17.7604C30.6389 17.7604 30.6389 17.675 30.8236 17.3191C30.9373 17.0913 30.9941 16.8493 30.9515 16.8066C30.9089 16.7639 30.8094 16.8778 30.7384 17.0771C30.6674 17.2764 30.4969 17.4757 30.369 17.5184C30.1843 17.6038 30.1559 17.5327 30.2411 17.1198C30.3548 16.5076 30.2695 16.4791 30.0564 17.0486Z" fill="#72707E"/>
<path d="M27.1865 16.9205C27.1722 17.1625 26.6181 17.7462 26.5897 17.5327C26.5755 17.4615 26.5897 17.2764 26.6039 17.1198C26.6181 16.8493 26.6181 16.8493 26.405 17.1483C26.2772 17.3191 25.993 17.4899 25.7657 17.5469C25.3395 17.6323 24.8706 18.0736 24.7143 18.5008C24.5865 18.8851 24.7996 18.814 25.2542 18.3299C25.8225 17.732 26.4192 17.7462 27.0302 18.3584L27.4848 18.8282L27.3854 18.3584C27.3285 18.1021 27.3427 17.9028 27.428 17.9028C27.499 17.9028 27.6269 17.732 27.7263 17.5042L27.911 17.1198L27.5985 17.433C27.1296 17.9455 26.8881 17.8601 27.1865 17.3191C27.2717 17.1625 27.3001 16.9632 27.2575 16.8635C27.2291 16.7639 27.1865 16.7781 27.1865 16.9205Z" fill="#72707E"/>
<path d="M24.0892 19.8533C24.1602 20.8641 24.6433 21.462 25.8509 22.06C26.7176 22.4871 26.9023 22.5298 28.0815 22.5155C28.9766 22.5155 29.5449 22.4301 29.9427 22.2593C31.3919 21.6471 32.1449 20.7359 32.1449 19.6539L32.1307 19.1129L31.875 19.8675C31.5624 20.7786 31.2214 21.1488 30.2553 21.6898C29.5875 22.06 29.3886 22.1027 28.1668 22.1027C27.0444 22.1027 26.6892 22.0457 26.064 21.761C25.2542 21.3908 24.3307 20.4512 24.3165 19.9814C24.3165 19.8105 24.2454 19.5543 24.1744 19.3977C24.075 19.1841 24.0607 19.3123 24.0892 19.8533Z" fill="#72707E"/>
<path d="M34.7165 19.4404C34.3613 19.7109 34.2761 20.4797 34.546 20.8071C34.8018 21.1061 35.3417 21.163 35.8389 20.921C36.1799 20.7502 36.2652 20.622 36.2652 20.2519C36.2652 19.7394 35.7821 19.1841 35.3133 19.1841C35.157 19.1841 34.8728 19.298 34.7165 19.4404ZM35.8674 19.9814C36.0236 20.2946 36.0094 20.38 35.7679 20.5509C35.2848 20.9068 34.7023 20.7075 34.7023 20.1807C34.7023 19.54 35.5974 19.3977 35.8674 19.9814Z" fill="#72707E"/>
<path d="M6.6564 16.2371C6.21596 16.7069 5.86077 17.5611 5.86077 18.1591C5.86077 18.3157 5.69028 18.5862 5.49137 18.7428C5.12197 19.0418 5.15038 19.4119 5.53399 19.2695C5.67607 19.2126 5.77552 19.2838 5.81814 19.4831C5.88918 19.7536 5.97443 19.7821 6.55694 19.6824C6.91213 19.6397 7.43782 19.5685 7.70776 19.5543C7.97771 19.5258 8.31869 19.4689 8.46077 19.3977C8.60284 19.3407 8.7023 19.355 8.7023 19.4546C8.7023 19.6966 9.05749 19.6397 9.31323 19.355C9.59738 19.0418 9.65421 18.6004 9.38426 18.8709C9.02907 19.2268 8.87279 19.056 8.94383 18.4153C9.01487 17.8032 9.00066 17.7747 8.63126 17.675C8.30448 17.5896 8.17661 17.6465 7.9635 17.9028C7.80722 18.0879 7.65093 18.4153 7.60831 18.6289C7.55148 18.9136 7.4094 19.0418 6.99738 19.1699C6.3012 19.3834 6.287 19.3692 6.287 19.0275C6.287 18.8567 6.44328 18.6004 6.64219 18.4438C7.23891 17.974 7.73618 16.9917 7.67935 16.3795C7.62252 15.6534 7.26732 15.5964 6.6564 16.2371ZM7.2247 16.7069C7.11104 17.1625 6.57115 18.0452 6.41487 18.0452C6.24437 18.0452 6.40066 17.4045 6.74164 16.7212C7.02579 16.1517 7.36678 16.1374 7.2247 16.7069ZM8.48918 18.5008C8.36131 19.0702 8.30448 19.1841 8.11978 19.1841C7.94929 19.1841 7.94929 18.8709 8.13399 18.4153C8.3329 17.8743 8.60284 17.9455 8.48918 18.5008Z" fill="#72707E"/>
<path d="M45.358 15.8954C45.1591 15.9524 44.2356 16.1232 43.2979 16.2656C42.3602 16.4079 41.5788 16.5361 41.5504 16.5503C41.5362 16.5788 41.593 16.7496 41.6783 16.9632C41.863 17.376 41.9198 17.376 42.6728 17.2052C43.1843 17.0913 43.2127 17.1055 43.511 17.6465L43.8236 18.216L43.369 18.6858C42.9143 19.1556 42.9143 19.1556 43.1559 19.6255L43.3974 20.081L43.9089 19.4546C44.193 19.1129 44.8182 18.4153 45.287 17.9028C46.6794 16.3937 46.6794 16.3937 46.4947 16.0663C46.3384 15.753 45.9974 15.7103 45.358 15.8954ZM45.0739 17.0486C44.6477 17.6608 44.4914 17.7035 44.193 17.3333C43.8804 16.9489 43.9089 16.9062 44.534 16.7639C45.358 16.5645 45.4007 16.593 45.0739 17.0486Z" fill="#72707E"/>
<path d="M45.6706 31.2854C45.4149 31.6983 45.4575 32.1966 45.7843 32.6094C46.0258 32.9084 46.04 33.0366 45.9121 33.3213C45.7701 33.6345 45.6848 33.6772 45.2728 33.606C44.8608 33.5348 44.7897 33.5633 44.7897 33.8196C44.7897 34.1328 45.1307 34.5599 45.3865 34.5599C45.5427 34.5599 45.9121 34.9728 45.9264 35.1578C45.9264 35.2148 45.5996 35.1436 45.216 34.987C44.3209 34.6311 44.2214 34.6311 44.2214 34.9728C44.2214 35.229 45.0597 35.6846 45.9548 35.9124C46.5373 36.0548 46.7362 35.5849 46.3668 34.8731C46.1821 34.5172 46.1395 34.2609 46.2247 34.1185C46.2958 34.0047 46.3526 33.7769 46.3526 33.5918C46.3526 33.3355 46.4378 33.2786 46.8214 33.2786C47.4608 33.2786 47.6881 33.0935 47.6029 32.6664C47.5602 32.4244 47.6029 32.2678 47.7307 32.2251C48.1427 32.0542 47.816 31.6698 47.0061 31.3424C45.9832 30.9295 45.8979 30.9295 45.6706 31.2854ZM46.7504 31.9973C46.9919 32.1539 47.205 32.3389 47.205 32.4101C47.205 32.8799 46.3384 32.5952 46.0826 32.0542C45.8837 31.6271 46.0968 31.5986 46.7504 31.9973Z" fill="#72707E"/>
<path d="M7.09685 31.2285C6.91215 31.4136 6.99739 31.5132 7.49466 31.6983C8.3045 31.983 8.10559 32.2251 6.75586 32.6379C4.66734 33.2643 4.58209 33.2928 4.58209 33.4779C4.58209 33.8908 4.88045 33.9335 5.83237 33.6914C7.55149 33.2359 9.04329 33.4067 8.80176 34.0331C8.75914 34.1613 8.36133 34.3606 7.92089 34.4887C7.49466 34.6026 6.78428 34.8019 6.35805 34.9158C5.56242 35.1436 5.26406 35.4426 5.54821 35.7273C5.64767 35.827 5.93182 35.7985 6.47171 35.6419C8.19084 35.1436 9.78209 35.229 9.66843 35.8127C9.64002 35.9836 9.29903 36.1402 8.41816 36.3537C6.85532 36.7524 6.71324 36.8093 6.55696 37.2079C6.31543 37.8486 6.75586 38.475 7.53728 38.6316C7.89248 38.7028 7.99193 38.6743 7.99193 38.5035C7.99193 38.3896 7.83564 38.2472 7.65094 38.2045C7.23892 38.1049 7.05422 37.7062 7.30996 37.4642C7.40942 37.3645 8.06297 37.151 8.75914 36.9944C10.0094 36.6954 10.393 36.4534 10.4072 35.9693C10.4072 35.5992 9.85313 34.987 9.49794 34.987C9.02909 34.987 8.94384 34.8304 9.27062 34.6026C9.89575 34.1613 9.38428 33.2359 8.43237 33.0508L7.94931 32.9511L8.33291 32.7518C9.04329 32.3817 8.57444 31.4563 7.5657 31.2142C7.36679 31.1715 7.15368 31.1715 7.09685 31.2285Z" fill="#72707E"/>
<path d="M42.7296 35.3714C42.4739 35.6277 42.5023 35.827 42.8433 36.0405C43.028 36.1544 43.1274 36.1402 43.2269 35.9836C43.5679 35.4426 43.1559 34.9301 42.7296 35.3714Z" fill="#72707E"/>
<path d="M45.2444 36.3253C45.2728 36.6385 45.216 36.909 45.1307 36.9374C45.0597 36.9659 44.7187 36.7524 44.3919 36.4676C43.5395 35.7416 43.1132 36.1117 43.9089 36.8805C44.2214 37.1937 44.3209 37.4215 44.3351 37.9055C44.3777 38.7455 44.0794 38.9306 43.3406 38.5177L42.8291 38.2188L43.099 37.7774C43.2411 37.5354 43.369 37.2507 43.369 37.151C43.369 36.8947 42.9854 36.9517 42.8717 37.2222C42.8007 37.4357 42.7438 37.3788 42.5734 36.9802C42.4597 36.7097 42.2608 36.3822 42.1329 36.2398C41.863 35.9266 41.1526 35.8982 41.0531 36.1829C40.9253 36.5246 41.1952 37.2791 41.6499 37.8486C41.9624 38.233 42.0335 38.4038 41.9056 38.532C41.6641 38.774 42.005 39.073 42.275 38.8594C42.4313 38.717 42.5591 38.7455 42.8433 38.9875C43.8378 39.7706 44.7897 39.3719 44.7897 38.176C44.7897 37.6208 44.8324 37.5354 45.0171 37.6066C45.3581 37.7347 45.7843 37.2934 45.7843 36.8378C45.7843 36.6242 45.6564 36.2968 45.5001 36.1117L45.2018 35.77L45.2444 36.3253ZM42.1755 37.1652C42.4739 37.7347 42.3318 37.7917 41.8914 37.2649C41.4652 36.7524 41.3657 36.2398 41.7493 36.5673C41.863 36.6669 42.0619 36.9374 42.1755 37.1652Z" fill="#72707E"/>
<path d="M8.3471 38.6174C7.93508 39.016 7.89245 39.6282 8.24764 40.0553C8.5318 40.4255 9.01486 40.6817 9.38426 40.6817C9.59737 40.6817 9.63999 40.7671 9.58316 41.1088C9.51213 41.6213 9.75366 41.963 10.2083 41.963C10.464 41.963 10.5493 42.0342 10.5493 42.2905C10.5493 42.7745 10.8192 42.9596 11.487 42.9596C12.0411 42.9596 12.0695 42.9881 11.9985 43.3155C11.9132 43.8138 12.1974 44.0986 12.8225 44.0986C13.3056 44.0986 13.3624 44.1413 13.4334 44.5257C13.5471 45.0809 14.1154 45.4226 14.8968 45.4083C15.4367 45.4083 15.522 45.4368 15.4509 45.6504C15.3231 46.0632 15.8487 46.4192 16.4028 46.3053C16.6586 46.2483 16.9427 46.1344 17.0422 46.0632C17.17 45.9636 17.1985 46.049 17.1274 46.4334C17.0138 47.1452 17.3405 47.1168 18.0651 46.348C18.7187 45.6504 18.9318 45.6788 18.5056 46.4192C18.264 46.832 18.2356 46.9886 18.3635 47.2307C18.5056 47.4869 18.6334 47.5296 19.0455 47.4869C19.3438 47.4442 19.6848 47.373 19.8269 47.3161C20.0116 47.2307 20.0684 47.2734 20.0684 47.4869C20.0684 47.8571 20.4094 48.1276 20.7646 48.0137C20.9067 47.971 21.0772 47.9994 21.134 48.0849C21.1766 48.156 21.3329 48.2272 21.475 48.2272C21.6455 48.2272 21.8017 47.971 22.0291 47.2734C22.3274 46.3337 22.3274 46.3195 22.0575 46.0632C21.9154 45.9209 21.6455 45.807 21.475 45.807C21.0914 45.807 20.3668 46.2341 20.2815 46.5188C20.2105 46.7181 19.0881 47.1452 18.946 47.0171C18.9176 46.9886 19.0597 46.6612 19.2728 46.291C19.4717 45.9351 19.6422 45.5365 19.6422 45.4368C19.6422 45.1663 18.7329 45.1806 18.5056 45.4511C18.2072 45.807 18.0509 45.6931 18.3067 45.2944C18.5198 44.9812 18.5198 44.9101 18.3493 44.8104C18.1362 44.668 17.5679 45.1094 17.44 45.508C17.3974 45.6646 17.17 45.75 16.7296 45.7785C15.9624 45.8212 15.9198 45.6646 16.5165 44.9528C16.758 44.6823 16.9427 44.3833 16.9427 44.2836C16.9427 43.9562 16.4028 44.0843 16.0619 44.4972C15.8061 44.7962 15.593 44.8958 15.1099 44.9243C14.1154 44.9955 13.7886 44.4545 14.4422 43.8281C14.8258 43.4721 15.2378 43.5433 14.9394 43.8992C14.6269 44.2694 15.0247 44.4545 15.3657 44.1128C15.7209 43.7569 15.7351 43.6145 15.4367 43.3298C15.1384 43.0308 14.3569 43.045 13.9449 43.3582C13.5755 43.643 12.7515 43.7711 12.6236 43.5576C12.581 43.4864 12.8083 43.1874 13.1067 42.8884C13.4192 42.5752 13.675 42.2478 13.675 42.1481C13.675 41.8634 13.2203 41.9346 12.7657 42.3047C12.4389 42.5752 12.24 42.6322 11.8422 42.5752C10.8334 42.4186 10.9187 41.9773 12.0127 41.6356C13.7034 41.0946 14.8258 40.1407 14.3853 39.614C14.1012 39.2723 13.6608 39.3577 12.7515 39.8987C11.9985 40.3543 11.8848 40.3827 11.4444 40.2404C11.1034 40.1265 10.8476 40.1265 10.5209 40.2404C10.0094 40.4255 9.12852 40.2404 8.77333 39.8845C8.47497 39.5855 8.50338 39.3435 8.81595 39.4716C8.94382 39.5428 9.25639 39.614 9.49792 39.6424C10.2935 39.7563 10.6061 38.8309 9.92415 38.3754C9.56896 38.1333 8.68808 38.2615 8.3471 38.6174ZM9.68262 38.8736C9.86732 39.1014 9.75366 39.258 9.39846 39.258C9.05748 39.258 8.9012 38.9733 9.14273 38.8167C9.41267 38.6459 9.49792 38.6601 9.68262 38.8736ZM13.9307 39.9983C13.8597 40.1977 12.581 41.1088 12.3679 41.1088C12.1405 41.1088 12.3963 40.8241 13.0782 40.3258C13.7886 39.799 14.016 39.7136 13.9307 39.9983ZM11.3165 40.7956C11.4444 41.0092 10.6203 41.6925 10.3646 41.5929C9.96677 41.4505 10.1373 41.0661 10.6914 40.8383C11.146 40.6532 11.2313 40.6532 11.3165 40.7956ZM21.4039 46.9744C21.1482 47.4869 20.9351 47.6862 20.7504 47.5723C20.5231 47.43 20.6509 47.0598 21.0914 46.6185C21.6028 46.0917 21.7591 46.2768 21.4039 46.9744Z" fill="#72707E"/>
<path d="M41.0247 39.7563C40.6269 40.1407 40.5701 40.696 40.8684 41.2797C40.9821 41.5075 41.0247 41.6783 40.9537 41.6783C40.8826 41.6783 40.8116 41.8776 40.7832 42.1339C40.7263 42.7461 40.4564 42.7888 40.158 42.2193C40.0302 41.963 39.8313 41.6356 39.7034 41.4932C39.5045 41.2654 39.4761 41.2654 39.2203 41.479C39.0641 41.6214 38.9646 41.9346 38.9504 42.2335C38.9504 42.7034 38.9362 42.7176 38.7941 42.4186C38.4957 41.8064 38.0411 42.1339 38.2684 42.7888C38.3963 43.1447 38.2116 43.6715 37.9559 43.6715C37.8848 43.6715 37.7569 43.5149 37.6859 43.3155C37.6149 43.1162 37.4586 42.9596 37.3449 42.9596C37.0466 42.9596 36.6914 43.5149 36.6772 44.0274L36.663 44.4545L36.5209 43.9847C36.3504 43.4721 36.2083 43.4152 36.0094 43.7711C35.91 43.9277 35.9384 44.1982 36.0662 44.5541C36.1657 44.8531 36.2083 45.0951 36.1373 45.0951C36.0804 45.0951 35.9242 45.3229 35.7963 45.5934C35.569 46.0632 35.0575 46.4192 34.8018 46.2768C34.7449 46.2483 34.8586 46.0205 35.0575 45.7785C35.4837 45.2802 35.4979 45.0951 35.1569 44.668C34.5886 43.9704 33.5515 44.9101 33.793 45.8782C33.8498 46.0917 33.8214 46.2341 33.7362 46.2341C33.6509 46.2341 33.5373 46.3622 33.4947 46.5188C33.452 46.6754 33.2673 46.8747 33.111 46.9602C32.7559 47.1452 32.358 46.8178 32.216 46.2198C32.1307 45.8782 32.1733 45.8212 32.628 45.6646C33.1679 45.4938 33.3384 45.0951 32.8695 45.0951C32.6422 45.0951 32.628 45.0097 32.6848 44.4118C32.7274 43.8992 32.6848 43.6572 32.4717 43.4152C31.9602 42.7603 31.4345 43.4294 31.4345 44.725C31.4345 45.2802 31.3777 45.508 31.2214 45.5792C30.9089 45.6931 30.9657 46.0917 31.2783 46.0917C31.463 46.0917 31.5766 46.2198 31.6477 46.5046C31.7755 47.0883 32.3438 47.6578 32.7843 47.6578C33.1537 47.6578 33.864 47.0883 34.0203 46.6612C34.0772 46.4903 34.134 46.4761 34.2903 46.6185C34.8728 47.1737 36.2367 46.4049 36.2651 45.5222L36.2794 45.1663L36.5067 45.4795C36.6203 45.6646 36.8477 45.807 36.9897 45.807C37.2455 45.807 37.2597 45.7358 37.1744 44.8816C37.1176 44.2836 37.1318 43.9562 37.2313 43.9562C37.3023 43.9562 37.4018 44.0559 37.4586 44.1697C37.5865 44.5257 38.24 44.426 38.4247 44.0274C38.6236 43.6003 38.7089 43.586 39.0356 43.9562C39.6039 44.5826 39.9307 44.2125 39.6039 43.3298C39.2487 42.4044 39.3766 42.0769 39.8171 42.7603C40.0728 43.1589 40.2717 43.3155 40.5274 43.3155C40.9395 43.3155 41.2662 42.7888 41.1952 42.2051C41.1384 41.7637 41.1526 41.7637 41.5362 41.9773C41.9056 42.1624 42.5165 41.8064 42.5165 41.3936C42.5165 41.2085 42.616 41.1088 42.8007 41.1088C43.1559 41.1088 43.4116 40.5109 43.2979 39.9414C43.1701 39.3577 42.8007 39.4289 42.8007 40.0411C42.8007 40.6817 42.6444 40.6675 42.1613 39.9699C41.7067 39.315 41.4936 39.2723 41.0247 39.7563ZM42.0903 41.1658C42.0903 41.4932 41.7067 41.4363 41.4651 41.0804C41.2378 40.7529 41.1668 40.2261 41.3373 40.0695C41.4509 39.9414 42.0903 40.881 42.0903 41.1658ZM32.2728 44.2836C32.2728 44.5399 32.216 44.8674 32.1591 45.024C32.0597 45.2517 32.0313 45.209 31.946 44.7677C31.8324 44.1697 31.946 43.6145 32.1591 43.7426C32.2302 43.7996 32.287 44.0416 32.2728 44.2836ZM34.8444 45.2233C34.8444 45.565 34.475 45.9066 34.3897 45.6361C34.2903 45.3372 34.4324 44.9528 34.6455 44.9528C34.7591 44.9528 34.8444 45.0667 34.8444 45.2233Z" fill="#72707E"/>
<path d="M13.7745 41.3936C13.675 41.8064 14.1865 42.0769 14.4991 41.7637C14.6837 41.5929 14.6837 41.5075 14.5275 41.3366C14.2717 41.0234 13.8597 41.0519 13.7745 41.3936Z" fill="#72707E"/>
<path d="M16.8575 43.3155C16.7297 43.6287 16.9854 43.8423 17.3832 43.7854C17.6105 43.7569 17.7242 43.643 17.7242 43.4579C17.7242 43.0877 16.9854 42.9596 16.8575 43.3155Z" fill="#72707E"/>
<path d="M29.6302 43.8423C29.2466 44.5541 29.2608 46.9744 29.6586 47.6578C30.0564 48.3269 30.6531 48.3981 31.193 47.8571C31.5624 47.4869 31.7187 46.9459 31.4345 46.9459C31.3635 46.9459 31.193 47.1025 31.0652 47.3019C30.8236 47.672 30.369 47.7859 30.2695 47.5012C30.2411 47.4157 30.3548 46.9175 30.5395 46.3907C31.0794 44.8246 30.9231 43.3867 30.2127 43.3867C29.9854 43.3867 29.8007 43.5291 29.6302 43.8423ZM30.3548 44.184C30.4826 44.5114 30.4542 44.9955 30.2695 45.7927C30.0706 46.647 29.8717 46.5046 29.8717 45.508C29.8717 44.2979 30.1274 43.586 30.3548 44.184Z" fill="#72707E"/>
<path d="M26.675 44.4545C25.9504 44.7392 25.4957 45.1663 25.1689 45.8782C24.6433 47.0171 24.9274 48.3411 25.7515 48.6259C26.2345 48.7967 26.5329 48.7398 26.9733 48.3411C27.2575 48.0849 27.2717 48.0849 27.5274 48.3696C27.6695 48.5262 27.9536 48.6543 28.1668 48.6543C28.6498 48.6543 29.3034 48.1561 29.3034 47.7859C29.3034 47.4442 29.1897 47.4442 28.7919 47.8144C28.0957 48.4693 27.8684 47.8571 28.181 46.1771C28.3373 45.3087 28.2378 45.024 27.8542 45.1663C27.7121 45.2233 27.57 45.5934 27.4564 46.1344C27.2149 47.4157 26.8312 48.0849 26.3624 48.0849C25.6094 48.0849 25.3963 47.1879 25.8935 46.0205C26.2487 45.1806 27.1012 44.7392 28.0957 44.8958C28.6072 44.967 28.7493 44.9385 28.8203 44.7535C28.8771 44.6253 28.8771 44.4687 28.8203 44.426C28.6356 44.2267 27.2149 44.2552 26.675 44.4545Z" fill="#72707E"/>
</g>
<defs>
<clipPath id="clip0_2_44931">
<rect width="52" height="52" fill="white"/>
</clipPath>
</defs>
</svg>
