<svg width="149" height="24" viewBox="0 0 149 24" fill="none" xmlns="http://www.w3.org/2000/svg">
<path fill-rule="evenodd" clip-rule="evenodd" d="M38.6432 15.1391L41.0091 9.61868C40.4593 9.45372 39.6015 9.23988 38.6778 9.00964L38.6778 9.00963C37.3934 8.68946 35.9819 8.33758 35.0944 8.04133C33.9114 7.64646 33.9114 5.28112 36.6716 5.28112C38.8798 5.28112 39.4318 6.5955 39.4318 7.2527H42.1921L44.1636 2.5209C43.375 1.73228 42.4595 1.36606 41.4035 0.943654L41.4034 0.943637C39.4318 0.154997 37.8546 -0.239876 34.3057 0.154831C31.1918 0.501172 28.565 2.51803 27.6016 4.71155V0.548828H20.5039V9.21824C20.2387 6.45611 18.1325 0.943359 9.4636 0.943359H0V22.6308H9.85791C15.7358 22.6308 20.4454 18.7366 20.5039 14.8182V22.6306H27.6016V19.0296C29.1151 22.1922 33.3568 23.0245 35.4881 23.0245L37.4596 17.8984H36.2765C35.0147 17.8984 33.9108 16.584 33.9108 15.9269H27.6017L27.6016 15.9266V9.09216C28.1021 10.6487 29.0603 11.858 30.3626 12.3789C31.9398 13.0098 36.5402 14.4819 38.6432 15.1391ZM7.09766 6.07031V17.1112H10.1309C11.9508 17.1112 13.4067 15.021 13.4067 13.0136V10.2859C13.3258 8.88071 12.6788 6.07031 10.0095 6.07031H7.09766ZM39.4846 22.6303V19.4582L41.5406 14.6344V22.6303H39.4846ZM48.0112 12.7431H42.3467L43.0942 10.9894H47.9507C48.7167 10.9894 49.4222 10.9088 50.0672 10.7475C50.7324 10.5863 51.3069 10.3343 51.7907 9.99162C52.2745 9.62878 52.6575 9.17524 52.9397 8.63099C53.2219 8.08674 53.363 7.43162 53.363 6.66564C53.363 5.85934 53.2118 5.19414 52.9094 4.67005C52.6272 4.14595 52.2342 3.73272 51.7302 3.43036C51.2464 3.128 50.682 2.91635 50.037 2.7954C49.4121 2.67446 48.757 2.61398 48.0716 2.61398H46.6641L47.4115 0.860287H48.0112C50.4099 0.860287 52.2442 1.31383 53.5142 2.22092C54.7841 3.10784 55.419 4.55918 55.419 6.57493C55.419 7.94563 55.1368 9.03414 54.5724 9.84044C54.0282 10.6467 53.1312 11.3321 51.8814 11.8965C52.5264 12.1182 53.0304 12.4407 53.3932 12.8641C53.756 13.2874 54.0282 13.7711 54.2096 14.3154C54.391 14.8596 54.5019 15.4341 54.5422 16.0389C54.6027 16.6436 54.643 17.2281 54.6631 17.7926C54.6833 18.619 54.7135 19.3044 54.7538 19.8486C54.8143 20.3929 54.8748 20.8363 54.9353 21.179C55.0159 21.5217 55.1066 21.7938 55.2074 21.9954C55.3082 22.1768 55.4291 22.3179 55.5702 22.4187V22.6303H53.3025C53.0808 22.2675 52.9195 21.7636 52.8187 21.1185C52.7381 20.4735 52.6675 19.7982 52.6071 19.0927C52.5667 18.3872 52.5264 17.7018 52.4861 17.0366C52.466 16.3715 52.4156 15.8272 52.3349 15.4039C52.214 14.8193 52.0124 14.3557 51.7302 14.013C51.4682 13.6502 51.1456 13.3781 50.7627 13.1967C50.3797 13.0152 49.9463 12.8943 49.4625 12.8338C48.9989 12.7733 48.5151 12.7431 48.0112 12.7431ZM60.2566 0.860287H58.2005V14.4363C58.2005 17.2181 58.896 19.3749 60.2868 20.9069C61.6777 22.4389 63.7942 23.2048 66.6364 23.2048C69.4585 23.2048 71.5649 22.459 72.9558 20.9674C74.3668 19.4555 75.0723 17.2785 75.0723 14.4363V0.860287H73.0163V13.8316C73.0163 15.1217 72.9054 16.2404 72.6837 17.1878C72.4619 18.1352 72.0991 18.9314 71.5952 19.5765C71.0912 20.2014 70.426 20.6751 69.5996 20.9976C68.7933 21.3 67.8056 21.4511 66.6364 21.4511C64.3989 21.4511 62.7763 20.8565 61.7684 19.6672C60.7605 18.4779 60.2566 16.5327 60.2566 13.8316V0.860287ZM78.3886 22.6303V0.860287H86.3407C87.7518 0.860287 88.9108 1.02155 89.8179 1.34406C90.7451 1.66658 91.4708 2.11005 91.9949 2.67446C92.5392 3.23887 92.9121 3.89398 93.1136 4.63981C93.3354 5.36548 93.4462 6.13146 93.4462 6.93776C93.4462 8.14721 93.1943 9.145 92.6903 9.93114C92.2066 10.7173 91.5716 11.3422 90.7854 11.8058C89.9993 12.2493 89.1023 12.5617 88.0944 12.7431C87.1067 12.9245 86.1089 13.0152 85.101 13.0152H80.4447V22.6303H78.3886ZM85.1615 11.2615C86.1291 11.2615 86.9958 11.2011 87.7618 11.0801C88.5278 10.9592 89.1729 10.7374 89.6969 10.4149C90.2412 10.0722 90.6544 9.6187 90.9366 9.05429C91.239 8.46973 91.3902 7.71382 91.3902 6.78658C91.3902 5.41587 90.9366 4.37776 90.0295 3.67225C89.1426 2.96674 87.7215 2.61398 85.7662 2.61398H80.4447V11.2615H85.1615ZM109.33 0.860287H93.4864V2.61398H100.38V22.6303H102.436V2.61398H109.33V0.860287ZM111.467 22.6303V0.860287H113.523V22.6303H111.467ZM117.887 0.860287H115.74L123.299 22.6303H125.567L133.126 0.860287H130.979L124.448 20.2115L117.887 0.860287ZM134.617 22.6303V0.860287H149.1V2.61398H136.673V10.4754H147.891V12.2291H136.673V20.8766H149.403V22.6303H134.617Z" fill="#72707E"/>
</svg>
