<svg width="57" height="52" viewBox="0 0 57 52" fill="none" xmlns="http://www.w3.org/2000/svg">
<g clip-path="url(#clip0_2_45019)">
<path d="M36.6424 29.7407C36.7974 30.0233 36.944 30.2641 37.0654 30.5165C37.2876 30.9773 37.199 31.4266 36.8333 31.7809C36.2378 32.3583 35.5109 32.532 34.5619 32.3946C33.861 32.5929 33.3296 32.867 32.799 32.8639C32.0225 32.86 31.3399 33.1557 30.6184 33.3201C29.519 33.5709 28.6241 34.261 27.656 34.7883C26.9284 35.1842 26.1947 35.4853 25.3487 35.476C24.5631 35.4675 23.8446 35.2684 23.1873 34.8384C20.0172 32.7682 16.8433 30.7041 13.6794 28.6238C12.4265 27.8002 11.5912 26.2309 12.018 24.088C12.8922 19.699 13.7046 15.2968 14.5276 10.8969C14.788 9.50666 15.4935 8.47848 16.728 7.78993C21.0075 5.40164 25.277 2.99251 29.551 0.594962C31.0559 -0.249507 32.531 -0.19393 33.9786 0.754747C37.0066 2.73933 40.0324 4.72777 43.0719 6.69459C44.279 7.47577 45.0326 8.53946 45.0814 9.99451C45.1051 10.7008 44.9524 11.421 44.8203 12.1234C44.0247 16.3728 43.2154 20.6191 42.4023 24.8646C42.1687 26.0842 41.493 26.9958 40.4241 27.6041C39.3399 28.2216 38.2488 28.8276 37.1616 29.4389C36.9959 29.5323 36.8333 29.6296 36.6424 29.7407ZM29.4449 31.0167C29.2479 31.1572 29.0509 31.2969 28.8532 31.4374C29.1815 31.4968 29.5549 31.564 29.9824 31.6419C29.8748 31.7747 29.8137 31.8504 29.7465 31.933C31.0414 32.4301 32.5936 31.5578 32.6615 30.9279C32.605 30.8762 32.5287 30.8067 32.4501 30.735C32.263 30.9133 32.1141 31.0715 31.9484 31.2097C31.3598 31.7006 30.9124 31.662 30.452 31.0939C30.1099 31.1309 29.7511 31.4328 29.4411 31.0221C29.406 30.7496 29.3716 30.4771 29.3304 30.1568C28.9578 29.936 28.728 29.8974 28.9876 29.009C28.5776 28.5304 28.1668 28.0232 27.7224 27.5485C27.5636 27.3787 27.3376 27.2452 27.117 27.1656C26.5612 26.9649 26.1909 27.3231 26.3 28.0008C26.5176 28.0503 26.7574 28.1267 27.0017 28.1552C27.2407 28.183 27.485 28.1614 27.7278 28.1614C27.7354 28.2124 27.7423 28.2641 27.7499 28.315C27.5064 28.4015 27.2628 28.4887 26.9773 28.5906C27.301 28.6431 27.5804 28.6886 27.8599 28.7342C27.8668 28.7697 27.8736 28.8044 27.8805 28.8399C27.6461 28.9264 27.4125 29.0128 27.0674 29.1402C27.5171 29.2027 27.8522 29.249 28.1882 29.2953C28.1966 29.3393 28.205 29.3833 28.2134 29.4273C27.9736 29.513 27.7339 29.5995 27.4713 29.6936C27.8133 29.7431 28.137 29.7894 28.46 29.8357C28.4661 29.8797 28.4722 29.9229 28.4783 29.9669C28.2531 30.0426 28.0279 30.119 27.8026 30.1946C27.8064 30.2139 27.8103 30.2324 27.8141 30.2517C28.1996 30.295 28.5852 30.3382 29.0189 30.3868C28.8646 30.8183 28.4203 30.6037 28.192 30.8484C28.6234 30.904 29.0349 30.9588 29.4449 31.0167ZM36.0622 16.1783C37.9709 17.2381 39.6361 18.5442 40.7913 20.4863C40.3729 20.8043 39.9255 20.819 39.4964 20.89C38.2595 21.0946 37.0188 21.2829 35.7866 21.5137C35.2849 21.6079 34.8284 22.2463 34.7795 22.7665C34.7505 23.0745 34.8299 23.3184 35.0727 23.5145C35.2009 23.6179 35.3223 23.7368 35.4254 23.8657C35.8263 24.3652 35.798 24.8121 35.2895 25.1942C34.9994 25.4119 34.6558 25.5709 34.316 25.7052C33.9633 25.8441 33.6144 25.9561 33.5197 26.5003C33.2242 26.2494 32.9906 26.0518 32.7654 25.8603C32.0813 26.227 31.3995 26.5929 30.7032 26.9657C30.7642 26.9835 30.8116 27.0005 30.8612 27.0097C30.9238 27.0205 30.9872 27.0298 31.0506 27.0306C31.8041 27.0445 32.2592 27.4713 32.5501 28.1305C32.586 28.2116 32.6272 28.2988 32.689 28.359C32.8203 28.4872 32.9662 28.6006 33.1372 28.7457C33.267 28.3413 33.38 27.9816 33.8137 27.9484C34.2114 27.9175 34.3069 28.2293 34.358 28.4455C34.8841 28.5968 35.3491 28.7303 35.9156 28.8932C37.1593 28.1938 38.5153 27.4366 39.8667 26.6709C40.705 26.1961 41.1998 25.4744 41.3807 24.5164C42.2106 20.1212 43.0146 15.7213 43.8972 11.3369C44.3065 9.30596 43.491 8.23996 42.2618 7.45647C39.2612 5.54445 36.2973 3.57222 33.3182 1.62623C32.2706 0.942321 31.1987 0.918392 30.1114 1.52897C28.8562 2.23373 27.6026 2.94234 26.3474 3.64632C23.2903 5.35996 20.234 7.07206 17.1793 8.78801C16.3295 9.26505 15.8042 9.98139 15.6194 10.9548C14.7635 15.4751 13.9038 19.9954 13.0434 24.5149C12.7899 25.8472 13.1602 26.9603 14.2856 27.7083C17.4411 29.8048 20.6135 31.8766 23.8034 33.9199C24.2325 34.1947 24.7944 34.2965 25.3098 34.3807C25.5762 34.4239 25.9962 34.3483 26.142 34.163C26.7986 33.3255 27.1567 32.3413 27.2949 31.3139C27.0811 30.9248 26.8643 30.5891 26.7039 30.227C26.4207 29.5856 26.1023 28.9464 25.9252 28.2726C25.6931 27.3872 26.0962 26.8561 26.9819 26.6909C27.0933 26.6701 27.201 26.633 27.3163 26.6014C27.2972 26.4979 27.2796 26.403 27.2712 26.3559C27.4254 26.1761 27.5491 26.0309 27.7186 25.8333C27.4949 25.733 27.3552 25.6712 27.201 25.6025C27.0903 25.902 27.2506 26.2903 26.8169 26.4038C26.7085 26.1313 26.6383 25.8549 26.4963 25.6234C26.3466 25.3787 26.1283 25.1764 25.9244 24.9379C25.1021 25.4095 24.3806 25.2729 23.7072 24.7063C23.0849 24.183 22.6902 23.5207 22.426 22.714C22.6284 22.714 22.7742 22.714 22.9193 22.714C22.8803 22.5164 22.8422 22.3235 22.7963 22.0872C23.1056 22.1729 23.317 22.2316 23.6049 22.3119C23.3033 21.8866 23.0788 21.5693 22.7857 21.1556C21.6664 20.643 20.4371 20.0803 19.1453 19.489C19.3927 18.8993 19.5568 18.3674 19.8301 17.9004C20.0508 17.5229 20.0554 17.2288 19.8981 16.8298C19.598 16.0687 19.3591 15.2821 19.127 14.4963C19.0407 14.2045 18.9765 13.8695 19.2224 13.6665C20.0248 14.4423 20.8028 15.1933 21.5198 15.8865C22.4749 15.4913 23.3797 15.1269 24.2737 14.7379C24.4081 14.68 24.5532 14.5264 24.5921 14.3874C24.7593 13.8 24.9937 13.2026 25.0036 12.6059C25.0135 11.942 25.0128 11.2157 24.4119 10.6954C24.2951 10.5943 24.2974 10.3203 24.2974 10.1265C24.2974 9.99837 24.3898 9.86946 24.4142 9.80925C24.2707 9.50589 24.1035 9.27818 24.0561 9.02808C23.9538 8.47925 23.924 7.9173 23.8431 7.36384C23.7492 6.71775 23.8065 6.11566 24.3462 5.68262C24.7624 5.34915 25.1907 5.01646 25.6572 4.76636C27.2705 3.9026 29.0196 3.68337 30.8223 3.68878C33.3166 3.69572 35.4758 4.54714 37.3006 6.24534C37.8259 6.73396 38.2603 7.32216 38.7337 7.86095C37.8579 9.15313 37.2632 10.4692 36.8127 11.854C36.3622 13.2388 36.1042 14.6584 36.0622 16.1783ZM35.785 5.61701C33.5083 3.99445 30.9536 3.96358 28.3271 4.28083C28.6883 4.40125 29.0914 4.16119 29.4205 4.48925C29.1563 4.58342 28.8883 4.61738 28.6249 4.67219C28.3646 4.727 28.1034 4.78952 27.8515 4.87366C27.6049 4.95625 27.3689 5.0705 27.1284 5.17007C28.0195 5.04039 29.1113 5.13534 29.3395 5.44101C28.7318 5.5568 28.1355 5.67104 27.5392 5.78451C27.5446 5.79841 27.5491 5.81307 27.5545 5.82697C28.1088 5.87251 28.6631 5.91805 29.2174 5.96282C29.2227 6.01068 29.2273 6.05854 29.2327 6.1064C28.557 6.3071 27.8813 6.50702 27.2048 6.70772C27.8965 6.62203 29.0387 6.82891 29.1723 7.09907C28.5608 7.23107 27.9484 7.36384 27.3361 7.49584C27.3399 7.52054 27.3438 7.54524 27.3476 7.56994C27.9194 7.65176 28.4905 7.73358 29.0616 7.81541C29.0647 7.87176 29.0677 7.92888 29.0708 7.98523C28.715 8.07091 28.36 8.15582 27.9859 8.24536C28.3493 8.52016 28.8425 8.22375 29.1983 8.64675C28.7799 8.71623 28.4371 8.77335 28.1034 8.82815C28.4012 8.86984 28.6974 8.91152 28.9944 8.9532C28.9967 9.00646 28.999 9.05973 29.0013 9.11222C28.6906 9.19327 28.3806 9.27509 28.0698 9.35614C28.0729 9.37775 28.076 9.39937 28.0798 9.42021C28.35 9.4781 28.6211 9.53599 28.8914 9.59389C28.8883 9.64252 28.8853 9.69115 28.8814 9.73978C28.6715 9.81388 28.4615 9.88799 28.1477 9.99914C28.4508 10.0956 28.6379 10.1551 28.8257 10.2153C28.828 10.2624 28.8303 10.3102 28.8318 10.3573C28.4829 10.4492 28.134 10.541 27.6942 10.656C28.1302 10.7726 28.4722 10.8637 28.8135 10.9548C28.8081 11.0073 28.8028 11.0597 28.7982 11.1122C28.5081 11.1809 28.218 11.2489 27.9011 11.3237C28.1882 11.3878 28.4401 11.4442 28.7448 11.5113C28.6608 11.6217 28.6219 11.6734 28.615 11.6834C29.1342 11.6834 29.6892 11.6834 30.2244 11.6834C30.4802 11.1501 30.6627 11.0567 31.2323 11.086C31.9919 11.1246 32.6447 11.4727 33.3174 11.7768C33.7717 11.9829 34.2443 12.1474 34.7092 12.3311C34.7192 12.3033 34.7291 12.2755 34.739 12.2477C34.5268 12.1134 34.3145 11.9799 34.1023 11.8455C34.1229 11.8008 34.1427 11.7568 34.1633 11.712C34.5184 11.7367 34.8726 11.7622 35.2277 11.7869C35.2338 11.763 35.2399 11.739 35.246 11.7151C34.8795 11.4959 34.5138 11.2774 34.1473 11.0582C34.1618 11.0312 34.1756 11.0042 34.1901 10.9771C34.4955 10.9771 34.8009 10.9771 35.23 10.9771C34.8093 10.7518 34.4855 10.5773 34.1618 10.4036C34.1779 10.3511 34.1939 10.2986 34.2099 10.2469C34.6276 10.2685 35.046 10.2909 35.4636 10.3125C35.4697 10.2817 35.4766 10.2508 35.4827 10.2199C35.007 9.97212 34.5314 9.72357 34.0557 9.47579C34.0748 9.42638 34.0939 9.37621 34.1122 9.32681C34.5901 9.39705 35.0681 9.46729 35.6193 9.54757C35.0628 9.22106 34.5573 8.92387 34.0519 8.62746C34.071 8.58346 34.0901 8.53946 34.1091 8.49546C34.6627 8.57651 35.2155 8.65679 35.769 8.73784C35.7797 8.71931 35.7896 8.70002 35.8003 8.68149C35.2223 8.3596 34.6436 8.03695 34.0656 7.71506C34.0763 7.67724 34.087 7.63941 34.0969 7.60082C34.7215 7.59927 35.3208 7.78916 35.9202 7.97828C35.9316 7.94663 35.9438 7.91421 35.9553 7.88256C35.3254 7.51282 34.6955 7.1423 34.0656 6.77256C34.0809 6.72933 34.0962 6.6861 34.1114 6.64365C34.5871 6.72084 35.0635 6.79726 35.5964 6.88371C35.062 6.60968 34.5741 6.35958 34.0862 6.10949C34.1091 6.04928 34.1328 5.98907 34.1557 5.92886C34.823 6.07398 35.4911 6.2191 36.2767 6.38969C35.4262 5.96282 34.6718 5.58382 33.9183 5.20481C33.9335 5.17007 33.948 5.13611 33.9633 5.10137C34.61 5.10292 35.2032 5.32137 35.785 5.61701ZM27.2315 21.0212C27.1452 21.4203 27.1361 21.7684 26.9918 22.044C26.8391 22.335 26.5573 22.5573 26.2924 22.8538C26.4634 23.0591 26.5894 23.249 26.752 23.3987C27.1659 23.7785 27.5804 24.1459 27.0964 24.7673C28.0019 25.503 28.9127 26.1514 29.9381 26.6176C30.0649 26.6755 30.2519 26.6832 30.381 26.6338C31.6094 26.1591 32.7883 25.5917 33.7205 24.6137C33.9702 24.352 34.0633 24.0433 34.0984 23.6774C34.1359 23.293 34.2214 22.8885 34.3932 22.5481C34.6512 22.0355 35.0154 21.5793 35.3094 21.0845C35.5873 20.616 35.8331 20.1274 36.0935 19.6457C35.8606 19.3701 35.6736 19.1486 35.5483 18.9996C34.9101 19.2227 34.3428 19.4211 33.7755 19.6202C33.7701 19.6766 33.764 19.7329 33.7587 19.7893C33.8915 19.8433 34.0252 19.8981 34.1595 19.9491C34.1626 19.9498 34.1817 19.9081 34.1939 19.8858C34.1152 19.8603 34.0374 19.8356 33.9519 19.8078C34.216 19.4473 34.5344 19.4597 34.8551 19.8217C34.5588 20.457 33.5579 20.6067 33.1212 20.0818C32.7845 19.6766 32.8585 19.1401 33.2945 18.8468C33.3685 18.7974 33.4502 18.7603 33.5243 18.7109C34.0252 18.3767 34.0038 17.7051 33.464 17.4481C31.937 16.7209 30.3359 16.3983 28.6493 16.636C27.8156 16.7534 27.1926 17.3755 27.0597 18.1852C26.9254 19.0027 27.1078 19.3254 27.9454 19.7569C28.066 20.3759 27.853 20.7295 27.2315 21.0212ZM19.4278 14.2547C19.4278 14.3103 19.4148 14.372 19.4293 14.426C19.8836 16.0756 20.4157 17.6928 21.4572 19.0791C22.3443 20.2594 23.4094 21.1949 24.9166 21.5523C25.2342 21.0043 25.2212 20.4037 25.2227 19.8047C25.2235 19.2628 24.9807 18.8923 24.5142 18.626C23.1666 17.8564 21.9725 16.8923 20.9311 15.7275C20.4684 15.2095 19.9393 14.7518 19.4278 14.2547ZM32.8593 29.3988C33.6663 29.5539 34.1397 29.9862 34.429 30.6593C34.5733 30.9951 34.8849 31.0754 35.2681 30.8994C35.6903 30.7056 36.1019 30.4903 36.5836 30.2517C36.4233 29.5493 35.7782 29.8318 35.275 29.8102C35.2758 29.7639 35.2765 29.7176 35.2773 29.672C35.5506 29.625 35.8232 29.5779 36.0965 29.5308C36.0981 29.486 36.0996 29.4412 36.1011 29.3965C35.6216 29.3501 35.1414 29.3031 34.6619 29.2567C34.6589 29.2274 34.6558 29.1989 34.652 29.1695C34.8452 29.1193 35.0383 29.0684 35.2315 29.0182C35.0001 28.9202 34.7581 28.8677 34.5199 28.8801C34.2664 28.8939 34.016 28.9696 33.7358 29.0236C33.8442 28.7797 33.9389 28.5674 34.0389 28.342C33.6549 28.1768 33.564 28.4084 33.5388 28.6408C33.506 28.9349 33.3724 29.1109 33.1059 29.2081C33.0433 29.2305 32.9937 29.293 32.8593 29.3988ZM32.8707 32.5906C34.0939 32.4579 34.3832 32.1445 34.3 31.134C34.2405 30.4108 33.7358 29.8612 32.9914 29.7569C32.8585 29.936 32.7112 30.1344 32.5455 30.3575C33.2571 31.0028 33.5724 31.7052 32.8707 32.5906ZM30.6176 28.9565C30.2015 28.1923 28.3333 26.9765 27.7209 27.0282C28.2279 27.6002 28.7585 28.1992 29.283 28.7905C29.8969 28.6361 29.8969 28.6361 30.6176 28.9565ZM32.037 29.4466C31.556 29.6782 30.8528 30.738 30.8933 31.1703C31.3743 31.3355 31.9813 30.9897 32.2729 30.3837C32.4829 29.9461 32.4195 29.696 32.037 29.4466ZM29.6885 30.8693C29.7411 30.8785 29.8015 30.8971 29.8618 30.8978C30.4466 30.9055 31.3269 30.0557 31.3132 29.476C31.3101 29.3501 31.2109 29.2266 31.1544 29.1C30.1916 29.591 29.5762 30.3436 29.6885 30.8693ZM26.8536 33.9824C27.4018 33.6736 27.9515 33.3641 28.5203 33.0437C28.2103 32.62 27.9378 32.2456 27.6812 31.8951C27.4048 32.5922 27.1338 33.2753 26.8536 33.9824ZM30.9253 28.6616C31.2254 28.8708 31.4583 29.0337 31.724 29.2189C31.8079 29.1803 31.9278 29.1248 32.1217 29.0352C31.8675 28.8376 31.6606 28.677 31.4529 28.5157C31.4407 28.4601 31.4277 28.4046 31.4155 28.3482C31.5987 28.2594 31.782 28.1707 31.966 28.0819C31.9416 28.034 31.9179 27.987 31.8935 27.9391C31.5468 27.7801 31.2002 27.6218 30.8398 27.4567C30.8727 27.9129 30.9009 28.3181 30.9253 28.6616ZM26.4031 9.05201C26.8284 8.95629 27.1659 8.88064 27.5186 8.80191C27.5186 8.629 27.5186 8.50935 27.5186 8.33645C27.3102 8.30866 27.1216 8.28241 26.9368 8.25771C26.8582 8.09715 26.7826 7.94123 26.7131 7.7992C26.4283 7.73899 26.2474 7.82544 26.2565 8.0848C26.2665 8.38276 26.3428 8.67995 26.4031 9.05201ZM27.0949 10.9463C27.1735 10.7201 27.2483 10.5032 27.3338 10.2554C27.4529 10.1913 27.6064 10.1095 27.7415 10.037C27.8232 9.72666 27.7087 9.55452 27.4415 9.56996C27.1483 9.58771 26.8597 9.67648 26.5833 9.73129C26.5505 10.4484 26.6612 10.7425 27.0949 10.9463ZM25.6915 9.0713C25.6488 8.81889 25.6236 8.55027 25.5503 8.29631C25.5167 8.17898 25.4045 8.03695 25.2983 8.00298C25.2044 7.97288 25.0685 8.07786 24.9693 8.11645C24.9693 8.32101 24.9693 8.45764 24.9693 8.55335C24.7494 8.71082 24.5616 8.84591 24.3669 8.98562C24.6982 9.38161 25.0059 9.38779 25.6915 9.0713ZM25.8343 9.90419C25.0288 9.91423 24.628 10.0794 24.6646 10.4075C24.7219 10.4615 24.8021 10.5372 24.8731 10.6051C25.0113 10.5927 25.1227 10.5835 25.2686 10.5704C25.3197 10.6861 25.3464 10.822 25.4266 10.9069C25.5114 10.9972 25.661 11.103 25.7564 11.0821C25.8503 11.0613 25.9809 10.8868 25.9756 10.7865C25.9588 10.487 25.8839 10.1913 25.8343 9.90419ZM30.3726 29.2614C30.1779 29.0105 29.9435 28.8592 29.6259 29.0167C29.3411 29.1579 29.1044 29.3478 29.2166 29.7253C29.6969 29.9808 29.8801 29.9067 30.3726 29.2614Z" fill="#72707E"/>
<path d="M22.3746 40.41C22.4616 40.0495 22.538 39.7516 22.6059 39.4513C22.6998 39.0375 22.9434 38.7504 23.3458 38.65C24.0604 38.4733 24.7804 38.3127 25.5042 38.1784C25.718 38.139 25.9524 38.2101 26.1929 38.2324C26.9319 37.4821 29.3583 37.0684 30.0669 37.5755C31.3786 36.9758 32.775 36.7017 34.1592 36.3876C34.4937 36.3112 34.8349 36.2641 35.1693 36.1869C35.6099 36.0842 36.0283 36.0804 36.3955 36.3984C37.4698 36.1452 38.5005 35.6882 39.6465 35.8025C40.4291 35.1903 41.4117 35.0931 42.3638 34.9032C42.8044 34.8152 43.1976 34.8847 43.519 35.2251C43.9656 35.0198 44.3856 34.7534 44.8437 34.6338C45.6499 34.4231 46.473 34.2208 47.2999 34.1645C48.3688 34.0919 49.246 34.5674 49.908 35.5477C49.9881 35.2289 50.0591 34.9804 50.1118 34.728C50.2073 34.271 50.4592 33.9514 50.9097 33.8372C52.5352 33.4258 54.1584 33.0035 55.7938 32.6346C56.5459 32.4647 57.1582 33.1486 56.9627 33.9105C56.7558 34.7172 56.497 35.5122 56.2282 36.3004C56.1588 36.5049 55.9694 36.6686 55.9007 36.8554C55.7327 37.6412 55.5655 38.4262 55.3975 39.212C55.4159 39.2143 55.4334 39.2166 55.4518 39.2189C55.4052 39.5524 55.3983 39.8975 55.3029 40.2155C55.1265 40.8037 54.8967 41.3764 54.6921 41.9561C54.5371 42.3938 54.2363 42.6462 53.7858 42.7435C52.4695 43.0275 51.1571 43.3332 49.8385 43.608C49.0941 43.7632 48.5963 43.2869 48.5634 42.3853C48.4734 42.4587 48.4001 42.5127 48.3344 42.5737C46.7158 44.082 44.791 44.7312 42.6097 44.6547C42.4585 44.6493 42.3043 44.6285 42.16 44.586C42.0294 44.5474 41.9111 44.4687 41.7912 44.41C41.227 44.8917 38.712 45.5224 38.1959 45.3765C37.7805 45.5123 37.4652 45.6304 37.1415 45.7169C36.749 45.8219 36.3467 45.8913 35.9527 45.9925C35.1541 46.1978 34.8891 46.1098 34.3974 45.4236C34.231 45.9685 33.8294 46.1823 33.3263 46.2873C32.0833 46.5482 30.8456 46.84 29.6019 47.0947C28.9193 47.2352 28.6109 47.033 28.2314 46.2781C27.1472 47.5957 25.6347 47.9346 24.0719 48.0766C23.0717 48.1669 21.9982 47.886 21.5164 46.4348C21.4676 46.4811 21.4195 46.5158 21.3843 46.5606C19.7161 48.691 17.4821 49.507 14.8656 49.4136C14.1769 49.3889 13.7402 48.8215 13.8852 48.1422C14.4166 45.6567 14.9557 43.1734 15.526 40.6972C15.5901 40.4193 15.8207 40.1051 16.0627 39.9569C17.1805 39.2745 18.4006 38.9079 19.7207 38.9171C20.7888 38.9248 21.6432 39.3332 22.2402 40.2471C22.2669 40.2888 22.3028 40.3243 22.3746 40.41ZM37.2064 44.5837C37.4637 43.3417 37.708 42.1607 37.9523 40.9797C38.0035 40.982 38.0539 40.9835 38.105 40.9858C38.2867 42.0827 38.4677 43.1796 38.654 44.3074C39.2945 44.1437 39.8779 43.9731 40.4711 43.8527C40.7559 43.7948 40.8635 43.6705 40.9277 43.3888C41.4644 41.0244 42.0195 38.6639 42.5677 36.3019C42.5913 36.1992 42.5982 36.0927 42.6226 35.9213C41.9095 36.1012 41.2613 36.2641 40.5704 36.4385C40.2734 37.8488 39.9832 39.2251 39.6939 40.6014C39.6587 40.6022 39.6244 40.6038 39.5893 40.6045C39.4182 39.3664 39.2472 38.129 39.0685 36.8384C38.2913 37.0352 37.5958 37.2112 36.8391 37.4034C36.3665 39.9306 35.9015 42.417 35.4221 44.9813C36.0924 44.8323 36.6444 44.7088 37.2064 44.5837ZM42.5494 43.6474C43.1999 43.5733 43.7511 43.5432 44.2901 43.4444C47.3205 42.8909 49.3666 40.444 49.3033 37.4351C49.2781 36.227 48.6635 35.1664 47.125 35.2467C46.2065 35.2946 45.3552 35.5447 44.5352 35.946C44.2863 36.068 44.1458 36.2355 44.0855 36.5157C43.6412 38.5698 43.1838 40.6207 42.7334 42.674C42.673 42.9442 42.6295 43.2182 42.5494 43.6474ZM14.8999 48.3931C15.6718 48.3043 16.3322 48.2881 16.9644 48.1453C20.2589 47.3996 21.8562 44.6123 21.6722 41.9716C21.6012 40.9519 20.9667 40.1275 20.1215 40.0457C18.8503 39.9222 17.6814 40.2518 16.5147 40.9503C15.994 43.3487 15.4626 45.7979 14.8999 48.3931ZM23.7115 39.6597C23.6641 39.7732 23.6428 39.8071 23.6351 39.8434C23.2572 41.7014 22.8373 43.5524 22.525 45.4212C22.3914 46.2217 22.722 46.8385 23.4175 46.928C23.8123 46.979 24.2261 46.9658 24.6223 46.9126C26.4379 46.6694 27.739 45.8118 28.1291 43.8689C28.475 42.1468 28.8506 40.4316 29.2087 38.7118C29.2255 38.6323 29.1957 38.5435 29.1797 38.3683C28.4849 38.5157 27.8275 38.6554 27.1831 38.7921C27.1373 39.0213 27.1075 39.1711 27.0778 39.3208C26.7525 40.928 26.4288 42.5358 26.1012 44.1422C25.9913 44.681 25.6477 44.9758 25.1263 45.0978C24.5803 45.2252 24.3299 45.0044 24.4498 44.4525C24.7979 42.8485 25.1591 41.2475 25.5126 39.645C25.5355 39.5408 25.5408 39.4328 25.5653 39.2398C24.8941 39.3934 24.2956 39.5285 23.7115 39.6597ZM30.8143 38.4208C30.3211 40.9364 29.8317 43.4305 29.34 45.9384C29.4736 45.9685 29.5255 45.9971 29.5683 45.9878C30.7594 45.7315 31.9497 45.4753 33.1377 45.2066C33.2346 45.185 33.3545 45.0901 33.3904 44.9998C33.6103 44.444 33.8096 43.879 34.0348 43.2653C33.1522 43.483 32.339 43.6837 31.429 43.9075C31.5442 43.4289 31.629 43.0739 31.7267 42.6694C32.507 42.4942 33.282 42.3197 34.105 42.1352C34.2066 41.6914 34.3096 41.2421 34.431 40.7134C33.6019 40.9032 32.8689 41.0715 32.0573 41.2576C32.1703 40.7797 32.265 40.3776 32.365 39.953C33.2507 39.7361 34.0966 39.5285 34.9533 39.3185C35.1564 38.6369 35.3526 37.98 35.574 37.2367C33.931 37.52 32.3971 37.8735 30.8143 38.4208ZM51.138 34.8384C50.6272 37.4459 50.137 39.9499 49.627 42.5551C51.0555 42.2417 52.3512 41.9577 53.656 41.6713C53.8835 41.0306 54.0935 40.437 54.3302 39.7716C53.4277 39.9909 52.6276 40.1854 51.7343 40.4023C51.8572 39.9044 51.9473 39.5377 52.0404 39.161C52.8421 38.982 53.6071 38.8114 54.4119 38.6323C54.5111 38.1838 54.6089 37.7469 54.7264 37.2166C53.8866 37.4065 53.1567 37.5717 52.3527 37.7539C52.4764 37.2668 52.5795 36.8638 52.6856 36.4455C53.5621 36.2332 54.3981 36.0302 55.2563 35.8225C55.4602 35.144 55.6632 34.4663 55.9053 33.6604C54.2615 34.0657 52.7276 34.4447 51.138 34.8384Z" fill="#72707E"/>
<path d="M8.0778 41.139C8.95277 40.9067 9.84225 40.6442 10.7439 40.4381C11.7235 40.2142 12.3282 40.9213 12.0297 41.8901C11.6029 43.2741 11.1852 44.6612 10.7363 46.1371C11.0394 46.0499 11.2624 45.9874 11.4845 45.9202C11.8892 45.7982 12.2687 45.826 12.5847 46.1371C12.9077 46.4544 12.9917 46.8395 12.8413 47.2687C12.6038 47.9465 12.3649 48.6234 12.1182 49.2973C11.9808 49.674 11.7128 49.9087 11.3204 49.9982C9.95754 50.3108 8.59698 50.6327 7.2326 50.9376C6.75694 51.0441 6.40268 50.8025 6.0988 50.4112C5.88808 50.9037 5.49335 51.0735 5.04212 51.17C3.81135 51.4324 2.58594 51.7211 1.35212 51.9658C0.43668 52.1472 -0.144344 51.5845 0.0312611 50.6736C0.517611 48.1526 1.03526 45.6377 1.53612 43.1197C1.62774 42.6604 1.87359 42.3401 2.32482 42.2251C3.93733 41.816 5.54832 41.403 7.17 41.0317C7.45402 40.9669 7.78003 41.0989 8.0778 41.139ZM5.76286 48.1449C4.84895 48.3702 4.05109 48.5671 3.15398 48.7878C3.27538 48.2985 3.36318 47.9426 3.46244 47.5451C4.24884 47.3683 5.02456 47.1939 5.83158 47.0125C5.93694 46.5632 6.04154 46.1201 6.16523 45.5921C5.34599 45.7789 4.60311 45.9472 3.78692 46.1333C3.89687 45.6624 3.98925 45.2695 4.0908 44.8357C4.965 44.6203 5.82242 44.4096 6.68365 44.1981C6.89132 43.5041 7.08983 42.8387 7.30972 42.1023C5.6575 42.4211 4.10836 42.7322 2.54394 43.3112C2.05454 45.8036 1.5659 48.2977 1.07649 50.7917C1.11543 50.8272 1.15437 50.862 1.19331 50.8975C2.47446 50.6196 3.75486 50.3425 5.07037 50.0576C5.2956 49.437 5.51167 48.8411 5.76286 48.1449ZM8.78022 42.0861C8.42519 42.8943 7.1135 49.373 7.20054 49.8554C8.50841 49.5505 9.81553 49.2456 11.1249 48.9399C11.3586 48.2738 11.5723 47.664 11.8067 46.9955C10.9356 47.2325 10.1499 47.4463 9.3643 47.6601C9.32689 47.6238 9.28871 47.5875 9.2513 47.5505C9.81858 45.5551 10.3859 43.5589 10.9837 41.4547C10.1721 41.6871 9.44828 41.8947 8.78022 42.0861Z" fill="#72707E"/>
<path d="M28.3466 19.9324C28.2664 19.8784 28.1366 19.8398 28.1137 19.7673C27.9328 19.1937 27.877 18.6086 28.0595 18.0243C28.3069 17.2315 28.978 16.9313 29.9133 17.1798C30.4004 17.3095 30.7768 17.6013 31.083 17.9957C31.2693 18.2366 31.4579 18.4759 31.6694 18.7476C31.9267 18.6673 32.1618 18.5932 32.3954 18.5206C32.5084 19.105 31.958 19.6237 31.3823 19.4492C31.17 19.3852 30.9601 19.264 30.786 19.1227C29.7927 18.3138 29.0864 18.4573 28.5039 19.6036C28.481 19.6492 28.4558 19.6939 28.4313 19.7387C28.4039 19.8035 28.3756 19.8684 28.3466 19.9324Z" fill="#72707E"/>
<path d="M32.9797 21.7725C33.6692 21.8235 33.7585 22.0496 33.3905 22.871C33.4691 22.854 33.5325 22.8401 33.5989 22.8254C33.5669 23.1735 33.3699 23.3434 32.7568 23.5603C32.9263 24.4835 32.0467 24.8903 31.2008 24.5174C30.7793 24.3314 30.4136 24.0165 30.0349 23.7687C29.9822 23.2963 30.2113 23.0176 30.5258 22.7999C30.6442 22.7181 30.8007 22.6926 30.9564 22.6903C30.3899 23.2036 30.3899 23.2036 30.3434 23.5742C31.3443 24.4341 31.9345 24.5506 32.4628 23.9678C32.4957 23.3194 31.8391 23.189 31.4718 22.7544C31.6352 22.7544 31.723 22.7544 31.8116 22.7544C31.7795 22.6988 31.7482 22.6448 31.7276 22.6093C32.3514 21.9987 32.8125 21.297 33.0484 20.4441C33.0889 20.4533 33.1294 20.4626 33.1706 20.4711C33.1813 20.6108 33.1927 20.7505 33.2042 20.8964C33.8371 20.7081 34.48 20.5166 35.1236 20.3252C35.2962 21.0408 34.661 22.0635 34.0395 22.1508C34.1089 21.9022 34.1746 21.666 34.2372 21.4406C33.8975 21.2245 33.4157 21.3642 32.9797 21.7725Z" fill="#72707E"/>
<path d="M30.0345 20.9569C30.0299 21.3668 29.8291 21.7474 29.4207 22.006C29.1359 22.1866 28.8412 22.1025 28.6778 21.8084C28.4006 21.312 28.7129 20.4058 29.2359 20.1881C29.6383 20.0206 30.0292 20.3603 30.0345 20.9569Z" fill="#72707E"/>
<path d="M28.4201 22.5977C28.4017 22.8107 28.3834 23.0245 28.3651 23.2376C28.3254 23.2615 28.2857 23.2862 28.246 23.3101C28.8064 23.8034 29.3439 24.3275 29.9349 24.7798C30.5296 25.2345 31.2687 25.3001 32.0123 25.297C32.0078 25.348 32.0032 25.3997 31.9986 25.4506C31.8871 25.473 31.7764 25.5108 31.6642 25.5155C30.7518 25.5572 29.9761 25.209 29.2889 24.6355C29.0049 24.3985 28.7438 24.1345 28.4766 23.8775C28.2414 23.6521 28.0513 23.3881 27.6612 23.3796C27.5161 23.3765 27.3756 23.1557 27.2588 23.006C27.9604 23.1125 27.9604 23.1125 28.4201 22.5977Z" fill="#72707E"/>
<path d="M28.3466 19.9321C28.3756 19.8673 28.4039 19.8032 28.4329 19.7383C28.5749 19.6141 28.7154 19.4882 28.8597 19.3663C29.63 18.7171 30.4279 18.9031 30.815 19.8348C30.912 20.0687 30.9478 20.3289 31.0112 20.5774C30.9685 20.5944 30.9265 20.6106 30.8837 20.6276C30.831 20.528 30.773 20.4307 30.7264 20.3289C30.6417 20.1436 30.5844 19.9429 30.4783 19.7715C30.1866 19.3007 29.7362 19.1671 29.272 19.4635C28.991 19.6434 28.7742 19.9259 28.5283 20.1629C28.4382 20.2501 28.3489 20.3389 28.2588 20.4269C28.2305 20.4068 28.2031 20.386 28.1748 20.3659C28.2321 20.2223 28.2893 20.0772 28.3466 19.9321Z" fill="#72707E"/>
<path d="M28.3652 21.9202C29.0829 22.7029 29.7953 22.8704 30.5 21.9102C30.574 22.2382 30.1763 22.6651 29.7563 22.7824C29.2081 22.9345 28.5149 22.5424 28.3652 21.9202Z" fill="#72707E"/>
<path d="M21.2649 18.0552C21.8123 18.7437 22.3139 19.3752 22.8155 20.0066C22.9522 19.521 22.7193 19.2277 22.4811 18.9259C21.8077 18.076 21.1442 17.2177 20.4815 16.3593C20.409 16.2651 20.3639 16.1486 20.2822 15.998C20.3769 16.0173 20.4235 16.0127 20.4387 16.0328C21.2656 17.0679 22.3269 17.8236 23.4149 18.5376C24.0394 18.9475 24.4135 19.5071 24.6029 20.2158C24.6983 20.5732 24.7976 20.929 24.8945 21.2849C23.8921 21.5774 21.4321 19.4122 21.2649 18.0552Z" fill="#72707E"/>
<path d="M33.8162 31.3859C34.0987 31.5527 34.13 31.7688 34.014 32.0197C33.9223 32.2173 33.7941 32.3632 33.5559 32.2628C33.3306 31.8282 33.3932 31.6183 33.8162 31.3859Z" fill="#72707E"/>
<path d="M44.7646 41.5879C44.8967 41.012 45.0021 40.5551 45.1067 40.0973C45.2831 39.3239 45.4541 38.5489 45.635 37.7762C45.7343 37.3524 45.958 37.198 46.4382 37.1973C46.8353 37.1965 47.0636 37.3794 47.1636 37.7886C47.3346 38.4879 47.1407 39.1348 46.8658 39.7631C46.5535 40.4763 46.0733 41.0437 45.3716 41.3934C45.2182 41.469 45.0433 41.4999 44.7646 41.5879Z" fill="#72707E"/>
<path d="M17.1807 46.2093C17.4861 44.8646 17.7915 43.5192 18.0892 42.2092C18.4824 41.9715 18.8413 41.8379 19.2146 42.0548C19.5666 42.2594 19.6109 42.6245 19.5987 42.9981C19.5559 44.2888 19.0421 45.3262 17.964 46.0433C17.7571 46.1807 17.4983 46.2394 17.2639 46.3351C17.2364 46.2926 17.2089 46.2509 17.1807 46.2093Z" fill="#72707E"/>
</g>
<defs>
<clipPath id="clip0_2_45019">
<rect width="57" height="52" fill="white"/>
</clipPath>
</defs>
</svg>
