<svg width="69" height="52" viewBox="0 0 69 52" fill="none" xmlns="http://www.w3.org/2000/svg">
<g clip-path="url(#clip0_2_44959)">
<path fill-rule="evenodd" clip-rule="evenodd" d="M26.8605 22.3411L34.5155 34.8644L48.3614 12.2445C49.6499 10.1396 52.3482 9.39189 54.5363 10.5334L52.9452 13.1096C53.8715 12.9086 54.8327 12.8027 55.8185 12.8027C63.3278 12.8027 69.4152 18.9436 69.4152 26.5187C69.4152 26.6385 69.4137 26.758 69.4107 26.8771H69.415V35.4645C69.415 37.9676 67.3859 39.9967 64.8828 39.9967V36.7423C62.4773 38.9141 59.3008 40.2347 55.8185 40.2347C49.4401 40.2347 44.0875 35.8041 42.62 29.8274L35.9568 40.6161C35.6465 41.1184 35.0983 41.4242 34.5079 41.4242C33.9258 41.4242 33.3841 41.1269 33.0714 40.636L25.5586 28.8384C24.1802 26.6739 24.7546 23.8074 26.8605 22.3411ZM55.8192 35.4646C60.6936 35.4646 64.6451 31.4597 64.6451 26.5194C64.6451 21.5791 60.6936 17.5742 55.8192 17.5742C50.9448 17.5742 46.9933 21.5791 46.9933 26.5194C46.9933 31.4597 50.9448 35.4646 55.8192 35.4646ZM26.1424 21.2214L26.2583 21.395L16.0665 28.2012C13.9849 29.5913 11.1705 29.0308 9.7804 26.9492L19.8605 20.2176C18.2615 18.5851 16.0455 17.5742 13.5966 17.5742C8.72213 17.5742 4.77063 21.5791 4.77063 26.5194C4.77063 31.4597 8.72213 35.4646 13.5966 35.4646C18.0578 35.4646 21.746 32.1098 22.3392 27.7536C23.213 28.1768 24.5157 29.6514 24.7823 30.7016C25.0333 31.6901 25.2278 33.1792 24.2979 34.9812C21.8087 38.1798 17.9406 40.2347 13.5968 40.2347C6.08757 40.2347 0.00012207 34.0938 0.00012207 26.5187C0.00012207 18.9436 6.08757 12.8027 13.5968 12.8027C19.2446 12.8027 24.0881 16.2764 26.1424 21.2214Z" fill="#72707E"/>
</g>
<defs>
<clipPath id="clip0_2_44959">
<rect width="69" height="52" fill="white"/>
</clipPath>
</defs>
</svg>
