<svg width="60" height="60" viewBox="0 0 60 60" fill="none" xmlns="http://www.w3.org/2000/svg">
<g clip-path="url(#clip0_2_20550)">
<path d="M29.9998 1.00024V59.0002M29.9998 1.00024L42.4998 8.3924L54.9998 15.7846M29.9998 1.00024L17.4998 8.3924L4.99976 15.7846M29.9998 59.0002L17.4998 51.6188L4.99976 44.2374M29.9998 59.0002L42.4998 51.6081L54.9998 44.2159M54.9998 44.2159L17.4998 22.8924L4.99976 15.7846M54.9998 44.2159V30.0002V15.7846M54.9998 15.7846L42.4998 22.8978L17.4998 37.1242L4.99976 44.2374M4.99976 15.7846V30.011V44.2374" stroke="#B470EB" stroke-opacity="0.25"/>
<path d="M29.9998 1.00024V59.0002M29.9998 1.00024L42.4998 8.3924L54.9998 15.7846M29.9998 1.00024L17.4998 8.3924L4.99976 15.7846M29.9998 59.0002L17.4998 51.6188L4.99976 44.2374M29.9998 59.0002L42.4998 51.6081L54.9998 44.2159M54.9998 44.2159L17.4998 22.8924L4.99976 15.7846M54.9998 44.2159V30.0002V15.7846M54.9998 15.7846L42.4998 22.8978L17.4998 37.1242L4.99976 44.2374M4.99976 15.7846V30.011V44.2374" stroke="url(#paint0_radial_2_20550)"/>
<path d="M55.75 15.75C55.75 16.1642 55.4142 16.5 55 16.5C54.5858 16.5 54.25 16.1642 54.25 15.75C54.25 15.3358 54.5858 15 55 15C55.4142 15 55.75 15.3358 55.75 15.75Z" fill="#B470EB"/>
<path d="M5.75 15.75C5.75 16.1642 5.41421 16.5 5 16.5C4.58579 16.5 4.25 16.1642 4.25 15.75C4.25 15.3358 4.58579 15 5 15C5.41421 15 5.75 15.3358 5.75 15.75Z" fill="#B470EB"/>
<path d="M30.75 1C30.75 1.41421 30.4142 1.75 30 1.75C29.5858 1.75 29.25 1.41421 29.25 1C29.25 0.585786 29.5858 0.25 30 0.25C30.4142 0.25 30.75 0.585786 30.75 1Z" fill="#B470EB"/>
<path d="M30.75 59C30.75 59.4142 30.4142 59.75 30 59.75C29.5858 59.75 29.25 59.4142 29.25 59C29.25 58.5858 29.5858 58.25 30 58.25C30.4142 58.25 30.75 58.5858 30.75 59Z" fill="#B470EB"/>
<path d="M55.75 44.25C55.75 44.6642 55.4142 45 55 45C54.5858 45 54.25 44.6642 54.25 44.25C54.25 43.8358 54.5858 43.5 55 43.5C55.4142 43.5 55.75 43.8358 55.75 44.25Z" fill="#B470EB"/>
<path d="M5.75 44.25C5.75 44.6642 5.41421 45 5 45C4.58579 45 4.25 44.6642 4.25 44.25C4.25 43.8358 4.58579 43.5 5 43.5C5.41421 43.5 5.75 43.8358 5.75 44.25Z" fill="#B470EB"/>
<mask id="mask0_2_20550" style="mask-type:alpha" maskUnits="userSpaceOnUse" x="39" y="11" width="8" height="34">
<path d="M39 44.6428V15.5L47 11.5V40L39 44.6428Z" fill="url(#paint1_linear_2_20550)"/>
</mask>
<g mask="url(#mask0_2_20550)">
<path d="M41.4999 12.75C41.4999 13.1642 41.1642 13.5 40.7499 13.5C40.3357 13.5 39.9999 13.1642 39.9999 12.75C39.9999 12.3358 40.3357 12 40.7499 12C41.1642 12 41.4999 12.3358 41.4999 12.75Z" fill="#B470EB"/>
<path d="M41.4999 16.75C41.4999 17.1642 41.1642 17.5 40.7499 17.5C40.3357 17.5 39.9999 17.1642 39.9999 16.75C39.9999 16.3358 40.3357 16 40.7499 16C41.1642 16 41.4999 16.3358 41.4999 16.75Z" fill="#B470EB"/>
<path d="M41.4999 20.75C41.4999 21.1642 41.1642 21.5 40.7499 21.5C40.3357 21.5 39.9999 21.1642 39.9999 20.75C39.9999 20.3358 40.3357 20 40.7499 20C41.1642 20 41.4999 20.3358 41.4999 20.75Z" fill="#B470EB"/>
<path d="M41.4999 24.75C41.4999 25.1642 41.1642 25.5 40.7499 25.5C40.3357 25.5 39.9999 25.1642 39.9999 24.75C39.9999 24.3358 40.3357 24 40.7499 24C41.1642 24 41.4999 24.3358 41.4999 24.75Z" fill="#B470EB"/>
<path d="M41.4999 28.75C41.4999 29.1642 41.1642 29.5 40.7499 29.5C40.3357 29.5 39.9999 29.1642 39.9999 28.75C39.9999 28.3358 40.3357 28 40.7499 28C41.1642 28 41.4999 28.3358 41.4999 28.75Z" fill="#B470EB"/>
<path d="M41.4999 32.75C41.4999 33.1642 41.1642 33.5 40.7499 33.5C40.3357 33.5 39.9999 33.1642 39.9999 32.75C39.9999 32.3358 40.3357 32 40.7499 32C41.1642 32 41.4999 32.3358 41.4999 32.75Z" fill="#B470EB"/>
<path d="M41.4999 36.75C41.4999 37.1642 41.1642 37.5 40.7499 37.5C40.3357 37.5 39.9999 37.1642 39.9999 36.75C39.9999 36.3358 40.3357 36 40.7499 36C41.1642 36 41.4999 36.3358 41.4999 36.75Z" fill="#B470EB"/>
<path d="M41.4999 40.75C41.4999 41.1642 41.1642 41.5 40.7499 41.5C40.3357 41.5 39.9999 41.1642 39.9999 40.75C39.9999 40.3358 40.3357 40 40.7499 40C41.1642 40 41.4999 40.3358 41.4999 40.75Z" fill="#B470EB"/>
<path d="M41.4999 44.75C41.4999 45.1642 41.1642 45.5 40.7499 45.5C40.3357 45.5 39.9999 45.1642 39.9999 44.75C39.9999 44.3358 40.3357 44 40.7499 44C41.1642 44 41.4999 44.3358 41.4999 44.75Z" fill="#B470EB"/>
<path d="M45.4999 12.75C45.4999 13.1642 45.1642 13.5 44.7499 13.5C44.3357 13.5 43.9999 13.1642 43.9999 12.75C43.9999 12.3358 44.3357 12 44.7499 12C45.1642 12 45.4999 12.3358 45.4999 12.75Z" fill="#B470EB"/>
<path d="M45.4999 16.75C45.4999 17.1642 45.1642 17.5 44.7499 17.5C44.3357 17.5 43.9999 17.1642 43.9999 16.75C43.9999 16.3358 44.3357 16 44.7499 16C45.1642 16 45.4999 16.3358 45.4999 16.75Z" fill="#B470EB"/>
<path d="M45.4999 20.75C45.4999 21.1642 45.1642 21.5 44.7499 21.5C44.3357 21.5 43.9999 21.1642 43.9999 20.75C43.9999 20.3358 44.3357 20 44.7499 20C45.1642 20 45.4999 20.3358 45.4999 20.75Z" fill="#B470EB"/>
<path d="M45.4999 24.75C45.4999 25.1642 45.1642 25.5 44.7499 25.5C44.3357 25.5 43.9999 25.1642 43.9999 24.75C43.9999 24.3358 44.3357 24 44.7499 24C45.1642 24 45.4999 24.3358 45.4999 24.75Z" fill="#B470EB"/>
<path d="M45.4999 28.75C45.4999 29.1642 45.1642 29.5 44.7499 29.5C44.3357 29.5 43.9999 29.1642 43.9999 28.75C43.9999 28.3358 44.3357 28 44.7499 28C45.1642 28 45.4999 28.3358 45.4999 28.75Z" fill="#B470EB"/>
<path d="M45.4999 32.75C45.4999 33.1642 45.1642 33.5 44.7499 33.5C44.3357 33.5 43.9999 33.1642 43.9999 32.75C43.9999 32.3358 44.3357 32 44.7499 32C45.1642 32 45.4999 32.3358 45.4999 32.75Z" fill="#B470EB"/>
<path d="M45.4999 36.75C45.4999 37.1642 45.1642 37.5 44.7499 37.5C44.3357 37.5 43.9999 37.1642 43.9999 36.75C43.9999 36.3358 44.3357 36 44.7499 36C45.1642 36 45.4999 36.3358 45.4999 36.75Z" fill="#B470EB"/>
<path d="M45.4999 40.75C45.4999 41.1642 45.1642 41.5 44.7499 41.5C44.3357 41.5 43.9999 41.1642 43.9999 40.75C43.9999 40.3358 44.3357 40 44.7499 40C45.1642 40 45.4999 40.3358 45.4999 40.75Z" fill="#B470EB"/>
<path d="M45.4999 44.75C45.4999 45.1642 45.1642 45.5 44.7499 45.5C44.3357 45.5 43.9999 45.1642 43.9999 44.75C43.9999 44.3358 44.3357 44 44.7499 44C45.1642 44 45.4999 44.3358 45.4999 44.75Z" fill="#B470EB"/>
</g>
<mask id="mask1_2_20550" style="mask-type:alpha" maskUnits="userSpaceOnUse" x="22" y="41" width="9" height="13">
<path d="M22.5 54V45.5L30.5 41V49.3572L22.5 54Z" fill="url(#paint2_linear_2_20550)"/>
</mask>
<g mask="url(#mask1_2_20550)">
<path d="M25.4999 42.25C25.4999 42.6642 25.1642 43 24.7499 43C24.3357 43 23.9999 42.6642 23.9999 42.25C23.9999 41.8358 24.3357 41.5 24.7499 41.5C25.1642 41.5 25.4999 41.8358 25.4999 42.25Z" fill="#B470EB"/>
<path d="M25.4999 46.25C25.4999 46.6642 25.1642 47 24.7499 47C24.3357 47 23.9999 46.6642 23.9999 46.25C23.9999 45.8358 24.3357 45.5 24.7499 45.5C25.1642 45.5 25.4999 45.8358 25.4999 46.25Z" fill="#B470EB"/>
<path d="M25.4999 50.25C25.4999 50.6642 25.1642 51 24.7499 51C24.3357 51 23.9999 50.6642 23.9999 50.25C23.9999 49.8358 24.3357 49.5 24.7499 49.5C25.1642 49.5 25.4999 49.8358 25.4999 50.25Z" fill="#B470EB"/>
<path d="M25.4999 54.25C25.4999 54.6642 25.1642 55 24.7499 55C24.3357 55 23.9999 54.6642 23.9999 54.25C23.9999 53.8358 24.3357 53.5 24.7499 53.5C25.1642 53.5 25.4999 53.8358 25.4999 54.25Z" fill="#B470EB"/>
<path d="M29.4999 42.25C29.4999 42.6642 29.1642 43 28.7499 43C28.3357 43 27.9999 42.6642 27.9999 42.25C27.9999 41.8358 28.3357 41.5 28.7499 41.5C29.1642 41.5 29.4999 41.8358 29.4999 42.25Z" fill="#B470EB"/>
<path d="M29.4999 46.25C29.4999 46.6642 29.1642 47 28.7499 47C28.3357 47 27.9999 46.6642 27.9999 46.25C27.9999 45.8358 28.3357 45.5 28.7499 45.5C29.1642 45.5 29.4999 45.8358 29.4999 46.25Z" fill="#B470EB"/>
<path d="M29.4999 50.25C29.4999 50.6642 29.1642 51 28.7499 51C28.3357 51 27.9999 50.6642 27.9999 50.25C27.9999 49.8358 28.3357 49.5 28.7499 49.5C29.1642 49.5 29.4999 49.8358 29.4999 50.25Z" fill="#B470EB"/>
<path d="M29.4999 54.25C29.4999 54.6642 29.1642 55 28.7499 55C28.3357 55 27.9999 54.6642 27.9999 54.25C27.9999 53.8358 28.3357 53.5 28.7499 53.5C29.1642 53.5 29.4999 53.8358 29.4999 54.25Z" fill="#B470EB"/>
</g>
<path d="M14 40.6282L22.363 45.3832M14 40.6282L22.363 35.8732M14 40.6282L14 49.5869L22.363 54.5M22.363 45.3832L30.5 40.6282M22.363 45.3832V54.5M30.5 40.6282L22.363 35.8732M30.5 40.6282V30.3897M30.5 40.6282V49.6367M22.363 35.8732V25.6971M22.363 54.5L30.5 49.6367M22.363 25.6971L30.5 21.0045M22.363 25.6971L30.5 30.3897M30.5 21.0045V10.766M30.5 21.0045L38.9671 25.6971M30.5 10.766L38.9671 6.5L47 11.1926M30.5 10.766L38.9671 15.4587M47 11.1926V39.775L38.9671 44.5761M47 11.1926L38.9671 15.4587M30.5 30.3897L38.9671 25.6971M30.5 49.6367L38.9671 44.5761M38.9671 25.6971V15.4587M38.9671 25.6971V44.5761" stroke="black" stroke-width="1.2"/>
</g>
<defs>
<radialGradient id="paint0_radial_2_20550" cx="0" cy="0" r="1" gradientUnits="userSpaceOnUse" gradientTransform="translate(29.9998 30.0002) rotate(90) scale(37.6015 32.4151)">
<stop stop-color="white"/>
<stop offset="1" stop-color="white" stop-opacity="0"/>
</radialGradient>
<linearGradient id="paint1_linear_2_20550" x1="42.5845" y1="1.77901" x2="66.148" y2="38.3954" gradientUnits="userSpaceOnUse">
<stop stop-color="#B470EB" stop-opacity="0"/>
<stop offset="1" stop-color="#B470EB"/>
</linearGradient>
<linearGradient id="paint2_linear_2_20550" x1="26.0845" y1="37.187" x2="30.9041" y2="56.2807" gradientUnits="userSpaceOnUse">
<stop stop-color="#B470EB" stop-opacity="0"/>
<stop offset="1" stop-color="#B470EB"/>
</linearGradient>
<clipPath id="clip0_2_20550">
<rect width="60" height="60" fill="white"/>
</clipPath>
</defs>
</svg>
