<svg width="60" height="60" viewBox="0 0 60 60" fill="none" xmlns="http://www.w3.org/2000/svg">
<g clip-path="url(#clip0_2_20884)">
<g clip-path="url(#clip1_2_20884)">
<path d="M29.9998 1.00024V59.0002M29.9998 1.00024L42.4998 8.3924L54.9998 15.7846M29.9998 1.00024L17.4998 8.3924L4.99976 15.7846M29.9998 59.0002L17.4998 51.6188L4.99976 44.2374M29.9998 59.0002L42.4998 51.6081L54.9998 44.2159M54.9998 44.2159L17.4998 22.8924L4.99976 15.7846M54.9998 44.2159V30.0002V15.7846M54.9998 15.7846L42.4998 22.8978L17.4998 37.1242L4.99976 44.2374M4.99976 15.7846V30.011V44.2374" stroke="#B470EB" stroke-opacity="0.25"/>
<path d="M29.9998 1.00024V59.0002M29.9998 1.00024L42.4998 8.3924L54.9998 15.7846M29.9998 1.00024L17.4998 8.3924L4.99976 15.7846M29.9998 59.0002L17.4998 51.6188L4.99976 44.2374M29.9998 59.0002L42.4998 51.6081L54.9998 44.2159M54.9998 44.2159L17.4998 22.8924L4.99976 15.7846M54.9998 44.2159V30.0002V15.7846M54.9998 15.7846L42.4998 22.8978L17.4998 37.1242L4.99976 44.2374M4.99976 15.7846V30.011V44.2374" stroke="url(#paint0_radial_2_20884)"/>
<path d="M28.5341 7.3018C31.9647 6.73265 35.3122 7.29936 38.1359 8.9273C40.9596 10.5552 43.127 13.168 44.3527 16.4216L28.4922 25.6473L28.5341 7.3018Z" stroke="black" stroke-width="1.2"/>
<path d="M25.9997 17.9998V12.9998L30.9997 15.9998L25.9997 17.9998Z" fill="white"/>
<path d="M25.6528 12.0835C22.0289 12.6875 18.4981 14.5279 15.5765 17.3357C12.6549 20.1435 10.4957 23.7714 9.41476 27.6889C8.33378 31.6064 8.38765 35.6081 9.56849 39.1089C10.7493 42.6098 12.9952 45.4261 15.9778 47.1461C18.9603 48.8661 22.5231 49.3997 26.1452 48.6687C29.7674 47.9378 33.2589 45.9807 36.1092 43.0836C38.9596 40.1864 41.0193 36.5013 41.9873 32.5668C42.9552 28.6324 42.7806 24.655 41.489 21.2163L25.623 30.427L25.6528 12.0835ZM25.6528 12.0835L31.9998 16.4998" stroke="black" stroke-width="1.2"/>
<path d="M44 21V29L29 29V21H44Z" fill="white"/>
<path d="M34.9379 11.5006C38.3685 10.9314 41.716 11.4982 44.5397 13.1261C47.3634 14.754 49.5308 17.3668 50.7565 20.6204L34.896 29.8461L34.9379 11.5006Z" fill="white"/>
<path d="M34.9379 11.5008C38.3685 10.9316 41.716 11.4983 44.5397 13.1263M34.9379 11.5008L34.896 29.8463M34.9379 11.5008L28.5006 7.50019M44.5397 13.1263C47.3634 14.7542 49.5308 17.367 50.7565 20.6206L34.896 29.8463M44.5397 13.1263L39.0009 9.5002M34.896 29.8463L32.0001 28" stroke="black" stroke-width="1.2"/>
<path d="M47.8932 25.4152C49.1848 28.8539 49.3594 32.8312 48.3915 36.7657C47.4235 40.7001 45.3638 44.3853 42.5134 47.2825C39.6631 50.1796 36.1715 52.1367 32.5494 52.8677C28.9273 53.5986 25.3645 53.0651 22.3819 51.345C19.3994 49.625 17.1535 46.8087 15.9727 43.3079C14.7918 39.8071 14.738 35.8053 15.819 31.8878C16.8999 27.9703 19.0591 24.3424 21.9807 21.5346C24.9023 18.7268 28.4331 16.8864 32.057 16.2824L32.0272 34.6259L47.8932 25.4152Z" fill="white"/>
<mask id="mask0_2_20884" style="mask-type:alpha" maskUnits="userSpaceOnUse" x="9" y="10" width="46" height="50">
<path d="M10.9996 10.7502C10.9996 11.1644 10.6638 11.5002 10.2496 11.5002C9.83536 11.5002 9.49957 11.1644 9.49957 10.7502C9.49957 10.336 9.83536 10.0002 10.2496 10.0002C10.6638 10.0002 10.9996 10.336 10.9996 10.7502Z" fill="#B470EB"/>
<path d="M10.9996 14.7502C10.9996 15.1644 10.6638 15.5002 10.2496 15.5002C9.83536 15.5002 9.49957 15.1644 9.49957 14.7502C9.49957 14.336 9.83536 14.0002 10.2496 14.0002C10.6638 14.0002 10.9996 14.336 10.9996 14.7502Z" fill="#B470EB"/>
<path d="M10.9996 18.7502C10.9996 19.1644 10.6638 19.5002 10.2496 19.5002C9.83536 19.5002 9.49957 19.1644 9.49957 18.7502C9.49957 18.336 9.83536 18.0002 10.2496 18.0002C10.6638 18.0002 10.9996 18.336 10.9996 18.7502Z" fill="#B470EB"/>
<path d="M10.9996 22.7502C10.9996 23.1644 10.6638 23.5002 10.2496 23.5002C9.83536 23.5002 9.49957 23.1644 9.49957 22.7502C9.49957 22.336 9.83536 22.0002 10.2496 22.0002C10.6638 22.0002 10.9996 22.336 10.9996 22.7502Z" fill="#B470EB"/>
<path d="M10.9996 26.7502C10.9996 27.1644 10.6638 27.5002 10.2496 27.5002C9.83536 27.5002 9.49957 27.1644 9.49957 26.7502C9.49957 26.336 9.83536 26.0002 10.2496 26.0002C10.6638 26.0002 10.9996 26.336 10.9996 26.7502Z" fill="#B470EB"/>
<path d="M10.9996 30.7502C10.9996 31.1644 10.6638 31.5002 10.2496 31.5002C9.83536 31.5002 9.49957 31.1644 9.49957 30.7502C9.49957 30.336 9.83536 30.0002 10.2496 30.0002C10.6638 30.0002 10.9996 30.336 10.9996 30.7502Z" fill="#B470EB"/>
<path d="M10.9996 34.7502C10.9996 35.1644 10.6638 35.5002 10.2496 35.5002C9.83536 35.5002 9.49957 35.1644 9.49957 34.7502C9.49957 34.336 9.83536 34.0002 10.2496 34.0002C10.6638 34.0002 10.9996 34.336 10.9996 34.7502Z" fill="#B470EB"/>
<path d="M10.9996 38.7502C10.9996 39.1644 10.6638 39.5002 10.2496 39.5002C9.83536 39.5002 9.49957 39.1644 9.49957 38.7502C9.49957 38.336 9.83536 38.0002 10.2496 38.0002C10.6638 38.0002 10.9996 38.336 10.9996 38.7502Z" fill="#B470EB"/>
<path d="M10.9996 42.7502C10.9996 43.1644 10.6638 43.5002 10.2496 43.5002C9.83536 43.5002 9.49957 43.1644 9.49957 42.7502C9.49957 42.336 9.83536 42.0002 10.2496 42.0002C10.6638 42.0002 10.9996 42.336 10.9996 42.7502Z" fill="#B470EB"/>
<path d="M10.9996 46.7502C10.9996 47.1644 10.6638 47.5002 10.2496 47.5002C9.83536 47.5002 9.49957 47.1644 9.49957 46.7502C9.49957 46.336 9.83536 46.0002 10.2496 46.0002C10.6638 46.0002 10.9996 46.336 10.9996 46.7502Z" fill="#B470EB"/>
<path d="M10.9996 50.7502C10.9996 51.1644 10.6638 51.5002 10.2496 51.5002C9.83536 51.5002 9.49957 51.1644 9.49957 50.7502C9.49957 50.336 9.83536 50.0002 10.2496 50.0002C10.6638 50.0002 10.9996 50.336 10.9996 50.7502Z" fill="#B470EB"/>
<path d="M10.9996 54.7502C10.9996 55.1644 10.6638 55.5002 10.2496 55.5002C9.83536 55.5002 9.49957 55.1644 9.49957 54.7502C9.49957 54.336 9.83536 54.0002 10.2496 54.0002C10.6638 54.0002 10.9996 54.336 10.9996 54.7502Z" fill="#B470EB"/>
<path d="M10.9996 58.7502C10.9996 59.1644 10.6638 59.5002 10.2496 59.5002C9.83536 59.5002 9.49957 59.1644 9.49957 58.7502C9.49957 58.336 9.83536 58.0002 10.2496 58.0002C10.6638 58.0002 10.9996 58.336 10.9996 58.7502Z" fill="#B470EB"/>
<path d="M14.9996 10.7502C14.9996 11.1644 14.6638 11.5002 14.2496 11.5002C13.8354 11.5002 13.4996 11.1644 13.4996 10.7502C13.4996 10.336 13.8354 10.0002 14.2496 10.0002C14.6638 10.0002 14.9996 10.336 14.9996 10.7502Z" fill="#B470EB"/>
<path d="M14.9996 14.7502C14.9996 15.1644 14.6638 15.5002 14.2496 15.5002C13.8354 15.5002 13.4996 15.1644 13.4996 14.7502C13.4996 14.336 13.8354 14.0002 14.2496 14.0002C14.6638 14.0002 14.9996 14.336 14.9996 14.7502Z" fill="#B470EB"/>
<path d="M14.9996 18.7502C14.9996 19.1644 14.6638 19.5002 14.2496 19.5002C13.8354 19.5002 13.4996 19.1644 13.4996 18.7502C13.4996 18.336 13.8354 18.0002 14.2496 18.0002C14.6638 18.0002 14.9996 18.336 14.9996 18.7502Z" fill="#B470EB"/>
<path d="M14.9996 22.7502C14.9996 23.1644 14.6638 23.5002 14.2496 23.5002C13.8354 23.5002 13.4996 23.1644 13.4996 22.7502C13.4996 22.336 13.8354 22.0002 14.2496 22.0002C14.6638 22.0002 14.9996 22.336 14.9996 22.7502Z" fill="#B470EB"/>
<path d="M14.9996 26.7502C14.9996 27.1644 14.6638 27.5002 14.2496 27.5002C13.8354 27.5002 13.4996 27.1644 13.4996 26.7502C13.4996 26.336 13.8354 26.0002 14.2496 26.0002C14.6638 26.0002 14.9996 26.336 14.9996 26.7502Z" fill="#B470EB"/>
<path d="M14.9996 30.7502C14.9996 31.1644 14.6638 31.5002 14.2496 31.5002C13.8354 31.5002 13.4996 31.1644 13.4996 30.7502C13.4996 30.336 13.8354 30.0002 14.2496 30.0002C14.6638 30.0002 14.9996 30.336 14.9996 30.7502Z" fill="#B470EB"/>
<path d="M14.9996 34.7502C14.9996 35.1644 14.6638 35.5002 14.2496 35.5002C13.8354 35.5002 13.4996 35.1644 13.4996 34.7502C13.4996 34.336 13.8354 34.0002 14.2496 34.0002C14.6638 34.0002 14.9996 34.336 14.9996 34.7502Z" fill="#B470EB"/>
<path d="M14.9996 38.7502C14.9996 39.1644 14.6638 39.5002 14.2496 39.5002C13.8354 39.5002 13.4996 39.1644 13.4996 38.7502C13.4996 38.336 13.8354 38.0002 14.2496 38.0002C14.6638 38.0002 14.9996 38.336 14.9996 38.7502Z" fill="#B470EB"/>
<path d="M14.9996 42.7502C14.9996 43.1644 14.6638 43.5002 14.2496 43.5002C13.8354 43.5002 13.4996 43.1644 13.4996 42.7502C13.4996 42.336 13.8354 42.0002 14.2496 42.0002C14.6638 42.0002 14.9996 42.336 14.9996 42.7502Z" fill="#B470EB"/>
<path d="M14.9996 46.7502C14.9996 47.1644 14.6638 47.5002 14.2496 47.5002C13.8354 47.5002 13.4996 47.1644 13.4996 46.7502C13.4996 46.336 13.8354 46.0002 14.2496 46.0002C14.6638 46.0002 14.9996 46.336 14.9996 46.7502Z" fill="#B470EB"/>
<path d="M14.9996 50.7502C14.9996 51.1644 14.6638 51.5002 14.2496 51.5002C13.8354 51.5002 13.4996 51.1644 13.4996 50.7502C13.4996 50.336 13.8354 50.0002 14.2496 50.0002C14.6638 50.0002 14.9996 50.336 14.9996 50.7502Z" fill="#B470EB"/>
<path d="M14.9996 54.7502C14.9996 55.1644 14.6638 55.5002 14.2496 55.5002C13.8354 55.5002 13.4996 55.1644 13.4996 54.7502C13.4996 54.336 13.8354 54.0002 14.2496 54.0002C14.6638 54.0002 14.9996 54.336 14.9996 54.7502Z" fill="#B470EB"/>
<path d="M14.9996 58.7502C14.9996 59.1644 14.6638 59.5002 14.2496 59.5002C13.8354 59.5002 13.4996 59.1644 13.4996 58.7502C13.4996 58.336 13.8354 58.0002 14.2496 58.0002C14.6638 58.0002 14.9996 58.336 14.9996 58.7502Z" fill="#B470EB"/>
<path d="M18.9996 10.7502C18.9996 11.1644 18.6638 11.5002 18.2496 11.5002C17.8354 11.5002 17.4996 11.1644 17.4996 10.7502C17.4996 10.336 17.8354 10.0002 18.2496 10.0002C18.6638 10.0002 18.9996 10.336 18.9996 10.7502Z" fill="#B470EB"/>
<path d="M18.9996 14.7502C18.9996 15.1644 18.6638 15.5002 18.2496 15.5002C17.8354 15.5002 17.4996 15.1644 17.4996 14.7502C17.4996 14.336 17.8354 14.0002 18.2496 14.0002C18.6638 14.0002 18.9996 14.336 18.9996 14.7502Z" fill="#B470EB"/>
<path d="M18.9996 18.7502C18.9996 19.1644 18.6638 19.5002 18.2496 19.5002C17.8354 19.5002 17.4996 19.1644 17.4996 18.7502C17.4996 18.336 17.8354 18.0002 18.2496 18.0002C18.6638 18.0002 18.9996 18.336 18.9996 18.7502Z" fill="#B470EB"/>
<path d="M18.9996 22.7502C18.9996 23.1644 18.6638 23.5002 18.2496 23.5002C17.8354 23.5002 17.4996 23.1644 17.4996 22.7502C17.4996 22.336 17.8354 22.0002 18.2496 22.0002C18.6638 22.0002 18.9996 22.336 18.9996 22.7502Z" fill="#B470EB"/>
<path d="M18.9996 26.7502C18.9996 27.1644 18.6638 27.5002 18.2496 27.5002C17.8354 27.5002 17.4996 27.1644 17.4996 26.7502C17.4996 26.336 17.8354 26.0002 18.2496 26.0002C18.6638 26.0002 18.9996 26.336 18.9996 26.7502Z" fill="#B470EB"/>
<path d="M18.9996 30.7502C18.9996 31.1644 18.6638 31.5002 18.2496 31.5002C17.8354 31.5002 17.4996 31.1644 17.4996 30.7502C17.4996 30.336 17.8354 30.0002 18.2496 30.0002C18.6638 30.0002 18.9996 30.336 18.9996 30.7502Z" fill="#B470EB"/>
<path d="M18.9996 34.7502C18.9996 35.1644 18.6638 35.5002 18.2496 35.5002C17.8354 35.5002 17.4996 35.1644 17.4996 34.7502C17.4996 34.336 17.8354 34.0002 18.2496 34.0002C18.6638 34.0002 18.9996 34.336 18.9996 34.7502Z" fill="#B470EB"/>
<path d="M18.9996 38.7502C18.9996 39.1644 18.6638 39.5002 18.2496 39.5002C17.8354 39.5002 17.4996 39.1644 17.4996 38.7502C17.4996 38.336 17.8354 38.0002 18.2496 38.0002C18.6638 38.0002 18.9996 38.336 18.9996 38.7502Z" fill="#B470EB"/>
<path d="M18.9996 42.7502C18.9996 43.1644 18.6638 43.5002 18.2496 43.5002C17.8354 43.5002 17.4996 43.1644 17.4996 42.7502C17.4996 42.336 17.8354 42.0002 18.2496 42.0002C18.6638 42.0002 18.9996 42.336 18.9996 42.7502Z" fill="#B470EB"/>
<path d="M18.9996 46.7502C18.9996 47.1644 18.6638 47.5002 18.2496 47.5002C17.8354 47.5002 17.4996 47.1644 17.4996 46.7502C17.4996 46.336 17.8354 46.0002 18.2496 46.0002C18.6638 46.0002 18.9996 46.336 18.9996 46.7502Z" fill="#B470EB"/>
<path d="M18.9996 50.7502C18.9996 51.1644 18.6638 51.5002 18.2496 51.5002C17.8354 51.5002 17.4996 51.1644 17.4996 50.7502C17.4996 50.336 17.8354 50.0002 18.2496 50.0002C18.6638 50.0002 18.9996 50.336 18.9996 50.7502Z" fill="#B470EB"/>
<path d="M18.9996 54.7502C18.9996 55.1644 18.6638 55.5002 18.2496 55.5002C17.8354 55.5002 17.4996 55.1644 17.4996 54.7502C17.4996 54.336 17.8354 54.0002 18.2496 54.0002C18.6638 54.0002 18.9996 54.336 18.9996 54.7502Z" fill="#B470EB"/>
<path d="M18.9996 58.7502C18.9996 59.1644 18.6638 59.5002 18.2496 59.5002C17.8354 59.5002 17.4996 59.1644 17.4996 58.7502C17.4996 58.336 17.8354 58.0002 18.2496 58.0002C18.6638 58.0002 18.9996 58.336 18.9996 58.7502Z" fill="#B470EB"/>
<path d="M22.9996 10.7502C22.9996 11.1644 22.6638 11.5002 22.2496 11.5002C21.8354 11.5002 21.4996 11.1644 21.4996 10.7502C21.4996 10.336 21.8354 10.0002 22.2496 10.0002C22.6638 10.0002 22.9996 10.336 22.9996 10.7502Z" fill="#B470EB"/>
<path d="M22.9996 14.7502C22.9996 15.1644 22.6638 15.5002 22.2496 15.5002C21.8354 15.5002 21.4996 15.1644 21.4996 14.7502C21.4996 14.336 21.8354 14.0002 22.2496 14.0002C22.6638 14.0002 22.9996 14.336 22.9996 14.7502Z" fill="#B470EB"/>
<path d="M22.9996 18.7502C22.9996 19.1644 22.6638 19.5002 22.2496 19.5002C21.8354 19.5002 21.4996 19.1644 21.4996 18.7502C21.4996 18.336 21.8354 18.0002 22.2496 18.0002C22.6638 18.0002 22.9996 18.336 22.9996 18.7502Z" fill="#B470EB"/>
<path d="M22.9996 22.7502C22.9996 23.1644 22.6638 23.5002 22.2496 23.5002C21.8354 23.5002 21.4996 23.1644 21.4996 22.7502C21.4996 22.336 21.8354 22.0002 22.2496 22.0002C22.6638 22.0002 22.9996 22.336 22.9996 22.7502Z" fill="#B470EB"/>
<path d="M22.9996 26.7502C22.9996 27.1644 22.6638 27.5002 22.2496 27.5002C21.8354 27.5002 21.4996 27.1644 21.4996 26.7502C21.4996 26.336 21.8354 26.0002 22.2496 26.0002C22.6638 26.0002 22.9996 26.336 22.9996 26.7502Z" fill="#B470EB"/>
<path d="M22.9996 30.7502C22.9996 31.1644 22.6638 31.5002 22.2496 31.5002C21.8354 31.5002 21.4996 31.1644 21.4996 30.7502C21.4996 30.336 21.8354 30.0002 22.2496 30.0002C22.6638 30.0002 22.9996 30.336 22.9996 30.7502Z" fill="#B470EB"/>
<path d="M22.9996 34.7502C22.9996 35.1644 22.6638 35.5002 22.2496 35.5002C21.8354 35.5002 21.4996 35.1644 21.4996 34.7502C21.4996 34.336 21.8354 34.0002 22.2496 34.0002C22.6638 34.0002 22.9996 34.336 22.9996 34.7502Z" fill="#B470EB"/>
<path d="M22.9996 38.7502C22.9996 39.1644 22.6638 39.5002 22.2496 39.5002C21.8354 39.5002 21.4996 39.1644 21.4996 38.7502C21.4996 38.336 21.8354 38.0002 22.2496 38.0002C22.6638 38.0002 22.9996 38.336 22.9996 38.7502Z" fill="#B470EB"/>
<path d="M22.9996 42.7502C22.9996 43.1644 22.6638 43.5002 22.2496 43.5002C21.8354 43.5002 21.4996 43.1644 21.4996 42.7502C21.4996 42.336 21.8354 42.0002 22.2496 42.0002C22.6638 42.0002 22.9996 42.336 22.9996 42.7502Z" fill="#B470EB"/>
<path d="M22.9996 46.7502C22.9996 47.1644 22.6638 47.5002 22.2496 47.5002C21.8354 47.5002 21.4996 47.1644 21.4996 46.7502C21.4996 46.336 21.8354 46.0002 22.2496 46.0002C22.6638 46.0002 22.9996 46.336 22.9996 46.7502Z" fill="#B470EB"/>
<path d="M22.9996 50.7502C22.9996 51.1644 22.6638 51.5002 22.2496 51.5002C21.8354 51.5002 21.4996 51.1644 21.4996 50.7502C21.4996 50.336 21.8354 50.0002 22.2496 50.0002C22.6638 50.0002 22.9996 50.336 22.9996 50.7502Z" fill="#B470EB"/>
<path d="M22.9996 54.7502C22.9996 55.1644 22.6638 55.5002 22.2496 55.5002C21.8354 55.5002 21.4996 55.1644 21.4996 54.7502C21.4996 54.336 21.8354 54.0002 22.2496 54.0002C22.6638 54.0002 22.9996 54.336 22.9996 54.7502Z" fill="#B470EB"/>
<path d="M22.9996 58.7502C22.9996 59.1644 22.6638 59.5002 22.2496 59.5002C21.8354 59.5002 21.4996 59.1644 21.4996 58.7502C21.4996 58.336 21.8354 58.0002 22.2496 58.0002C22.6638 58.0002 22.9996 58.336 22.9996 58.7502Z" fill="#B470EB"/>
<path d="M26.9996 10.7502C26.9996 11.1644 26.6638 11.5002 26.2496 11.5002C25.8354 11.5002 25.4996 11.1644 25.4996 10.7502C25.4996 10.336 25.8354 10.0002 26.2496 10.0002C26.6638 10.0002 26.9996 10.336 26.9996 10.7502Z" fill="#B470EB"/>
<path d="M26.9996 14.7502C26.9996 15.1644 26.6638 15.5002 26.2496 15.5002C25.8354 15.5002 25.4996 15.1644 25.4996 14.7502C25.4996 14.336 25.8354 14.0002 26.2496 14.0002C26.6638 14.0002 26.9996 14.336 26.9996 14.7502Z" fill="#B470EB"/>
<path d="M26.9996 18.7502C26.9996 19.1644 26.6638 19.5002 26.2496 19.5002C25.8354 19.5002 25.4996 19.1644 25.4996 18.7502C25.4996 18.336 25.8354 18.0002 26.2496 18.0002C26.6638 18.0002 26.9996 18.336 26.9996 18.7502Z" fill="#B470EB"/>
<path d="M26.9996 22.7502C26.9996 23.1644 26.6638 23.5002 26.2496 23.5002C25.8354 23.5002 25.4996 23.1644 25.4996 22.7502C25.4996 22.336 25.8354 22.0002 26.2496 22.0002C26.6638 22.0002 26.9996 22.336 26.9996 22.7502Z" fill="#B470EB"/>
<path d="M26.9996 26.7502C26.9996 27.1644 26.6638 27.5002 26.2496 27.5002C25.8354 27.5002 25.4996 27.1644 25.4996 26.7502C25.4996 26.336 25.8354 26.0002 26.2496 26.0002C26.6638 26.0002 26.9996 26.336 26.9996 26.7502Z" fill="#B470EB"/>
<path d="M26.9996 30.7502C26.9996 31.1644 26.6638 31.5002 26.2496 31.5002C25.8354 31.5002 25.4996 31.1644 25.4996 30.7502C25.4996 30.336 25.8354 30.0002 26.2496 30.0002C26.6638 30.0002 26.9996 30.336 26.9996 30.7502Z" fill="#B470EB"/>
<path d="M26.9996 34.7502C26.9996 35.1644 26.6638 35.5002 26.2496 35.5002C25.8354 35.5002 25.4996 35.1644 25.4996 34.7502C25.4996 34.336 25.8354 34.0002 26.2496 34.0002C26.6638 34.0002 26.9996 34.336 26.9996 34.7502Z" fill="#B470EB"/>
<path d="M26.9996 38.7502C26.9996 39.1644 26.6638 39.5002 26.2496 39.5002C25.8354 39.5002 25.4996 39.1644 25.4996 38.7502C25.4996 38.336 25.8354 38.0002 26.2496 38.0002C26.6638 38.0002 26.9996 38.336 26.9996 38.7502Z" fill="#B470EB"/>
<path d="M26.9996 42.7502C26.9996 43.1644 26.6638 43.5002 26.2496 43.5002C25.8354 43.5002 25.4996 43.1644 25.4996 42.7502C25.4996 42.336 25.8354 42.0002 26.2496 42.0002C26.6638 42.0002 26.9996 42.336 26.9996 42.7502Z" fill="#B470EB"/>
<path d="M26.9996 46.7502C26.9996 47.1644 26.6638 47.5002 26.2496 47.5002C25.8354 47.5002 25.4996 47.1644 25.4996 46.7502C25.4996 46.336 25.8354 46.0002 26.2496 46.0002C26.6638 46.0002 26.9996 46.336 26.9996 46.7502Z" fill="#B470EB"/>
<path d="M26.9996 50.7502C26.9996 51.1644 26.6638 51.5002 26.2496 51.5002C25.8354 51.5002 25.4996 51.1644 25.4996 50.7502C25.4996 50.336 25.8354 50.0002 26.2496 50.0002C26.6638 50.0002 26.9996 50.336 26.9996 50.7502Z" fill="#B470EB"/>
<path d="M26.9996 54.7502C26.9996 55.1644 26.6638 55.5002 26.2496 55.5002C25.8354 55.5002 25.4996 55.1644 25.4996 54.7502C25.4996 54.336 25.8354 54.0002 26.2496 54.0002C26.6638 54.0002 26.9996 54.336 26.9996 54.7502Z" fill="#B470EB"/>
<path d="M26.9996 58.7502C26.9996 59.1644 26.6638 59.5002 26.2496 59.5002C25.8354 59.5002 25.4996 59.1644 25.4996 58.7502C25.4996 58.336 25.8354 58.0002 26.2496 58.0002C26.6638 58.0002 26.9996 58.336 26.9996 58.7502Z" fill="#B470EB"/>
<path d="M30.9996 10.7502C30.9996 11.1644 30.6638 11.5002 30.2496 11.5002C29.8354 11.5002 29.4996 11.1644 29.4996 10.7502C29.4996 10.336 29.8354 10.0002 30.2496 10.0002C30.6638 10.0002 30.9996 10.336 30.9996 10.7502Z" fill="#B470EB"/>
<path d="M30.9996 14.7502C30.9996 15.1644 30.6638 15.5002 30.2496 15.5002C29.8354 15.5002 29.4996 15.1644 29.4996 14.7502C29.4996 14.336 29.8354 14.0002 30.2496 14.0002C30.6638 14.0002 30.9996 14.336 30.9996 14.7502Z" fill="#B470EB"/>
<path d="M30.9996 18.7502C30.9996 19.1644 30.6638 19.5002 30.2496 19.5002C29.8354 19.5002 29.4996 19.1644 29.4996 18.7502C29.4996 18.336 29.8354 18.0002 30.2496 18.0002C30.6638 18.0002 30.9996 18.336 30.9996 18.7502Z" fill="#B470EB"/>
<path d="M30.9996 22.7502C30.9996 23.1644 30.6638 23.5002 30.2496 23.5002C29.8354 23.5002 29.4996 23.1644 29.4996 22.7502C29.4996 22.336 29.8354 22.0002 30.2496 22.0002C30.6638 22.0002 30.9996 22.336 30.9996 22.7502Z" fill="#B470EB"/>
<path d="M30.9996 26.7502C30.9996 27.1644 30.6638 27.5002 30.2496 27.5002C29.8354 27.5002 29.4996 27.1644 29.4996 26.7502C29.4996 26.336 29.8354 26.0002 30.2496 26.0002C30.6638 26.0002 30.9996 26.336 30.9996 26.7502Z" fill="#B470EB"/>
<path d="M30.9996 30.7502C30.9996 31.1644 30.6638 31.5002 30.2496 31.5002C29.8354 31.5002 29.4996 31.1644 29.4996 30.7502C29.4996 30.336 29.8354 30.0002 30.2496 30.0002C30.6638 30.0002 30.9996 30.336 30.9996 30.7502Z" fill="#B470EB"/>
<path d="M30.9996 34.7502C30.9996 35.1644 30.6638 35.5002 30.2496 35.5002C29.8354 35.5002 29.4996 35.1644 29.4996 34.7502C29.4996 34.336 29.8354 34.0002 30.2496 34.0002C30.6638 34.0002 30.9996 34.336 30.9996 34.7502Z" fill="#B470EB"/>
<path d="M30.9996 38.7502C30.9996 39.1644 30.6638 39.5002 30.2496 39.5002C29.8354 39.5002 29.4996 39.1644 29.4996 38.7502C29.4996 38.336 29.8354 38.0002 30.2496 38.0002C30.6638 38.0002 30.9996 38.336 30.9996 38.7502Z" fill="#B470EB"/>
<path d="M30.9996 42.7502C30.9996 43.1644 30.6638 43.5002 30.2496 43.5002C29.8354 43.5002 29.4996 43.1644 29.4996 42.7502C29.4996 42.336 29.8354 42.0002 30.2496 42.0002C30.6638 42.0002 30.9996 42.336 30.9996 42.7502Z" fill="#B470EB"/>
<path d="M30.9996 46.7502C30.9996 47.1644 30.6638 47.5002 30.2496 47.5002C29.8354 47.5002 29.4996 47.1644 29.4996 46.7502C29.4996 46.336 29.8354 46.0002 30.2496 46.0002C30.6638 46.0002 30.9996 46.336 30.9996 46.7502Z" fill="#B470EB"/>
<path d="M30.9996 50.7502C30.9996 51.1644 30.6638 51.5002 30.2496 51.5002C29.8354 51.5002 29.4996 51.1644 29.4996 50.7502C29.4996 50.336 29.8354 50.0002 30.2496 50.0002C30.6638 50.0002 30.9996 50.336 30.9996 50.7502Z" fill="#B470EB"/>
<path d="M30.9996 54.7502C30.9996 55.1644 30.6638 55.5002 30.2496 55.5002C29.8354 55.5002 29.4996 55.1644 29.4996 54.7502C29.4996 54.336 29.8354 54.0002 30.2496 54.0002C30.6638 54.0002 30.9996 54.336 30.9996 54.7502Z" fill="#B470EB"/>
<path d="M30.9996 58.7502C30.9996 59.1644 30.6638 59.5002 30.2496 59.5002C29.8354 59.5002 29.4996 59.1644 29.4996 58.7502C29.4996 58.336 29.8354 58.0002 30.2496 58.0002C30.6638 58.0002 30.9996 58.336 30.9996 58.7502Z" fill="#B470EB"/>
<path d="M34.9996 10.7502C34.9996 11.1644 34.6638 11.5002 34.2496 11.5002C33.8354 11.5002 33.4996 11.1644 33.4996 10.7502C33.4996 10.336 33.8354 10.0002 34.2496 10.0002C34.6638 10.0002 34.9996 10.336 34.9996 10.7502Z" fill="#B470EB"/>
<path d="M34.9996 14.7502C34.9996 15.1644 34.6638 15.5002 34.2496 15.5002C33.8354 15.5002 33.4996 15.1644 33.4996 14.7502C33.4996 14.336 33.8354 14.0002 34.2496 14.0002C34.6638 14.0002 34.9996 14.336 34.9996 14.7502Z" fill="#B470EB"/>
<path d="M34.9996 18.7502C34.9996 19.1644 34.6638 19.5002 34.2496 19.5002C33.8354 19.5002 33.4996 19.1644 33.4996 18.7502C33.4996 18.336 33.8354 18.0002 34.2496 18.0002C34.6638 18.0002 34.9996 18.336 34.9996 18.7502Z" fill="#B470EB"/>
<path d="M34.9996 22.7502C34.9996 23.1644 34.6638 23.5002 34.2496 23.5002C33.8354 23.5002 33.4996 23.1644 33.4996 22.7502C33.4996 22.336 33.8354 22.0002 34.2496 22.0002C34.6638 22.0002 34.9996 22.336 34.9996 22.7502Z" fill="#B470EB"/>
<path d="M34.9996 26.7502C34.9996 27.1644 34.6638 27.5002 34.2496 27.5002C33.8354 27.5002 33.4996 27.1644 33.4996 26.7502C33.4996 26.336 33.8354 26.0002 34.2496 26.0002C34.6638 26.0002 34.9996 26.336 34.9996 26.7502Z" fill="#B470EB"/>
<path d="M34.9996 30.7502C34.9996 31.1644 34.6638 31.5002 34.2496 31.5002C33.8354 31.5002 33.4996 31.1644 33.4996 30.7502C33.4996 30.336 33.8354 30.0002 34.2496 30.0002C34.6638 30.0002 34.9996 30.336 34.9996 30.7502Z" fill="#B470EB"/>
<path d="M34.9996 34.7502C34.9996 35.1644 34.6638 35.5002 34.2496 35.5002C33.8354 35.5002 33.4996 35.1644 33.4996 34.7502C33.4996 34.336 33.8354 34.0002 34.2496 34.0002C34.6638 34.0002 34.9996 34.336 34.9996 34.7502Z" fill="#B470EB"/>
<path d="M34.9996 38.7502C34.9996 39.1644 34.6638 39.5002 34.2496 39.5002C33.8354 39.5002 33.4996 39.1644 33.4996 38.7502C33.4996 38.336 33.8354 38.0002 34.2496 38.0002C34.6638 38.0002 34.9996 38.336 34.9996 38.7502Z" fill="#B470EB"/>
<path d="M34.9996 42.7502C34.9996 43.1644 34.6638 43.5002 34.2496 43.5002C33.8354 43.5002 33.4996 43.1644 33.4996 42.7502C33.4996 42.336 33.8354 42.0002 34.2496 42.0002C34.6638 42.0002 34.9996 42.336 34.9996 42.7502Z" fill="#B470EB"/>
<path d="M34.9996 46.7502C34.9996 47.1644 34.6638 47.5002 34.2496 47.5002C33.8354 47.5002 33.4996 47.1644 33.4996 46.7502C33.4996 46.336 33.8354 46.0002 34.2496 46.0002C34.6638 46.0002 34.9996 46.336 34.9996 46.7502Z" fill="#B470EB"/>
<path d="M34.9996 50.7502C34.9996 51.1644 34.6638 51.5002 34.2496 51.5002C33.8354 51.5002 33.4996 51.1644 33.4996 50.7502C33.4996 50.336 33.8354 50.0002 34.2496 50.0002C34.6638 50.0002 34.9996 50.336 34.9996 50.7502Z" fill="#B470EB"/>
<path d="M34.9996 54.7502C34.9996 55.1644 34.6638 55.5002 34.2496 55.5002C33.8354 55.5002 33.4996 55.1644 33.4996 54.7502C33.4996 54.336 33.8354 54.0002 34.2496 54.0002C34.6638 54.0002 34.9996 54.336 34.9996 54.7502Z" fill="#B470EB"/>
<path d="M34.9996 58.7502C34.9996 59.1644 34.6638 59.5002 34.2496 59.5002C33.8354 59.5002 33.4996 59.1644 33.4996 58.7502C33.4996 58.336 33.8354 58.0002 34.2496 58.0002C34.6638 58.0002 34.9996 58.336 34.9996 58.7502Z" fill="#B470EB"/>
<path d="M38.9996 10.7502C38.9996 11.1644 38.6638 11.5002 38.2496 11.5002C37.8354 11.5002 37.4996 11.1644 37.4996 10.7502C37.4996 10.336 37.8354 10.0002 38.2496 10.0002C38.6638 10.0002 38.9996 10.336 38.9996 10.7502Z" fill="#B470EB"/>
<path d="M38.9996 14.7502C38.9996 15.1644 38.6638 15.5002 38.2496 15.5002C37.8354 15.5002 37.4996 15.1644 37.4996 14.7502C37.4996 14.336 37.8354 14.0002 38.2496 14.0002C38.6638 14.0002 38.9996 14.336 38.9996 14.7502Z" fill="#B470EB"/>
<path d="M38.9996 18.7502C38.9996 19.1644 38.6638 19.5002 38.2496 19.5002C37.8354 19.5002 37.4996 19.1644 37.4996 18.7502C37.4996 18.336 37.8354 18.0002 38.2496 18.0002C38.6638 18.0002 38.9996 18.336 38.9996 18.7502Z" fill="#B470EB"/>
<path d="M38.9996 22.7502C38.9996 23.1644 38.6638 23.5002 38.2496 23.5002C37.8354 23.5002 37.4996 23.1644 37.4996 22.7502C37.4996 22.336 37.8354 22.0002 38.2496 22.0002C38.6638 22.0002 38.9996 22.336 38.9996 22.7502Z" fill="#B470EB"/>
<path d="M38.9996 26.7502C38.9996 27.1644 38.6638 27.5002 38.2496 27.5002C37.8354 27.5002 37.4996 27.1644 37.4996 26.7502C37.4996 26.336 37.8354 26.0002 38.2496 26.0002C38.6638 26.0002 38.9996 26.336 38.9996 26.7502Z" fill="#B470EB"/>
<path d="M38.9996 30.7502C38.9996 31.1644 38.6638 31.5002 38.2496 31.5002C37.8354 31.5002 37.4996 31.1644 37.4996 30.7502C37.4996 30.336 37.8354 30.0002 38.2496 30.0002C38.6638 30.0002 38.9996 30.336 38.9996 30.7502Z" fill="#B470EB"/>
<path d="M38.9996 34.7502C38.9996 35.1644 38.6638 35.5002 38.2496 35.5002C37.8354 35.5002 37.4996 35.1644 37.4996 34.7502C37.4996 34.336 37.8354 34.0002 38.2496 34.0002C38.6638 34.0002 38.9996 34.336 38.9996 34.7502Z" fill="#B470EB"/>
<path d="M38.9996 38.7502C38.9996 39.1644 38.6638 39.5002 38.2496 39.5002C37.8354 39.5002 37.4996 39.1644 37.4996 38.7502C37.4996 38.336 37.8354 38.0002 38.2496 38.0002C38.6638 38.0002 38.9996 38.336 38.9996 38.7502Z" fill="#B470EB"/>
<path d="M38.9996 42.7502C38.9996 43.1644 38.6638 43.5002 38.2496 43.5002C37.8354 43.5002 37.4996 43.1644 37.4996 42.7502C37.4996 42.336 37.8354 42.0002 38.2496 42.0002C38.6638 42.0002 38.9996 42.336 38.9996 42.7502Z" fill="#B470EB"/>
<path d="M38.9996 46.7502C38.9996 47.1644 38.6638 47.5002 38.2496 47.5002C37.8354 47.5002 37.4996 47.1644 37.4996 46.7502C37.4996 46.336 37.8354 46.0002 38.2496 46.0002C38.6638 46.0002 38.9996 46.336 38.9996 46.7502Z" fill="#B470EB"/>
<path d="M38.9996 50.7502C38.9996 51.1644 38.6638 51.5002 38.2496 51.5002C37.8354 51.5002 37.4996 51.1644 37.4996 50.7502C37.4996 50.336 37.8354 50.0002 38.2496 50.0002C38.6638 50.0002 38.9996 50.336 38.9996 50.7502Z" fill="#B470EB"/>
<path d="M38.9996 54.7502C38.9996 55.1644 38.6638 55.5002 38.2496 55.5002C37.8354 55.5002 37.4996 55.1644 37.4996 54.7502C37.4996 54.336 37.8354 54.0002 38.2496 54.0002C38.6638 54.0002 38.9996 54.336 38.9996 54.7502Z" fill="#B470EB"/>
<path d="M38.9996 58.7502C38.9996 59.1644 38.6638 59.5002 38.2496 59.5002C37.8354 59.5002 37.4996 59.1644 37.4996 58.7502C37.4996 58.336 37.8354 58.0002 38.2496 58.0002C38.6638 58.0002 38.9996 58.336 38.9996 58.7502Z" fill="#B470EB"/>
<path d="M42.9996 10.7502C42.9996 11.1644 42.6638 11.5002 42.2496 11.5002C41.8354 11.5002 41.4996 11.1644 41.4996 10.7502C41.4996 10.336 41.8354 10.0002 42.2496 10.0002C42.6638 10.0002 42.9996 10.336 42.9996 10.7502Z" fill="#B470EB"/>
<path d="M42.9996 14.7502C42.9996 15.1644 42.6638 15.5002 42.2496 15.5002C41.8354 15.5002 41.4996 15.1644 41.4996 14.7502C41.4996 14.336 41.8354 14.0002 42.2496 14.0002C42.6638 14.0002 42.9996 14.336 42.9996 14.7502Z" fill="#B470EB"/>
<path d="M42.9996 18.7502C42.9996 19.1644 42.6638 19.5002 42.2496 19.5002C41.8354 19.5002 41.4996 19.1644 41.4996 18.7502C41.4996 18.336 41.8354 18.0002 42.2496 18.0002C42.6638 18.0002 42.9996 18.336 42.9996 18.7502Z" fill="#B470EB"/>
<path d="M42.9996 22.7502C42.9996 23.1644 42.6638 23.5002 42.2496 23.5002C41.8354 23.5002 41.4996 23.1644 41.4996 22.7502C41.4996 22.336 41.8354 22.0002 42.2496 22.0002C42.6638 22.0002 42.9996 22.336 42.9996 22.7502Z" fill="#B470EB"/>
<path d="M42.9996 26.7502C42.9996 27.1644 42.6638 27.5002 42.2496 27.5002C41.8354 27.5002 41.4996 27.1644 41.4996 26.7502C41.4996 26.336 41.8354 26.0002 42.2496 26.0002C42.6638 26.0002 42.9996 26.336 42.9996 26.7502Z" fill="#B470EB"/>
<path d="M42.9996 30.7502C42.9996 31.1644 42.6638 31.5002 42.2496 31.5002C41.8354 31.5002 41.4996 31.1644 41.4996 30.7502C41.4996 30.336 41.8354 30.0002 42.2496 30.0002C42.6638 30.0002 42.9996 30.336 42.9996 30.7502Z" fill="#B470EB"/>
<path d="M42.9996 34.7502C42.9996 35.1644 42.6638 35.5002 42.2496 35.5002C41.8354 35.5002 41.4996 35.1644 41.4996 34.7502C41.4996 34.336 41.8354 34.0002 42.2496 34.0002C42.6638 34.0002 42.9996 34.336 42.9996 34.7502Z" fill="#B470EB"/>
<path d="M42.9996 38.7502C42.9996 39.1644 42.6638 39.5002 42.2496 39.5002C41.8354 39.5002 41.4996 39.1644 41.4996 38.7502C41.4996 38.336 41.8354 38.0002 42.2496 38.0002C42.6638 38.0002 42.9996 38.336 42.9996 38.7502Z" fill="#B470EB"/>
<path d="M42.9996 42.7502C42.9996 43.1644 42.6638 43.5002 42.2496 43.5002C41.8354 43.5002 41.4996 43.1644 41.4996 42.7502C41.4996 42.336 41.8354 42.0002 42.2496 42.0002C42.6638 42.0002 42.9996 42.336 42.9996 42.7502Z" fill="#B470EB"/>
<path d="M42.9996 46.7502C42.9996 47.1644 42.6638 47.5002 42.2496 47.5002C41.8354 47.5002 41.4996 47.1644 41.4996 46.7502C41.4996 46.336 41.8354 46.0002 42.2496 46.0002C42.6638 46.0002 42.9996 46.336 42.9996 46.7502Z" fill="#B470EB"/>
<path d="M42.9996 50.7502C42.9996 51.1644 42.6638 51.5002 42.2496 51.5002C41.8354 51.5002 41.4996 51.1644 41.4996 50.7502C41.4996 50.336 41.8354 50.0002 42.2496 50.0002C42.6638 50.0002 42.9996 50.336 42.9996 50.7502Z" fill="#B470EB"/>
<path d="M42.9996 54.7502C42.9996 55.1644 42.6638 55.5002 42.2496 55.5002C41.8354 55.5002 41.4996 55.1644 41.4996 54.7502C41.4996 54.336 41.8354 54.0002 42.2496 54.0002C42.6638 54.0002 42.9996 54.336 42.9996 54.7502Z" fill="#B470EB"/>
<path d="M42.9996 58.7502C42.9996 59.1644 42.6638 59.5002 42.2496 59.5002C41.8354 59.5002 41.4996 59.1644 41.4996 58.7502C41.4996 58.336 41.8354 58.0002 42.2496 58.0002C42.6638 58.0002 42.9996 58.336 42.9996 58.7502Z" fill="#B470EB"/>
<path d="M46.9996 10.7502C46.9996 11.1644 46.6638 11.5002 46.2496 11.5002C45.8354 11.5002 45.4996 11.1644 45.4996 10.7502C45.4996 10.336 45.8354 10.0002 46.2496 10.0002C46.6638 10.0002 46.9996 10.336 46.9996 10.7502Z" fill="#B470EB"/>
<path d="M46.9996 14.7502C46.9996 15.1644 46.6638 15.5002 46.2496 15.5002C45.8354 15.5002 45.4996 15.1644 45.4996 14.7502C45.4996 14.336 45.8354 14.0002 46.2496 14.0002C46.6638 14.0002 46.9996 14.336 46.9996 14.7502Z" fill="#B470EB"/>
<path d="M46.9996 18.7502C46.9996 19.1644 46.6638 19.5002 46.2496 19.5002C45.8354 19.5002 45.4996 19.1644 45.4996 18.7502C45.4996 18.336 45.8354 18.0002 46.2496 18.0002C46.6638 18.0002 46.9996 18.336 46.9996 18.7502Z" fill="#B470EB"/>
<path d="M46.9996 22.7502C46.9996 23.1644 46.6638 23.5002 46.2496 23.5002C45.8354 23.5002 45.4996 23.1644 45.4996 22.7502C45.4996 22.336 45.8354 22.0002 46.2496 22.0002C46.6638 22.0002 46.9996 22.336 46.9996 22.7502Z" fill="#B470EB"/>
<path d="M46.9996 26.7502C46.9996 27.1644 46.6638 27.5002 46.2496 27.5002C45.8354 27.5002 45.4996 27.1644 45.4996 26.7502C45.4996 26.336 45.8354 26.0002 46.2496 26.0002C46.6638 26.0002 46.9996 26.336 46.9996 26.7502Z" fill="#B470EB"/>
<path d="M46.9996 30.7502C46.9996 31.1644 46.6638 31.5002 46.2496 31.5002C45.8354 31.5002 45.4996 31.1644 45.4996 30.7502C45.4996 30.336 45.8354 30.0002 46.2496 30.0002C46.6638 30.0002 46.9996 30.336 46.9996 30.7502Z" fill="#B470EB"/>
<path d="M46.9996 34.7502C46.9996 35.1644 46.6638 35.5002 46.2496 35.5002C45.8354 35.5002 45.4996 35.1644 45.4996 34.7502C45.4996 34.336 45.8354 34.0002 46.2496 34.0002C46.6638 34.0002 46.9996 34.336 46.9996 34.7502Z" fill="#B470EB"/>
<path d="M46.9996 38.7502C46.9996 39.1644 46.6638 39.5002 46.2496 39.5002C45.8354 39.5002 45.4996 39.1644 45.4996 38.7502C45.4996 38.336 45.8354 38.0002 46.2496 38.0002C46.6638 38.0002 46.9996 38.336 46.9996 38.7502Z" fill="#B470EB"/>
<path d="M46.9996 42.7502C46.9996 43.1644 46.6638 43.5002 46.2496 43.5002C45.8354 43.5002 45.4996 43.1644 45.4996 42.7502C45.4996 42.336 45.8354 42.0002 46.2496 42.0002C46.6638 42.0002 46.9996 42.336 46.9996 42.7502Z" fill="#B470EB"/>
<path d="M46.9996 46.7502C46.9996 47.1644 46.6638 47.5002 46.2496 47.5002C45.8354 47.5002 45.4996 47.1644 45.4996 46.7502C45.4996 46.336 45.8354 46.0002 46.2496 46.0002C46.6638 46.0002 46.9996 46.336 46.9996 46.7502Z" fill="#B470EB"/>
<path d="M46.9996 50.7502C46.9996 51.1644 46.6638 51.5002 46.2496 51.5002C45.8354 51.5002 45.4996 51.1644 45.4996 50.7502C45.4996 50.336 45.8354 50.0002 46.2496 50.0002C46.6638 50.0002 46.9996 50.336 46.9996 50.7502Z" fill="#B470EB"/>
<path d="M46.9996 54.7502C46.9996 55.1644 46.6638 55.5002 46.2496 55.5002C45.8354 55.5002 45.4996 55.1644 45.4996 54.7502C45.4996 54.336 45.8354 54.0002 46.2496 54.0002C46.6638 54.0002 46.9996 54.336 46.9996 54.7502Z" fill="#B470EB"/>
<path d="M46.9996 58.7502C46.9996 59.1644 46.6638 59.5002 46.2496 59.5002C45.8354 59.5002 45.4996 59.1644 45.4996 58.7502C45.4996 58.336 45.8354 58.0002 46.2496 58.0002C46.6638 58.0002 46.9996 58.336 46.9996 58.7502Z" fill="#B470EB"/>
<path d="M50.9996 10.7502C50.9996 11.1644 50.6638 11.5002 50.2496 11.5002C49.8354 11.5002 49.4996 11.1644 49.4996 10.7502C49.4996 10.336 49.8354 10.0002 50.2496 10.0002C50.6638 10.0002 50.9996 10.336 50.9996 10.7502Z" fill="#B470EB"/>
<path d="M50.9996 14.7502C50.9996 15.1644 50.6638 15.5002 50.2496 15.5002C49.8354 15.5002 49.4996 15.1644 49.4996 14.7502C49.4996 14.336 49.8354 14.0002 50.2496 14.0002C50.6638 14.0002 50.9996 14.336 50.9996 14.7502Z" fill="#B470EB"/>
<path d="M50.9996 18.7502C50.9996 19.1644 50.6638 19.5002 50.2496 19.5002C49.8354 19.5002 49.4996 19.1644 49.4996 18.7502C49.4996 18.336 49.8354 18.0002 50.2496 18.0002C50.6638 18.0002 50.9996 18.336 50.9996 18.7502Z" fill="#B470EB"/>
<path d="M50.9996 22.7502C50.9996 23.1644 50.6638 23.5002 50.2496 23.5002C49.8354 23.5002 49.4996 23.1644 49.4996 22.7502C49.4996 22.336 49.8354 22.0002 50.2496 22.0002C50.6638 22.0002 50.9996 22.336 50.9996 22.7502Z" fill="#B470EB"/>
<path d="M50.9996 26.7502C50.9996 27.1644 50.6638 27.5002 50.2496 27.5002C49.8354 27.5002 49.4996 27.1644 49.4996 26.7502C49.4996 26.336 49.8354 26.0002 50.2496 26.0002C50.6638 26.0002 50.9996 26.336 50.9996 26.7502Z" fill="#B470EB"/>
<path d="M50.9996 30.7502C50.9996 31.1644 50.6638 31.5002 50.2496 31.5002C49.8354 31.5002 49.4996 31.1644 49.4996 30.7502C49.4996 30.336 49.8354 30.0002 50.2496 30.0002C50.6638 30.0002 50.9996 30.336 50.9996 30.7502Z" fill="#B470EB"/>
<path d="M50.9996 34.7502C50.9996 35.1644 50.6638 35.5002 50.2496 35.5002C49.8354 35.5002 49.4996 35.1644 49.4996 34.7502C49.4996 34.336 49.8354 34.0002 50.2496 34.0002C50.6638 34.0002 50.9996 34.336 50.9996 34.7502Z" fill="#B470EB"/>
<path d="M50.9996 38.7502C50.9996 39.1644 50.6638 39.5002 50.2496 39.5002C49.8354 39.5002 49.4996 39.1644 49.4996 38.7502C49.4996 38.336 49.8354 38.0002 50.2496 38.0002C50.6638 38.0002 50.9996 38.336 50.9996 38.7502Z" fill="#B470EB"/>
<path d="M50.9996 42.7502C50.9996 43.1644 50.6638 43.5002 50.2496 43.5002C49.8354 43.5002 49.4996 43.1644 49.4996 42.7502C49.4996 42.336 49.8354 42.0002 50.2496 42.0002C50.6638 42.0002 50.9996 42.336 50.9996 42.7502Z" fill="#B470EB"/>
<path d="M50.9996 46.7502C50.9996 47.1644 50.6638 47.5002 50.2496 47.5002C49.8354 47.5002 49.4996 47.1644 49.4996 46.7502C49.4996 46.336 49.8354 46.0002 50.2496 46.0002C50.6638 46.0002 50.9996 46.336 50.9996 46.7502Z" fill="#B470EB"/>
<path d="M50.9996 50.7502C50.9996 51.1644 50.6638 51.5002 50.2496 51.5002C49.8354 51.5002 49.4996 51.1644 49.4996 50.7502C49.4996 50.336 49.8354 50.0002 50.2496 50.0002C50.6638 50.0002 50.9996 50.336 50.9996 50.7502Z" fill="#B470EB"/>
<path d="M50.9996 54.7502C50.9996 55.1644 50.6638 55.5002 50.2496 55.5002C49.8354 55.5002 49.4996 55.1644 49.4996 54.7502C49.4996 54.336 49.8354 54.0002 50.2496 54.0002C50.6638 54.0002 50.9996 54.336 50.9996 54.7502Z" fill="#B470EB"/>
<path d="M50.9996 58.7502C50.9996 59.1644 50.6638 59.5002 50.2496 59.5002C49.8354 59.5002 49.4996 59.1644 49.4996 58.7502C49.4996 58.336 49.8354 58.0002 50.2496 58.0002C50.6638 58.0002 50.9996 58.336 50.9996 58.7502Z" fill="#B470EB"/>
<path d="M54.9996 10.7502C54.9996 11.1644 54.6638 11.5002 54.2496 11.5002C53.8354 11.5002 53.4996 11.1644 53.4996 10.7502C53.4996 10.336 53.8354 10.0002 54.2496 10.0002C54.6638 10.0002 54.9996 10.336 54.9996 10.7502Z" fill="#B470EB"/>
<path d="M54.9996 14.7502C54.9996 15.1644 54.6638 15.5002 54.2496 15.5002C53.8354 15.5002 53.4996 15.1644 53.4996 14.7502C53.4996 14.336 53.8354 14.0002 54.2496 14.0002C54.6638 14.0002 54.9996 14.336 54.9996 14.7502Z" fill="#B470EB"/>
<path d="M54.9996 18.7502C54.9996 19.1644 54.6638 19.5002 54.2496 19.5002C53.8354 19.5002 53.4996 19.1644 53.4996 18.7502C53.4996 18.336 53.8354 18.0002 54.2496 18.0002C54.6638 18.0002 54.9996 18.336 54.9996 18.7502Z" fill="#B470EB"/>
<path d="M54.9996 22.7502C54.9996 23.1644 54.6638 23.5002 54.2496 23.5002C53.8354 23.5002 53.4996 23.1644 53.4996 22.7502C53.4996 22.336 53.8354 22.0002 54.2496 22.0002C54.6638 22.0002 54.9996 22.336 54.9996 22.7502Z" fill="#B470EB"/>
<path d="M54.9996 26.7502C54.9996 27.1644 54.6638 27.5002 54.2496 27.5002C53.8354 27.5002 53.4996 27.1644 53.4996 26.7502C53.4996 26.336 53.8354 26.0002 54.2496 26.0002C54.6638 26.0002 54.9996 26.336 54.9996 26.7502Z" fill="#B470EB"/>
<path d="M54.9996 30.7502C54.9996 31.1644 54.6638 31.5002 54.2496 31.5002C53.8354 31.5002 53.4996 31.1644 53.4996 30.7502C53.4996 30.336 53.8354 30.0002 54.2496 30.0002C54.6638 30.0002 54.9996 30.336 54.9996 30.7502Z" fill="#B470EB"/>
<path d="M54.9996 34.7502C54.9996 35.1644 54.6638 35.5002 54.2496 35.5002C53.8354 35.5002 53.4996 35.1644 53.4996 34.7502C53.4996 34.336 53.8354 34.0002 54.2496 34.0002C54.6638 34.0002 54.9996 34.336 54.9996 34.7502Z" fill="#B470EB"/>
<path d="M54.9996 38.7502C54.9996 39.1644 54.6638 39.5002 54.2496 39.5002C53.8354 39.5002 53.4996 39.1644 53.4996 38.7502C53.4996 38.336 53.8354 38.0002 54.2496 38.0002C54.6638 38.0002 54.9996 38.336 54.9996 38.7502Z" fill="#B470EB"/>
<path d="M54.9996 42.7502C54.9996 43.1644 54.6638 43.5002 54.2496 43.5002C53.8354 43.5002 53.4996 43.1644 53.4996 42.7502C53.4996 42.336 53.8354 42.0002 54.2496 42.0002C54.6638 42.0002 54.9996 42.336 54.9996 42.7502Z" fill="#B470EB"/>
<path d="M54.9996 46.7502C54.9996 47.1644 54.6638 47.5002 54.2496 47.5002C53.8354 47.5002 53.4996 47.1644 53.4996 46.7502C53.4996 46.336 53.8354 46.0002 54.2496 46.0002C54.6638 46.0002 54.9996 46.336 54.9996 46.7502Z" fill="#B470EB"/>
<path d="M54.9996 50.7502C54.9996 51.1644 54.6638 51.5002 54.2496 51.5002C53.8354 51.5002 53.4996 51.1644 53.4996 50.7502C53.4996 50.336 53.8354 50.0002 54.2496 50.0002C54.6638 50.0002 54.9996 50.336 54.9996 50.7502Z" fill="#B470EB"/>
<path d="M54.9996 54.7502C54.9996 55.1644 54.6638 55.5002 54.2496 55.5002C53.8354 55.5002 53.4996 55.1644 53.4996 54.7502C53.4996 54.336 53.8354 54.0002 54.2496 54.0002C54.6638 54.0002 54.9996 54.336 54.9996 54.7502Z" fill="#B470EB"/>
<path d="M54.9996 58.7502C54.9996 59.1644 54.6638 59.5002 54.2496 59.5002C53.8354 59.5002 53.4996 59.1644 53.4996 58.7502C53.4996 58.336 53.8354 58.0002 54.2496 58.0002C54.6638 58.0002 54.9996 58.336 54.9996 58.7502Z" fill="#B470EB"/>
</mask>
<g mask="url(#mask0_2_20884)">
<path d="M47.8933 25.4155C49.1849 28.8542 49.3595 32.8315 48.3915 36.766C47.4236 40.7004 45.3638 44.3856 42.5135 47.2827C39.6631 50.1799 36.1716 52.137 32.5495 52.8679C28.9274 53.5989 25.3646 53.0653 22.382 51.3453C19.3995 49.6253 17.1536 46.8089 15.9728 43.3081C14.7919 39.8073 14.738 35.8056 15.819 31.8881C16.9 27.9706 19.0591 24.3427 21.9807 21.5349C24.9023 18.7271 28.4332 16.8867 32.057 16.2827L32.0272 34.6262L47.8933 25.4155Z" fill="url(#paint1_linear_2_20884)"/>
</g>
<path d="M47.8932 25.4152C49.1848 28.8539 49.3594 32.8312 48.3915 36.7657C47.4235 40.7001 45.3638 44.3853 42.5134 47.2825C39.6631 50.1796 36.1715 52.1367 32.5494 52.8677C28.9273 53.5986 25.3645 53.0651 22.3819 51.345C19.3994 49.625 17.1535 46.8087 15.9727 43.3079C14.7918 39.8071 14.738 35.8053 15.819 31.8878C16.9 27.9703 19.0591 24.3424 21.9807 21.5346C24.9023 18.7268 28.4331 16.8864 32.057 16.2824M47.8932 25.4152L32.0272 34.6259L32.057 16.2824M47.8932 25.4152L45.5006 23.9998M32.057 16.2824L25.5001 11.9996" stroke="black" stroke-width="1.2"/>
<path d="M15.0004 46.5002L22.5004 51.5002" stroke="black" stroke-width="1.2"/>
<path d="M55.75 15.75C55.75 16.1642 55.4142 16.5 55 16.5C54.5858 16.5 54.25 16.1642 54.25 15.75C54.25 15.3358 54.5858 15 55 15C55.4142 15 55.75 15.3358 55.75 15.75Z" fill="#B470EB"/>
<path d="M5.75 15.75C5.75 16.1642 5.41421 16.5 5 16.5C4.58579 16.5 4.25 16.1642 4.25 15.75C4.25 15.3358 4.58579 15 5 15C5.41421 15 5.75 15.3358 5.75 15.75Z" fill="#B470EB"/>
<path d="M30.75 1C30.75 1.41421 30.4142 1.75 30 1.75C29.5858 1.75 29.25 1.41421 29.25 1C29.25 0.585786 29.5858 0.25 30 0.25C30.4142 0.25 30.75 0.585786 30.75 1Z" fill="#B470EB"/>
<path d="M30.75 59C30.75 59.4142 30.4142 59.75 30 59.75C29.5858 59.75 29.25 59.4142 29.25 59C29.25 58.5858 29.5858 58.25 30 58.25C30.4142 58.25 30.75 58.5858 30.75 59Z" fill="#B470EB"/>
<path d="M55.75 44.25C55.75 44.6642 55.4142 45 55 45C54.5858 45 54.25 44.6642 54.25 44.25C54.25 43.8358 54.5858 43.5 55 43.5C55.4142 43.5 55.75 43.8358 55.75 44.25Z" fill="#B470EB"/>
<path d="M5.75 44.25C5.75 44.6642 5.41421 45 5 45C4.58579 45 4.25 44.6642 4.25 44.25C4.25 43.8358 4.58579 43.5 5 43.5C5.41421 43.5 5.75 43.8358 5.75 44.25Z" fill="#B470EB"/>
</g>
</g>
<defs>
<radialGradient id="paint0_radial_2_20884" cx="0" cy="0" r="1" gradientUnits="userSpaceOnUse" gradientTransform="translate(29.9998 30.0002) rotate(90) scale(37.6015 32.4151)">
<stop stop-color="white"/>
<stop offset="1" stop-color="white" stop-opacity="0"/>
</radialGradient>
<linearGradient id="paint1_linear_2_20884" x1="55.1982" y1="45.689" x2="9.04498" y2="26.4752" gradientUnits="userSpaceOnUse">
<stop stop-color="#B470EB" stop-opacity="0"/>
<stop offset="1" stop-color="#B470EB"/>
</linearGradient>
<clipPath id="clip0_2_20884">
<rect width="60" height="60" fill="white"/>
</clipPath>
<clipPath id="clip1_2_20884">
<rect width="60" height="60" fill="white"/>
</clipPath>
</defs>
</svg>
