<svg width="60" height="60" viewBox="0 0 60 60" fill="none" xmlns="http://www.w3.org/2000/svg">
<g clip-path="url(#clip0_2_21067)">
<path d="M29.9998 1.00024V59.0002M29.9998 1.00024L42.4998 8.3924L54.9998 15.7846M29.9998 1.00024L17.4998 8.3924L4.99976 15.7846M29.9998 59.0002L17.4998 51.6188L4.99976 44.2374M29.9998 59.0002L42.4998 51.6081L54.9998 44.2159M54.9998 44.2159L17.4998 22.8924L4.99976 15.7846M54.9998 44.2159V30.0002V15.7846M54.9998 15.7846L42.4998 22.8978L17.4998 37.1242L4.99976 44.2374M4.99976 15.7846V30.011V44.2374" stroke="#B470EB" stroke-opacity="0.25"/>
<path d="M29.9998 1.00024V59.0002M29.9998 1.00024L42.4998 8.3924L54.9998 15.7846M29.9998 1.00024L17.4998 8.3924L4.99976 15.7846M29.9998 59.0002L17.4998 51.6188L4.99976 44.2374M29.9998 59.0002L42.4998 51.6081L54.9998 44.2159M54.9998 44.2159L17.4998 22.8924L4.99976 15.7846M54.9998 44.2159V30.0002V15.7846M54.9998 15.7846L42.4998 22.8978L17.4998 37.1242L4.99976 44.2374M4.99976 15.7846V30.011V44.2374" stroke="url(#paint0_radial_2_21067)"/>
<path d="M55.75 15.75C55.75 16.1642 55.4142 16.5 55 16.5C54.5858 16.5 54.25 16.1642 54.25 15.75C54.25 15.3358 54.5858 15 55 15C55.4142 15 55.75 15.3358 55.75 15.75Z" fill="#B470EB"/>
<path d="M5.75 15.75C5.75 16.1642 5.41421 16.5 5 16.5C4.58579 16.5 4.25 16.1642 4.25 15.75C4.25 15.3358 4.58579 15 5 15C5.41421 15 5.75 15.3358 5.75 15.75Z" fill="#B470EB"/>
<path d="M30.75 1C30.75 1.41421 30.4142 1.75 30 1.75C29.5858 1.75 29.25 1.41421 29.25 1C29.25 0.585786 29.5858 0.25 30 0.25C30.4142 0.25 30.75 0.585786 30.75 1Z" fill="#B470EB"/>
<path d="M30.75 59C30.75 59.4142 30.4142 59.75 30 59.75C29.5858 59.75 29.25 59.4142 29.25 59C29.25 58.5858 29.5858 58.25 30 58.25C30.4142 58.25 30.75 58.5858 30.75 59Z" fill="#B470EB"/>
<path d="M55.75 44.25C55.75 44.6642 55.4142 45 55 45C54.5858 45 54.25 44.6642 54.25 44.25C54.25 43.8358 54.5858 43.5 55 43.5C55.4142 43.5 55.75 43.8358 55.75 44.25Z" fill="#B470EB"/>
<path d="M5.75 44.25C5.75 44.6642 5.41421 45 5 45C4.58579 45 4.25 44.6642 4.25 44.25C4.25 43.8358 4.58579 43.5 5 43.5C5.41421 43.5 5.75 43.8358 5.75 44.25Z" fill="#B470EB"/>
<path d="M21.0938 49.4998C20.7876 49.3506 17.232 47.4569 16.9335 47.2846C8.68216 42.5206 6.61804 30.6481 12.3232 20.7665C18.0283 10.885 29.3423 6.73628 37.5936 11.5002L40.5939 13.25L42.094 14.125" stroke="black" stroke-width="1.2" stroke-linecap="round"/>
<path d="M22.0211 50.1157C13.7698 45.3518 11.701 33.4874 17.4003 23.6158C23.0997 13.7443 34.4089 9.60371 42.6603 14.3676C50.9116 19.1315 52.9804 30.996 47.2811 40.8675C41.5817 50.7391 30.2725 54.8796 22.0211 50.1157Z" stroke="black" stroke-width="1.2"/>
<path d="M32.5 12.8998L32.5 15.4863M32.5 51.4229L32.5 48.8957M14.6858 32.535L17.0798 32.535M49.9369 32.5351L47.5959 32.5351" stroke="black" stroke-width="1.2"/>
<path d="M32.5004 20.7942L32.5025 24.7053L32.5069 32.5273L38.0025 38.2927L39.3764 39.734" stroke="black" stroke-width="1.2"/>
</g>
<defs>
<radialGradient id="paint0_radial_2_21067" cx="0" cy="0" r="1" gradientUnits="userSpaceOnUse" gradientTransform="translate(29.9998 30.0002) rotate(90) scale(37.6015 32.4151)">
<stop stop-color="white"/>
<stop offset="1" stop-color="white" stop-opacity="0"/>
</radialGradient>
<clipPath id="clip0_2_21067">
<rect width="60" height="60" fill="white"/>
</clipPath>
</defs>
</svg>
