<svg width="24" height="24" viewBox="0 0 24 24" fill="none" xmlns="http://www.w3.org/2000/svg">
<rect width="24" height="24" rx="6" fill="#B470EB" fill-opacity="0.12"/>
<path d="M10.6625 13.5063L10.1187 14.1188C9.69986 14.537 9.16641 14.8216 8.58583 14.9367C8.00524 15.0518 7.40356 14.9922 6.85683 14.7655C6.3101 14.5387 5.84285 14.155 5.51412 13.6628C5.1854 13.1706 5.00995 12.592 5.00995 12.0001C5.00995 11.4082 5.1854 10.8296 5.51412 10.3374C5.84285 9.8452 6.3101 9.46148 6.85683 9.23474C7.40356 9.00799 8.00524 8.9484 8.58583 9.06349C9.16641 9.17858 9.69986 9.46319 10.1187 9.88135L13.8812 14.1188C14.3001 14.537 14.8336 14.8216 15.4142 14.9367C15.9948 15.0518 16.5964 14.9922 17.1432 14.7655C17.6899 14.5387 18.1571 14.155 18.4859 13.6628C18.8146 13.1706 18.99 12.592 18.99 12.0001C18.99 11.4082 18.8146 10.8296 18.4859 10.3374C18.1571 9.8452 17.6899 9.46148 17.1432 9.23474C16.5964 9.00799 15.9948 8.9484 15.4142 9.06349C14.8336 9.17858 14.3001 9.46319 13.8812 9.88135L13.3375 10.4938" stroke="#8230C5" stroke-width="1.2" stroke-linecap="round" stroke-linejoin="round"/>
</svg>
