<svg width="135" height="52" viewBox="0 0 135 52" fill="none" xmlns="http://www.w3.org/2000/svg">
<g clip-path="url(#clip0_2_44911)">
<g clip-path="url(#clip1_2_44911)">
<path d="M0.13511 26.4099L0.16886 46.831H4.44386H8.71886L8.75261 43.9363L8.77511 41.0302H7.87511H6.97511V23.5151V6H3.54386H0.11261L0.13511 26.4099Z" fill="#72707E"/>
<path d="M10.0126 26.4437V46.8874H14.3439H18.6751V43.9588V41.0302H17.8314H16.9876V35.1731V29.3159H17.8314H18.6751V26.4437V23.5714H17.8314H16.9876V17.7143V11.8571H17.8314H18.6751V8.92857V6H14.3439H10.0126V26.4437Z" fill="#72707E"/>
<path d="M26.1001 6.06758C22.7813 6.47308 20.9138 7.91484 20.1601 10.6407C19.9801 11.294 19.9688 12.4429 19.9688 26.331C19.9688 42.7761 19.9238 41.8187 20.6663 43.3843C21.3638 44.8599 22.5676 45.7948 24.4688 46.3467C25.2788 46.5832 25.6051 46.6058 27.6751 46.6058C29.7451 46.6058 30.0713 46.5832 30.8701 46.3467C32.5801 45.8511 33.6826 45.1077 34.4026 43.9926C34.9088 43.2041 35.3251 41.8299 35.3926 40.7712C35.4263 40.2643 35.4601 36.1868 35.4713 31.7039L35.4938 23.5714H31.5901H27.6751V26.3874V29.2033H28.1251H28.5751V35.0154V40.8275L28.2488 41.1541C27.8326 41.5709 27.5176 41.5709 27.1013 41.1541L26.7751 40.8275V26.4437C26.7751 14.0536 26.7976 12.0261 26.9438 11.7558C27.2138 11.2151 27.8551 11.125 28.2938 11.5756L28.5751 11.8459V17.0948V22.3324H32.0401H35.4938L35.4376 16.7343C35.3701 10.5618 35.3588 10.5055 34.6276 9.13132C33.8963 7.75714 32.5351 6.78846 30.7013 6.33792C29.7788 6.11264 27.0563 5.95495 26.1001 6.06758Z" fill="#72707E"/>
<path d="M36.6751 26.4437V46.8874L41.0401 46.8648L45.3939 46.831L45.4276 43.9363L45.4501 41.0302H44.5501H43.6501V35.1731V29.3159H44.5501H45.4501V26.4437V23.5827L44.5839 23.5489L43.7064 23.5151L43.6726 17.6918L43.6501 11.8684L44.5164 11.8346L45.3939 11.8008L45.4276 8.89478L45.4501 6H41.0626H36.6751V26.4437Z" fill="#72707E"/>
<path d="M46.5976 26.4099L46.6314 46.831L50.0964 46.8648L53.5501 46.8874V29.0907V11.294H53.9439C54.1914 11.294 54.4276 11.3841 54.5626 11.5192C54.7876 11.7445 54.7876 11.8909 54.7876 29.3159V46.8874H58.2751H61.7626V29.7214C61.7626 18.1085 61.7289 12.2626 61.6389 11.6769C61.4139 10.0099 60.6714 8.46676 59.6926 7.62198C59.4451 7.39671 58.8714 7.03626 58.4439 6.83352C56.9814 6.1239 56.5989 6.07885 51.3226 6.03379L46.5751 5.97747L46.5976 26.4099Z" fill="#72707E"/>
<path d="M63.0001 26.4324V46.8874H66.9714C70.9876 46.8874 72.5514 46.7973 73.7214 46.4931C75.9264 45.9299 77.2651 44.5107 77.8164 42.1904C78.0076 41.3681 78.0189 40.422 78.0189 26.331C78.0189 12.0261 78.0076 11.3165 77.8051 10.5618C77.4789 9.33407 76.9951 8.44423 76.2751 7.75714C75.5101 7.025 74.7789 6.64203 73.5526 6.31538C72.6864 6.09011 72.2701 6.07885 67.8151 6.03379L63.0001 5.97747V26.4324ZM70.9876 11.508C71.0664 11.6544 71.1001 16.5316 71.1001 26.4887V41.2442L70.8526 41.4132C70.7176 41.5146 70.4589 41.5934 70.2901 41.5934H69.9751V26.4437V11.294H70.4251C70.7514 11.294 70.8976 11.3503 70.9876 11.508Z" fill="#72707E"/>
<path d="M80.4376 6.29286C80.4376 6.88984 79.0988 44.4995 79.0313 45.6821L78.9751 46.8874H82.3501H85.7251V46.403C85.7251 46.144 85.7588 45.5019 85.7813 44.9725C85.8151 44.4431 85.8826 41.9088 85.9501 39.3407C86.0176 36.7725 86.0851 34.0354 86.1188 33.2582C86.1413 32.481 86.1976 30.6789 86.2426 29.2596C86.2763 27.8291 86.3326 26.6464 86.3663 26.6126C86.4788 26.5 86.8613 27.1646 87.0863 27.8517C87.4013 28.8767 87.6151 30.5324 87.6938 32.6387C87.8401 36.7951 87.8626 37.7525 87.9301 40.9176C87.9751 42.7423 88.0201 44.3192 88.0426 44.4093C88.0538 44.4995 88.0763 45.0964 88.0763 45.7272L88.0876 46.8874H91.4738H94.8601L94.7926 45.333C94.7476 44.4882 94.4438 35.9615 94.1063 26.3874C93.7688 16.8132 93.4651 8.30907 93.4201 7.48682L93.3526 6H86.8951H80.4376V6.29286ZM87.1201 12.2176C87.1538 12.7357 87.2101 14.3915 87.2438 15.9121C87.2776 17.4327 87.3338 19.4602 87.3676 20.4176C87.4688 23.042 87.1651 25.3398 86.6251 26.0495C86.5126 26.2071 86.3888 26.2973 86.3551 26.2747C86.3326 26.2409 86.3438 24.7203 86.4001 22.8956C86.4563 21.0709 86.5238 18.4577 86.5688 17.0948C86.6813 12.4091 86.7488 11.294 86.9063 11.294C87.0076 11.294 87.0751 11.5643 87.1201 12.2176Z" fill="#72707E"/>
<path d="M95.8501 26.4437V46.8874H99.3376H102.825V36.75C102.825 30.7239 102.87 26.6126 102.926 26.6126C103.106 26.6126 103.5 27.5588 103.669 28.381C103.984 29.8679 104.063 32.222 104.063 39.5434V46.8874L107.528 46.8648L110.981 46.831V39.3407C110.981 32.4698 110.959 31.7714 110.779 30.9492C110.239 28.6289 108.979 27.1533 107.111 26.669C106.436 26.5 106.414 26.3198 107.033 26.2297C107.809 26.1058 108.833 25.5426 109.395 24.9118C110.014 24.2247 110.396 23.4701 110.723 22.2761C110.959 21.4088 110.97 21.1835 110.981 16.419C110.981 12.0712 110.959 11.3728 110.79 10.697C110.115 8.08379 108.326 6.51814 105.559 6.11264C105.143 6.05632 102.78 6 100.328 6H95.8501V26.4437ZM103.905 11.5756C104.074 11.8346 104.085 12.3865 104.029 17.3538C103.984 21.6341 103.939 23.0871 103.793 23.9544C103.613 25.0695 103.174 26.2747 102.949 26.2747C102.859 26.2747 102.825 23.9657 102.825 18.7843V11.294H103.275C103.624 11.294 103.759 11.3503 103.905 11.5756Z" fill="#72707E"/>
<path d="M111.263 6.14643C111.263 6.23654 112.253 13.2426 113.456 21.7354L115.65 37.178V41.9764V46.7747H119.138H122.625V41.9651V37.1555L124.819 21.7016C126.023 13.2088 127.013 6.19148 127.013 6.1239C127.013 6.03379 126.045 6 123.66 6H120.308L119.824 16.1599C119.554 21.758 119.295 26.3761 119.239 26.4324C119.171 26.5 119.104 26.5 119.036 26.4324C118.98 26.3761 118.71 21.7692 118.451 16.1937L117.956 6.05632L114.615 6.02253C111.87 6 111.263 6.02253 111.263 6.14643Z" fill="#72707E"/>
<path d="M127.71 9.82968L127.744 13.6593H128.734H129.713V12.1387V10.6181H130.894H132.075V9.82968V9.04122H130.894H129.713V8.36539V7.70083L130.871 7.66704L132.019 7.63325L132.053 6.811L132.086 6.00001H129.881H127.688L127.71 9.82968Z" fill="#72707E"/>
<path d="M132.638 6.11264C132.638 6.16896 132.716 6.22527 132.806 6.22527C132.93 6.22527 132.975 6.34918 132.975 6.67582C132.975 6.92363 133.031 7.12637 133.088 7.12637C133.155 7.12637 133.2 6.92363 133.2 6.67582C133.2 6.36044 133.245 6.22527 133.358 6.22527C133.448 6.22527 133.56 6.16896 133.594 6.11264C133.639 6.04505 133.459 6 133.155 6C132.874 6 132.638 6.04505 132.638 6.11264Z" fill="#72707E"/>
<path d="M133.763 6.56319C133.763 7.17143 133.976 7.36291 133.999 6.75467L134.01 6.39423L134.123 6.75467C134.19 6.95742 134.303 7.12637 134.381 7.12637C134.46 7.12637 134.561 6.95742 134.618 6.75467L134.708 6.39423L134.741 6.75467C134.809 7.34038 135 7.18269 135 6.55192C135 6.07885 134.966 5.98874 134.809 6.02253C134.708 6.04505 134.561 6.23654 134.494 6.45055L134.359 6.84478L134.224 6.41676C134.01 5.79725 133.763 5.86483 133.763 6.56319Z" fill="#72707E"/>
<path d="M128.891 14.3802C128.351 14.583 128.205 14.7069 127.958 15.2137C127.778 15.5742 127.755 15.9459 127.766 18.086C127.789 20.947 127.845 21.1948 128.7 21.6341C129.128 21.8593 129.341 21.8931 130.073 21.8593C131.04 21.8256 131.4 21.6341 131.794 20.9695C131.996 20.6203 132.019 20.3838 132.019 18.0522C132.019 15.7093 131.996 15.4841 131.794 15.1236C131.333 14.3352 129.994 13.9973 128.891 14.3802ZM130.028 18.086C129.983 20.9132 129.78 20.9695 129.735 18.1648C129.701 16.0473 129.746 15.6756 129.949 15.8783C130.016 15.9459 130.039 16.8132 130.028 18.086Z" fill="#72707E"/>
<path d="M129.206 22.6365C128.621 22.7942 128.228 23.0646 128.025 23.4701C127.823 23.8418 127.8 24.1571 127.8 26.3874C127.789 28.5725 127.811 28.9217 127.991 29.2821C128.351 30.003 128.678 30.1607 129.881 30.1607C131.063 30.1607 131.366 30.0256 131.794 29.3047C131.996 28.9555 132.019 28.719 132.019 26.4437C132.019 24.1909 131.996 23.9206 131.794 23.5151C131.67 23.2673 131.4 22.9745 131.198 22.8618C130.826 22.6478 129.656 22.5126 129.206 22.6365ZM130.05 26.455C130.05 28.167 130.016 28.6514 129.915 28.6176C129.803 28.5725 129.758 28.0093 129.735 26.4099C129.713 24.5401 129.735 24.2473 129.881 24.2473C130.028 24.2473 130.05 24.5514 130.05 26.455Z" fill="#72707E"/>
<path d="M127.744 34.7788V38.4396H129.195C130.433 38.4396 130.725 38.4058 131.13 38.2143C131.951 37.8088 132.019 37.5385 132.019 34.7788C132.019 32.6725 131.996 32.3684 131.805 31.9742C131.456 31.2871 130.973 31.1181 129.206 31.1181H127.744V34.7788ZM130.05 34.7788C130.05 36.6599 130.028 36.9753 129.881 36.9753C129.735 36.9753 129.713 36.6599 129.713 34.7788C129.713 32.8978 129.735 32.5824 129.881 32.5824C130.028 32.5824 130.05 32.8978 130.05 34.7788Z" fill="#72707E"/>
<path d="M128.711 39.5321C128.498 39.6448 128.228 39.8701 128.115 40.0277C127.665 40.636 127.676 42.1904 128.126 42.8212C128.261 43.0014 128.621 43.3168 128.948 43.5195C129.926 44.1277 130.05 44.2742 130.05 44.8261C130.05 45.1865 130.005 45.3104 129.881 45.3104C129.758 45.3104 129.713 45.1865 129.713 44.8599V44.4093H128.723H127.744L127.778 44.9387C127.823 45.7723 127.89 45.9525 128.25 46.3692C128.666 46.8423 129.454 47.0676 130.309 46.9549C131.445 46.7973 131.929 46.2453 132.03 44.95C132.098 43.9363 131.828 43.2266 131.198 42.7761C129.735 41.7398 129.769 41.7736 129.769 41.3681C129.769 41.1654 129.836 40.9739 129.915 40.9401C130.005 40.9176 130.05 41.0302 130.05 41.3118V41.7173L131.04 41.6835L132.019 41.6497L131.985 41.0978C131.951 40.467 131.715 39.9827 131.254 39.6335C130.804 39.2956 129.263 39.2393 128.711 39.5321Z" fill="#72707E"/>
</g>
</g>
<defs>
<clipPath id="clip0_2_44911">
<rect width="135" height="52" fill="white"/>
</clipPath>
<clipPath id="clip1_2_44911">
<rect width="135" height="41" fill="white" transform="translate(0.00012207 6)"/>
</clipPath>
</defs>
</svg>
