<svg width="24" height="24" viewBox="0 0 24 24" fill="none" xmlns="http://www.w3.org/2000/svg">
<path d="M16.504 2.25H7.5C4.60079 2.25 2.25 4.60079 2.25 7.5V16.504C2.25 19.4012 4.59879 21.75 7.496 21.75H16.504C19.401 21.75 21.75 19.4014 21.75 16.505V7.496C21.75 4.59879 19.4012 2.25 16.504 2.25Z" fill="black"/>
<path d="M8.12 10.3501C8.49969 10.3501 8.81349 10.6323 8.86315 10.9983L8.87 11.1001V16.5001C8.87 16.9143 8.53421 17.2501 8.12 17.2501C7.7403 17.2501 7.4265 16.9679 7.37684 16.6019L7.37 16.5001V11.1001C7.37 10.6859 7.70578 10.3501 8.12 10.3501Z" fill="#F0F4FA"/>
<path d="M13.969 10.3499C15.567 10.3499 16.8727 11.5984 16.9639 13.1735L16.969 13.3499V16.4999C16.969 16.9141 16.6332 17.2499 16.219 17.2499C15.8393 17.2499 15.5255 16.9677 15.4759 16.6016L15.469 16.4999V13.3499C15.469 12.5211 14.7978 11.8499 13.969 11.8499C13.189 11.8499 12.5485 12.4444 12.4759 13.2053L12.469 13.3499V16.4999C12.469 16.9141 12.1332 17.2499 11.719 17.2499C11.3393 17.2499 11.0255 16.9677 10.9759 16.6016L10.969 16.4999V13.3499C10.969 11.6926 12.3118 10.3499 13.969 10.3499Z" fill="#F0F4FA"/>
<path d="M8.11801 7.08789L8.23171 7.09443C8.71667 7.15056 9.09401 7.56141 9.09401 8.06289C9.09401 8.60111 8.65722 9.03789 8.119 9.03789C7.58079 9.03789 7.14401 8.6011 7.14403 8.06894C7.13998 7.56635 7.51774 7.15124 8.00399 7.0945L8.11801 7.08789Z" fill="#F0F4FA"/>
</svg>
