<svg width="24" height="24" viewBox="0 0 24 24" fill="none" xmlns="http://www.w3.org/2000/svg">
<path d="M17 3.75H7C4.37665 3.75 2.25 5.87665 2.25 8.5V15.5C2.25 18.1234 4.37665 20.25 7 20.25H17C19.6234 20.25 21.75 18.1234 21.75 15.5V8.5C21.75 5.87665 19.6234 3.75 17 3.75Z" fill="black"/>
<path d="M6.31251 8.68408C6.46426 8.33603 6.84831 8.16115 7.20373 8.26194L7.29975 8.29634L11.5044 10.1296C11.7764 10.2482 12.0802 10.2655 12.3615 10.1815L12.5001 10.1311L16.7023 8.31405C17.0825 8.14966 17.524 8.3246 17.6884 8.70479C17.8391 9.0533 17.7047 9.45331 17.3884 9.64418L17.2977 9.69085L13.0954 11.5079C12.4599 11.7827 11.7465 11.8067 11.0975 11.5801L10.9049 11.5046L6.70025 9.67133C6.32056 9.50578 6.14696 9.06377 6.31251 8.68408Z" fill="#D8DCE1"/>
</svg>
