<svg width="28" height="20" viewBox="0 0 28 20" fill="none" xmlns="http://www.w3.org/2000/svg">
<path d="M28 9.45289C28 4.25532 21.7353 0 14 0C6.26471 0 0 4.25532 0 9.45289V10C0 15.5319 5.47059 20 14 20C22.5588 20 28 15.5319 28 10V9.45289Z" fill="#646464"/>
<path d="M27.5 9.45265C27.5 14.3463 21.4706 18.328 14.0589 18.328C6.64709 18.328 0.617676 14.3463 0.617676 9.45265C0.617676 4.55903 6.64709 0.577271 14.0589 0.577271C21.4706 0.577271 27.5 4.55903 27.5 9.45265Z" fill="#F2E150"/>
<path d="M9.58848 6.65598C9.58848 6.65598 9.44142 6.80796 9.52966 6.92954C9.73554 7.20309 10.3826 7.35507 11.0591 7.20309C11.4414 7.11191 11.9708 6.68638 12.4414 6.29124C12.9708 5.86571 13.5002 5.40978 14.0297 5.2578C14.5885 5.07543 14.9414 5.16662 15.1767 5.22741C15.4414 5.31859 15.7355 5.50096 16.2355 5.86571C17.1473 6.56479 20.8532 9.90826 21.5002 10.4858C22.0002 10.2426 24.2944 9.23957 27.412 8.51008C27.1473 6.80796 26.1473 5.22741 24.6179 3.95081C22.5002 4.86267 19.8826 5.34899 17.3238 4.07239C17.3238 4.07239 15.9414 3.4037 14.5591 3.4341C12.5297 3.49489 11.6767 4.37635 10.7355 5.34899L9.58848 6.65598Z" fill="white"/>
<path d="M21.3529 10.8508C21.3234 10.8204 16.9999 6.92983 16.0293 6.16995C15.4705 5.74442 15.147 5.62284 14.8234 5.56205C14.647 5.53165 14.4117 5.56205 14.2352 5.62284C13.794 5.74442 13.1764 6.16995 12.647 6.59548C12.0881 7.05141 11.5881 7.47694 11.1176 7.56813C10.4999 7.7201 9.76462 7.53773 9.44109 7.29457C9.29403 7.20339 9.2058 7.08181 9.14697 6.96023C9.02933 6.65627 9.26462 6.41311 9.29403 6.38272L10.4705 5.04533L10.8823 4.6198C10.4999 4.68059 10.147 4.77178 9.79403 4.86296C9.35285 4.98454 8.94109 5.10612 8.52933 5.10612C8.35285 5.10612 7.41168 4.95415 7.23521 4.89336C6.14697 4.5894 5.2058 4.28545 3.79403 3.61676C2.11756 4.92375 0.970502 6.53469 0.646973 8.32801C0.882267 8.3888 1.29403 8.51038 1.44109 8.54077C5.26462 9.42223 6.44109 10.3341 6.67638 10.5165C6.91168 10.2429 7.23521 10.0909 7.61756 10.0909C8.02933 10.0909 8.41168 10.3037 8.64697 10.638C8.85285 10.4557 9.17638 10.3037 9.55874 10.3037C9.73521 10.3037 9.91168 10.3341 10.1176 10.3949C10.5587 10.5469 10.7646 10.8508 10.8823 11.1244C11.0293 11.0636 11.2058 11.0028 11.4117 11.0028C11.6176 11.0028 11.8234 11.0636 12.0587 11.1548C12.7646 11.4587 12.8823 12.1882 12.8234 12.7353H12.9705C13.8234 12.7353 14.4999 13.4344 14.4999 14.3158C14.4999 14.5894 14.4411 14.8326 14.3234 15.0453C14.5587 15.1669 15.1176 15.4709 15.647 15.4101C16.0587 15.3493 16.2058 15.2277 16.2646 15.1365C16.294 15.0757 16.3529 15.0149 16.294 14.9541L15.2058 13.7079C15.2058 13.7079 15.0293 13.5256 15.0881 13.4648C15.147 13.404 15.2646 13.4952 15.3529 13.556C15.9117 14.0423 16.5587 14.7414 16.5587 14.7414C16.5587 14.7414 16.6176 14.8326 16.8529 14.8934C17.0587 14.9237 17.4411 14.8934 17.7058 14.6806C17.7646 14.6198 17.8529 14.559 17.8823 14.4982C18.147 14.1335 17.8529 13.7687 17.8529 13.7687L16.5881 12.3098C16.5881 12.3098 16.4117 12.1274 16.4705 12.0666C16.5293 12.0058 16.647 12.097 16.7352 12.1578C17.147 12.4921 17.7058 13.1 18.2352 13.6472C18.3529 13.7383 18.8234 14.0423 19.4411 13.6168C19.8234 13.3432 19.9117 13.0393 19.8823 12.7961C19.8529 12.4921 19.6176 12.249 19.6176 12.249L17.9117 10.4557C17.9117 10.4557 17.7352 10.3037 17.794 10.2125C17.8529 10.1517 17.9705 10.2429 18.0587 10.3037C18.6176 10.79 20.0882 12.1882 20.0882 12.1882C20.1176 12.1882 20.6176 12.5833 21.2646 12.1578C21.4999 12.0058 21.647 11.7931 21.647 11.5195C21.6764 11.1244 21.3529 10.8508 21.3529 10.8508Z" fill="white"/>
<path d="M13.0295 13.1297C12.7648 13.1297 12.4706 13.2817 12.4412 13.2817C12.4118 13.2817 12.4412 13.1601 12.4706 13.0993C12.5001 13.0385 12.853 11.9443 12.0001 11.5492C11.353 11.2452 10.9412 11.5796 10.8236 11.7316C10.7942 11.7619 10.7648 11.7619 10.7648 11.7316C10.7648 11.5492 10.6765 11.0021 10.0883 10.8197C9.26476 10.5461 8.76476 11.154 8.6177 11.3668C8.55888 10.8805 8.17653 10.5157 7.67653 10.5157C7.14712 10.5157 6.73535 10.9413 6.73535 11.4884C6.73535 12.0355 7.14712 12.461 7.67653 12.461C7.94123 12.461 8.14712 12.3699 8.32359 12.1875V12.2179C8.29418 12.461 8.20594 13.3425 9.08829 13.6768C9.44123 13.8288 9.73535 13.7072 10.0001 13.5249C10.0883 13.4641 10.0883 13.4945 10.0883 13.5553C10.0589 13.768 10.0883 14.2543 10.7648 14.5279C11.2648 14.7407 11.5589 14.5279 11.7354 14.3455C11.8236 14.2544 11.853 14.2847 11.853 14.4063C11.8824 15.0446 12.4118 15.5613 13.0295 15.5613C13.6765 15.5613 14.2059 15.0142 14.2059 14.3455C14.2059 13.6768 13.6765 13.1297 13.0295 13.1297Z" fill="white"/>
<path d="M21.5293 10.3956C20.2058 9.21021 17.1469 6.44425 16.294 5.80595C15.8234 5.44121 15.4999 5.22844 15.2058 5.16765C15.0881 5.13726 14.9116 5.07647 14.6764 5.07647C14.4705 5.07647 14.2352 5.10686 13.9999 5.19805C13.4705 5.38042 12.9411 5.80595 12.4116 6.23148L12.3822 6.26188C11.9116 6.65701 11.4116 7.05215 11.0293 7.14334C10.8528 7.17373 10.7058 7.20413 10.5293 7.20413C10.1175 7.20413 9.73518 7.08255 9.58812 6.90018C9.55871 6.86978 9.58812 6.80899 9.64694 6.7482L10.8234 5.44121C11.7352 4.49896 12.5881 3.6175 14.5881 3.55671H14.6764C15.9116 3.55671 17.1469 4.13422 17.294 4.19501C18.4705 4.77252 19.6469 5.07647 20.8528 5.07647C22.1175 5.07647 23.4116 4.74212 24.7646 4.10382C24.6175 3.98224 24.4411 3.83027 24.294 3.70869C23.0881 4.2558 21.9705 4.49896 20.8528 4.49896C19.7352 4.49896 18.6175 4.2254 17.5293 3.67829C17.4705 3.6479 16.1175 2.9792 14.6764 2.9792H14.5587C12.8822 3.0096 11.9411 3.6175 11.3234 4.16461C10.7058 4.16461 10.1764 4.34698 9.70577 4.46856C9.294 4.59014 8.91165 4.68133 8.55871 4.68133H8.11753C7.70577 4.68133 5.64694 4.16461 4.0293 3.49592C3.85283 3.6175 3.70577 3.73908 3.5293 3.86066C5.23518 4.59014 7.32341 5.13726 7.97047 5.19805C8.14694 5.19805 8.35283 5.22844 8.55871 5.22844C8.99988 5.22844 9.41165 5.10686 9.85283 4.98528C10.1175 4.92449 10.3822 4.83331 10.6469 4.77252L10.4116 5.01568L9.23518 6.35306C9.14694 6.44425 8.94106 6.7178 9.05871 7.02176C9.11753 7.14334 9.23518 7.26492 9.38224 7.3865C9.67636 7.56887 10.1764 7.72084 10.6469 7.72084C10.8234 7.72084 10.9999 7.69045 11.1469 7.66005C11.6469 7.53847 12.1764 7.11294 12.7058 6.65701C13.1469 6.29227 13.7646 5.83635 14.2352 5.68437C14.3822 5.65397 14.5293 5.62358 14.6764 5.62358H14.794C15.1175 5.65397 15.4116 5.77555 15.9705 6.20109C16.9411 6.96097 21.2646 10.8515 21.294 10.8819C21.294 10.8819 21.5587 11.1251 21.5587 11.5506C21.5587 11.7634 21.4116 11.9762 21.2058 12.1281C21.0293 12.2497 20.8234 12.3105 20.6469 12.3105C20.3528 12.3105 20.1469 12.1585 20.1469 12.1585C20.1469 12.1585 18.6469 10.7604 18.1175 10.274C18.0293 10.1828 17.9411 10.1221 17.8528 10.1221C17.794 10.1221 17.7646 10.1525 17.7352 10.1829C17.6469 10.3044 17.7352 10.4564 17.8528 10.5476L19.5881 12.3409C19.5881 12.3409 19.794 12.5537 19.8234 12.8272C19.8234 13.1312 19.7058 13.3743 19.4116 13.5567C19.2058 13.7087 18.9999 13.7695 18.794 13.7695C18.5293 13.7695 18.3528 13.6479 18.294 13.6175L18.0293 13.3743C17.5881 12.9184 17.1175 12.4321 16.7646 12.1585C16.6764 12.0977 16.5881 12.0066 16.4999 12.0066C16.4705 12.0066 16.4116 12.0066 16.3822 12.0673C16.3528 12.0977 16.3234 12.1889 16.4116 12.3409C16.4411 12.4017 16.4999 12.4321 16.4999 12.4321L17.7646 13.8911C17.7646 13.8911 18.0293 14.2254 17.794 14.499L17.7352 14.5598L17.6175 14.6813C17.4116 14.8637 17.1175 14.8941 16.9999 14.8941H16.8234C16.7058 14.8637 16.6175 14.8333 16.5587 14.7725C16.4999 14.6813 15.8528 14.043 15.3234 13.5871C15.2646 13.5263 15.1764 13.4655 15.0881 13.4655C15.0587 13.4655 14.9999 13.4959 14.9705 13.5263C14.8822 13.6479 15.0293 13.8303 15.0881 13.8911L16.1764 15.1069C16.1764 15.1069 16.1764 15.1373 16.1469 15.198C16.1175 15.2588 15.9705 15.3804 15.5881 15.4412H15.4411C15.0293 15.4412 14.6175 15.2284 14.3822 15.1069C14.4705 14.8941 14.5293 14.6509 14.5293 14.4078C14.5293 13.4959 13.8234 12.7664 12.9411 12.7664H12.8822C12.9116 12.3409 12.8528 11.5506 12.0587 11.2163C11.8234 11.1251 11.6175 11.0643 11.3822 11.0643C11.2058 11.0643 11.0587 11.0947 10.8822 11.1555C10.7058 10.8211 10.4411 10.578 10.0881 10.4564C9.88224 10.3956 9.70577 10.3652 9.49989 10.3652C9.17636 10.3652 8.88224 10.4564 8.61753 10.6692C8.48976 10.5066 8.32828 10.3757 8.14501 10.2863C7.96175 10.1969 7.76138 10.1511 7.55871 10.1525C7.20577 10.1525 6.85283 10.3044 6.61753 10.5476C6.294 10.274 4.97047 9.42297 1.41165 8.57191C1.23518 8.54151 0.852827 8.41993 0.617532 8.32875C0.588121 8.51112 0.558709 8.72388 0.529297 8.93665C0.529297 8.93665 1.17636 9.08863 1.32341 9.11902C4.94106 9.93969 6.14694 10.8211 6.35283 10.9731C6.294 11.1555 6.26459 11.3379 6.26459 11.5202C6.26459 12.3105 6.88224 12.9184 7.61753 12.9184C7.70577 12.9184 7.794 12.9184 7.88224 12.888C7.99989 13.4655 8.35283 13.8911 8.91165 14.1038C9.08812 14.1646 9.23518 14.195 9.38224 14.195C9.47047 14.195 9.58812 14.195 9.70577 14.1646C9.794 14.4382 10.0293 14.7725 10.5587 14.9853C10.7352 15.0765 10.9116 15.1069 11.0881 15.1069C11.2352 15.1069 11.3822 15.0765 11.4999 15.0157C11.7352 15.6236 12.3234 16.0491 12.9705 16.0491C13.4116 16.0491 13.8234 15.8667 14.1175 15.5324C14.3822 15.6844 14.9116 15.9579 15.4705 15.9579H15.6764C16.2352 15.8971 16.4705 15.654 16.5881 15.502C16.6175 15.4716 16.6175 15.4412 16.6469 15.4108C16.7646 15.4412 16.9116 15.4716 17.0881 15.4716C17.3822 15.4716 17.6764 15.3804 17.9705 15.1373C18.2646 14.9245 18.4705 14.6205 18.4705 14.347C18.5587 14.3774 18.6764 14.3774 18.7646 14.3774C19.0587 14.3774 19.3822 14.2862 19.6764 14.0734C20.2352 13.7087 20.3234 13.192 20.3234 12.888C20.4116 12.9184 20.5293 12.9184 20.6175 12.9184C20.9116 12.9184 21.2058 12.8272 21.4705 12.6449C21.8234 12.4017 22.0293 12.0673 22.0587 11.6722C22.0881 11.3987 21.9999 11.1251 21.8822 10.8819C22.8234 10.4564 24.9411 9.66613 27.4705 9.05823C27.4705 8.84546 27.4411 8.66309 27.3822 8.45033C24.3528 9.11902 22.0881 10.1221 21.5293 10.3956ZM13.0293 15.4716C12.4411 15.4716 11.9705 14.9853 11.9411 14.3774C11.9411 14.3166 11.9411 14.195 11.8234 14.195C11.7646 14.195 11.7352 14.2254 11.6764 14.2558C11.5587 14.3774 11.3822 14.499 11.1469 14.499C11.0293 14.499 10.9116 14.4686 10.794 14.4078C10.1764 14.1342 10.1469 13.7087 10.1764 13.5263C10.1764 13.4655 10.1764 13.4351 10.1469 13.4047L10.1175 13.3743H10.0881C10.0587 13.3743 10.0293 13.3743 9.97047 13.4351C9.794 13.5567 9.61753 13.6175 9.44106 13.6175C9.35283 13.6175 9.23518 13.5871 9.14694 13.5567C8.32341 13.2224 8.38224 12.4321 8.44106 12.1889C8.44106 12.1281 8.44106 12.0977 8.41165 12.0673L8.35283 12.0066L8.294 12.0673C8.11753 12.2193 7.91165 12.3105 7.70577 12.3105C7.23518 12.3105 6.85283 11.9154 6.85283 11.4291C6.85283 10.9427 7.23518 10.5476 7.70577 10.5476C8.11753 10.5476 8.49989 10.8819 8.55871 11.3075L8.58812 11.5506L8.70577 11.3379C8.70577 11.3075 9.05871 10.7604 9.70577 10.7908C9.82341 10.7908 9.94106 10.8211 10.0881 10.8515C10.5881 11.0035 10.6764 11.4898 10.6764 11.6722C10.6764 11.7938 10.7646 11.7938 10.7646 11.7938C10.794 11.7938 10.8528 11.7634 10.8528 11.733C10.9411 11.6418 11.1469 11.4594 11.4705 11.4594C11.6175 11.4594 11.7646 11.4898 11.9411 11.581C12.7352 11.9458 12.3822 12.9792 12.3822 13.0096C12.3234 13.192 12.294 13.2528 12.3822 13.3135H12.4411C12.4705 13.3135 12.5293 13.3135 12.5881 13.2832C12.7058 13.2528 12.8528 13.192 12.9999 13.192C13.5881 13.192 14.0881 13.7087 14.0881 14.3166C14.1175 14.9853 13.6175 15.4716 13.0293 15.4716Z" fill="#6941C6"/>
</svg>
