<svg width="30" height="30" viewBox="0 0 30 30" fill="none" xmlns="http://www.w3.org/2000/svg">
<path fill-rule="evenodd" clip-rule="evenodd" d="M14.999 29.7302C23.135 29.7302 29.7305 23.1347 29.7305 14.9987C29.7305 6.86277 23.135 0.267273 14.999 0.267273C6.86308 0.267273 0.267578 6.86277 0.267578 14.9987C0.267578 23.1347 6.86308 29.7302 14.999 29.7302ZM12.3633 8.40692V8.40694H16.2844C19.1338 8.40694 21.4436 10.7168 21.4436 13.5661C21.4436 16.4155 19.1338 18.7253 16.2844 18.7253H12.3633V21.8208H9.47412V8.40692H12.3633ZM12.3633 15.8362V11.2961H16.2844C17.5381 11.2961 18.5545 12.3124 18.5545 13.5661C18.5545 14.8198 17.5381 15.8362 16.2844 15.8362H12.3633Z" fill="#44464A"/>
</svg>
