<svg width="65" height="36" viewBox="0 0 65 36" fill="none" xmlns="http://www.w3.org/2000/svg">
<path fill-rule="evenodd" clip-rule="evenodd" d="M47.105 28.6378V28.6367H70.1925V21.3176H58.5818L63.5 17.678C65.1731 16.4515 66.4361 15.3449 67.2891 14.3584C68.1421 13.3451 68.6998 12.3853 68.9622 11.4787C69.2575 10.5721 69.4051 9.66556 69.4051 8.759C69.4051 6.97254 68.8146 5.42605 67.6336 4.11953C66.4525 2.81301 64.8122 1.79979 62.7126 1.07988C60.613 0.359959 58.2017 0 55.4788 0C51.7717 0 48.6715 0.599932 46.1782 1.7998C43.6849 2.99966 41.8149 4.55948 40.5683 6.47926L49.3276 10.0389C49.8525 9.18562 50.5742 8.54569 51.4928 8.11907C52.4114 7.66579 53.3792 7.43915 54.3962 7.43915C55.5116 7.43915 56.3482 7.63913 56.9059 8.03908C57.4636 8.41237 57.7424 8.94565 57.7424 9.6389C57.7424 9.95886 57.6768 10.3055 57.5456 10.6788C57.4144 11.0254 57.1519 11.4254 56.7583 11.8786C56.3974 12.3319 55.8233 12.8652 55.0359 13.4785L47.105 19.4403V16.8256C47.105 14.655 46.7264 12.8882 45.9692 11.5252C45.2373 10.1623 44.2277 9.1653 42.9405 8.5343C41.6532 7.87807 40.2146 7.54995 38.6244 7.54995C36.9334 7.54995 35.3937 7.94117 34.0056 8.7236C33.5739 8.97142 33.17 9.25849 32.794 9.58481V0.545898H24.2377V28.6378H32.794V18.9079C32.794 17.873 32.9329 17.0527 33.2105 16.447C33.5134 15.8412 33.9046 15.4122 34.3842 15.1598C34.889 14.8821 35.4316 14.7433 36.0121 14.7433C36.7946 14.7433 37.4129 15.0209 37.8672 15.5762C38.3216 16.1063 38.5487 17.0149 38.5487 18.3021V28.6378H47.105ZM13.8189 29.0164C12.0269 29.0164 10.5377 28.6378 9.35148 27.8806C9.06846 27.6899 8.80344 27.4759 8.55642 27.2387V35.9826H0.00012207V7.92855H8.13997V9.62805C8.4677 9.26346 8.83368 8.94936 9.2379 8.68574C10.3989 7.92855 11.9259 7.54995 13.8189 7.54995C15.6362 7.54995 17.302 7.99165 18.8164 8.87504C20.3308 9.7332 21.5423 10.9699 22.4509 12.5853C23.3596 14.1754 23.8139 16.081 23.8139 18.3021C23.8139 20.5232 23.3596 22.4414 22.4509 24.0568C21.5423 25.6469 20.3308 26.871 18.8164 27.7292C17.302 28.5873 15.6362 29.0164 13.8189 29.0164ZM11.7745 22.3531C12.4055 22.3531 12.9734 22.2017 13.4782 21.8988C13.983 21.5959 14.3868 21.1416 14.6897 20.5358C14.9926 19.9301 15.144 19.1855 15.144 18.3021C15.144 17.3935 14.9926 16.6363 14.6897 16.0305C14.3868 15.4248 13.983 14.9705 13.4782 14.6676C12.9734 14.3647 12.4055 14.2133 11.7745 14.2133C11.1435 14.2133 10.5756 14.3647 10.0708 14.6676C9.56602 14.9705 9.16218 15.4248 8.8593 16.0305C8.55642 16.6363 8.40498 17.3935 8.40498 18.3021C8.40498 19.1855 8.55642 19.9301 8.8593 20.5358C9.16218 21.1416 9.56602 21.5959 10.0708 21.8988C10.5756 22.2017 11.1435 22.3531 11.7745 22.3531ZM62.8808 31.819H62.1666V34.5287H62.8808V31.819ZM62.1952 31.2608C62.2828 31.3353 62.3933 31.3725 62.5266 31.3725C62.6637 31.3725 62.7742 31.3353 62.858 31.2608C62.9418 31.183 62.9837 31.0883 62.9837 30.9767C62.9837 30.8718 62.9399 30.7855 62.8523 30.7179C62.7685 30.6468 62.6599 30.6113 62.5266 30.6113C62.3933 30.6113 62.2828 30.6485 62.1952 30.723C62.1114 30.794 62.0695 30.8837 62.0695 30.9919C62.0695 31.0968 62.1114 31.1864 62.1952 31.2608ZM54.2576 34.5287V33.8145L54.7888 33.3684L55.8461 34.5287H56.7146L55.3214 32.9545L56.5946 31.819H55.7375L54.2576 33.0344V30.7636H53.5434V34.5287H54.2576ZM46.3942 31.7886C46.638 31.7886 46.8532 31.8309 47.0399 31.9154C47.2304 32 47.3789 32.1303 47.4856 32.3062C47.5922 32.4787 47.6456 32.702 47.6456 32.976V34.5287H46.9313V33.0572C46.9313 32.817 46.8723 32.6377 46.7542 32.5193C46.6361 32.4009 46.4666 32.3417 46.2457 32.3417C46.0895 32.3417 45.9505 32.3721 45.8286 32.433C45.7105 32.4939 45.6171 32.5836 45.5486 32.702C45.4838 32.8204 45.4514 32.9709 45.4514 33.1536V34.5287H44.7372V33.0572C44.7372 32.817 44.6782 32.6377 44.5601 32.5193C44.442 32.4009 44.2725 32.3417 44.0515 32.3417C43.8954 32.3417 43.7563 32.3721 43.6344 32.433C43.5163 32.4939 43.423 32.5836 43.3545 32.702C43.2897 32.8204 43.2573 32.9709 43.2573 33.1536V34.5287H42.5431V31.819H43.223V32.1625C43.3116 32.065 43.4201 31.986 43.5487 31.9256C43.7468 31.8343 43.9716 31.7886 44.223 31.7886C44.5087 31.7886 44.7563 31.8512 44.9658 31.9763C45.0832 32.0452 45.1787 32.1336 45.2523 32.2415C45.3438 32.1361 45.4597 32.046 45.6 31.9713C45.8286 31.8495 46.0933 31.7886 46.3942 31.7886ZM50.1524 34.5287V34.1999C50.0815 34.2943 49.9844 34.3717 49.861 34.4323C49.6858 34.5203 49.463 34.5643 49.1925 34.5643C48.9639 34.5643 48.764 34.5304 48.5925 34.4628C48.4211 34.3917 48.2878 34.2953 48.1926 34.1735C48.1012 34.0484 48.0554 33.908 48.0554 33.7524C48.0554 33.6001 48.0954 33.4631 48.1754 33.3413C48.2592 33.2196 48.3945 33.1231 48.5811 33.0521C48.7678 32.9811 49.0154 32.9455 49.3239 32.9455H50.1124V32.9049C50.1124 32.7189 50.0496 32.5751 49.9239 32.4736C49.7982 32.3688 49.6077 32.3163 49.3525 32.3163C49.1811 32.3163 49.0116 32.34 48.844 32.3874C48.6802 32.4347 48.5411 32.5007 48.4268 32.5853L48.1469 32.1235C48.3107 32.0119 48.5049 31.929 48.7297 31.8748C48.9582 31.8173 49.1944 31.7886 49.4382 31.7886C49.8801 31.7886 50.221 31.8833 50.461 32.0727C50.7048 32.2588 50.8267 32.548 50.8267 32.9405V34.5287H50.1524ZM50.1124 33.3667V33.6813C50.0515 33.82 49.9505 33.9249 49.8096 33.9959C49.6725 34.067 49.5163 34.1025 49.3411 34.1025C49.1582 34.1025 49.0154 34.0687 48.9125 34.001C48.8097 33.9334 48.7582 33.842 48.7582 33.727C48.7582 33.6255 48.8002 33.5409 48.884 33.4733C48.9678 33.4022 49.1316 33.3667 49.3753 33.3667H50.1124ZM51.4576 31.819V34.5287H52.1718V33.2145C52.1718 32.9371 52.2518 32.729 52.4118 32.5903C52.5718 32.4483 52.787 32.3772 53.0575 32.3772C53.0841 32.3772 53.1108 32.3789 53.1375 32.3823C53.1641 32.3823 53.1927 32.3857 53.2232 32.3924V31.7886C52.9299 31.7886 52.6842 31.8359 52.4861 31.9307C52.3414 32.0012 52.2252 32.0962 52.1375 32.2156V31.819H51.4576ZM57.3047 34.3867C57.5599 34.5051 57.857 34.5643 58.1961 34.5643C58.4627 34.5643 58.6989 34.5271 58.9046 34.4526C59.1141 34.3748 59.2874 34.2649 59.4245 34.1228L59.0417 33.7321C58.9351 33.8336 58.8132 33.908 58.676 33.9553C58.5389 34.0027 58.3846 34.0264 58.2132 34.0264C58.0151 34.0264 57.8399 33.9926 57.6875 33.9249C57.5352 33.8572 57.4171 33.7608 57.3333 33.6357C57.2805 33.5568 57.2443 33.4705 57.2248 33.3769H59.6188C59.6226 33.3464 59.6245 33.3143 59.6245 33.2804C59.6283 33.2466 59.6302 33.2162 59.6302 33.1891C59.6302 32.9049 59.5636 32.658 59.4303 32.4483C59.2969 32.2385 59.1141 32.0761 58.8817 31.9611C58.6494 31.8461 58.3846 31.7886 58.0875 31.7886C57.7828 31.7886 57.5104 31.8478 57.2704 31.9662C57.0342 32.0846 56.8476 32.2487 56.7105 32.4584C56.5771 32.6648 56.5105 32.9033 56.5105 33.1739C56.5105 33.4411 56.579 33.6796 56.7162 33.8894C56.8571 34.0991 57.0533 34.2649 57.3047 34.3867ZM57.2184 32.9557C57.234 32.854 57.2666 32.7627 57.3161 32.6817C57.3923 32.5599 57.4952 32.4652 57.6247 32.3975C57.758 32.3298 57.9123 32.296 58.0875 32.296C58.2589 32.296 58.4094 32.3298 58.5389 32.3975C58.6722 32.4652 58.777 32.5582 58.8532 32.6766C58.907 32.7603 58.9409 32.8534 58.9548 32.9557H57.2184ZM61.1791 34.5643C60.8439 34.5643 60.5849 34.4882 60.402 34.3359C60.2192 34.1803 60.1278 33.952 60.1278 33.6509V32.3468H59.6249V31.8393H60.1278V31.2203H60.842V31.8393H61.6591V32.3468H60.842V33.6357C60.842 33.7642 60.8782 33.864 60.9505 33.935C61.0267 34.0061 61.1315 34.0416 61.2648 34.0416C61.4248 34.0416 61.5581 34.0044 61.6648 33.93L61.8648 34.3816C61.781 34.4425 61.6781 34.4882 61.5562 34.5186C61.4343 34.549 61.3086 34.5643 61.1791 34.5643ZM65.2639 31.7886C65.5077 31.7886 65.7248 31.8309 65.9153 31.9154C66.1095 32 66.2619 32.1303 66.3724 32.3062C66.4828 32.4787 66.5381 32.702 66.5381 32.976V34.5287H65.8238V33.0572C65.8238 32.817 65.7591 32.6377 65.6296 32.5193C65.5039 32.4009 65.3267 32.3417 65.0982 32.3417C64.9306 32.3417 64.782 32.3721 64.6525 32.433C64.523 32.4939 64.422 32.5853 64.3497 32.707C64.2811 32.8254 64.2468 32.976 64.2468 33.1587V34.5287H63.5326V31.819H64.2125V32.1701C64.3053 32.0719 64.4195 31.9921 64.5554 31.9307C64.7611 31.8359 64.9972 31.7886 65.2639 31.7886ZM67.7183 35.4472C67.9887 35.5149 68.2649 35.5487 68.5468 35.5487C69.0801 35.5487 69.4876 35.432 69.7695 35.1986C70.0514 34.9685 70.1924 34.6082 70.1924 34.1177V31.819H69.5124V32.1807C69.4116 32.0724 69.2916 31.9874 69.1524 31.9256C68.9467 31.8343 68.7144 31.7886 68.4553 31.7886C68.1658 31.7886 67.903 31.8427 67.6668 31.951C67.4345 32.0592 67.2497 32.2114 67.1126 32.4077C66.9793 32.6039 66.9126 32.8322 66.9126 33.0927C66.9126 33.3566 66.9793 33.5866 67.1126 33.7828C67.2497 33.979 67.4345 34.1329 67.6668 34.2446C67.903 34.3528 68.1658 34.407 68.4553 34.407C68.7144 34.407 68.9467 34.3613 69.1524 34.27C69.2762 34.213 69.3847 34.1383 69.4781 34.0458V34.1888C69.4781 34.4628 69.4 34.6674 69.2439 34.8028C69.0877 34.9415 68.842 35.0108 68.5068 35.0108C68.2973 35.0108 68.0897 34.9804 67.8839 34.9195C67.6821 34.862 67.5145 34.7842 67.3811 34.6861L67.0612 35.163C67.2326 35.2882 67.4516 35.3829 67.7183 35.4472ZM69.0439 33.7727C68.9029 33.8369 68.7429 33.8691 68.5639 33.8691C68.3849 33.8691 68.223 33.8369 68.0782 33.7727C67.9373 33.705 67.8268 33.6137 67.7468 33.4986C67.6706 33.3802 67.6325 33.2449 67.6325 33.0927C67.6325 32.9405 67.6706 32.8068 67.7468 32.6918C67.8268 32.5734 67.9373 32.4838 68.0782 32.4229C68.223 32.3586 68.3849 32.3265 68.5639 32.3265C68.7429 32.3265 68.9029 32.3586 69.0439 32.4229C69.1848 32.4838 69.2934 32.5734 69.3696 32.6918C69.4495 32.8068 69.4895 32.9405 69.4895 33.0927C69.4895 33.2449 69.4495 33.3802 69.3696 33.4986C69.2934 33.6137 69.1848 33.705 69.0439 33.7727Z" fill="#72707E"/>
</svg>
