<svg width="147" height="50" viewBox="0 0 147 50" fill="none" xmlns="http://www.w3.org/2000/svg">
<g clip-path="url(#clip0_2_44870)">
<path d="M46.0949 6.12084C46.0891 6.35305 45.8859 6.71299 45.6188 6.95681C45.2066 7.33997 44.8351 7.44447 43.7321 7.50832C43.1225 7.53735 42.7161 7.5896 42.5768 7.64765C42.4607 7.6941 42.2111 7.73473 42.0195 7.73473C41.8279 7.73473 41.5493 7.77537 41.3983 7.82182C41.2532 7.86826 41.0616 7.92051 40.9687 7.93792C40.6959 7.99017 40.1908 8.52427 40.3011 8.64038C40.3185 8.65199 40.4753 8.61135 40.6552 8.54749C41.0964 8.39074 41.6944 8.3443 42.1182 8.43138C42.9425 8.59974 43.7901 9.17447 44.0978 9.77242C44.4926 10.5503 44.3474 11.7637 43.8075 12.1759C43.7089 12.2513 43.4999 12.3442 43.3547 12.3848C43.0877 12.4603 43.0819 12.4661 43.1806 12.5706C43.3141 12.7274 43.7031 12.9015 43.9179 12.9015C44.1733 12.9015 44.6667 12.6519 44.8119 12.4487C45.0731 12.083 45.1776 11.7405 45.1892 11.2644C45.1892 11.0148 45.2125 10.8116 45.2299 10.8116C45.2937 10.8116 45.4679 11.2238 45.4969 11.4502C45.5201 11.5953 45.4853 11.7521 45.4098 11.9378L45.2879 12.2049H45.4447C45.6362 12.2049 45.9439 12.0249 46.0658 11.8391C46.1123 11.7579 46.1761 11.5837 46.1994 11.4502L46.24 11.2006L46.7451 11.7346C48.2951 13.3602 49.0672 15.4443 48.8234 17.3485C48.3706 20.942 45.2183 23.4267 41.4854 23.119C39.3432 22.9448 37.5842 22.196 36.2664 20.8897C35.1865 19.8157 34.4667 18.376 34.217 16.7737C34.0777 15.9203 34.13 14.649 34.339 13.8304C34.6118 12.7274 35.0937 11.6824 35.7381 10.7768L36.0632 10.3181L35.7032 10.6665C34.577 11.7579 33.683 13.2789 33.352 14.6606C32.4929 18.2193 34.0313 21.9753 37.172 24.0188C39.5116 25.5399 42.5071 25.9056 45.195 25.0058C46.5187 24.5587 47.6217 23.8621 48.6783 22.7997C50.0658 21.418 50.8437 19.9377 51.1572 18.0973C51.2559 17.511 51.2675 17.2382 51.2442 16.3848C51.2268 15.7694 51.1746 15.2005 51.1165 14.9334C50.4431 11.8682 48.2951 9.38346 45.4563 8.38494C44.9164 8.19917 43.8946 7.96695 43.5927 7.96695C43.4592 7.96695 43.4186 7.94953 43.465 7.90309C43.5463 7.82182 44.4578 7.82182 45.0789 7.9089C45.3692 7.94953 45.7001 7.96695 45.8162 7.94373C46.269 7.86245 46.6174 7.38641 46.6174 6.86393C46.6174 6.53302 46.5593 6.39369 46.3387 6.14986C46.1587 5.95829 46.0949 5.95248 46.0949 6.12084Z" fill="#72707E"/>
<path d="M0 16.6751V25.3251H1.45135H2.90269V22.7127V20.1003H5.30612C7.93596 20.1003 8.621 20.048 9.54986 19.781C11.5817 19.1888 12.8531 18.0103 13.4685 16.141C13.8981 14.8406 13.8517 12.7274 13.3698 11.5083C12.6325 9.63895 10.9373 8.44885 8.53392 8.11213C8.00563 8.04247 7.18707 8.02505 3.94766 8.02505H0V16.6751ZM7.44831 10.6433C8.66164 10.7478 9.53244 11.0787 10.1188 11.6592C10.7167 12.2514 10.9896 12.9829 10.9896 14.0046C10.9896 15.7636 10.1536 16.855 8.44684 17.3253C8.00563 17.4472 7.84308 17.453 5.44545 17.4762L2.90269 17.4936V14.0743C2.90269 12.1933 2.92011 10.6375 2.94333 10.6201C3.00138 10.5562 6.69361 10.5736 7.44831 10.6433Z" fill="#72707E"/>
<path d="M15.7327 16.6751V25.3251H17.184H18.6354V21.7258V18.1264L23.239 18.138L27.8369 18.1555L27.8543 21.7374L27.8659 25.3251H29.3173H30.7686V16.6751V8.02505H29.3173H27.8659L27.8543 11.7811L27.8369 15.543L23.239 15.5604L18.6354 15.5721V11.7986V8.02505H17.184H15.7327V16.6751Z" fill="#72707E"/>
<path d="M53.4673 16.6751V25.3251H59.7952H66.1231V24.0479V22.7707L61.264 22.7591L56.3991 22.7417L56.3817 20.3441L56.37 17.9523H60.608H64.8459V16.6461V15.3398L60.6254 15.3282L56.3991 15.3108V12.9596V10.6084L61.1188 10.591L65.8328 10.5794V9.30224V8.02505H59.6501H53.4673V16.6751Z" fill="#72707E"/>
<path d="M68.7358 16.6751V25.3251H70.1871H71.6385V19.1366C71.6385 15.3166 71.6617 12.9654 71.6907 12.9887C71.7197 13.0061 73.8039 15.7869 76.3176 19.1714L80.8923 25.3251H82.332H83.7717V16.6751V8.02505H82.3494H80.9271V14.2078C80.9271 17.6097 80.9097 20.3905 80.8865 20.3905C80.8574 20.3905 78.7675 17.6039 76.2363 14.2078L71.6269 8.02505H70.1813H68.7358V16.6751Z" fill="#72707E"/>
<path d="M87.4291 16.6751V25.3251H88.8514H90.2737V16.6751V8.02505H88.8514H87.4291V16.6751Z" fill="#72707E"/>
<path d="M92.5728 8.1818C92.625 8.27468 93.9312 10.144 95.4639 12.3501C96.9965 14.5503 98.2505 16.3964 98.2505 16.4429C98.2505 16.5067 92.5147 24.6691 92.0561 25.2496C92.0155 25.3077 92.3522 25.3251 93.7106 25.3251H95.4232L97.7396 22.0741C99.5451 19.5313 100.068 18.8405 100.12 18.8985C100.16 18.9334 101.211 20.3963 102.465 22.1438L104.735 25.3251H106.477H108.218L108.033 25.0523C107.928 24.9013 106.523 22.8985 104.909 20.5995C103.301 18.2948 101.978 16.3732 101.978 16.3268C101.978 16.2803 103.266 14.4052 104.834 12.1585C106.407 9.91761 107.69 8.0715 107.69 8.05408C107.69 8.03666 106.924 8.02505 105.995 8.03086H104.294L102.204 10.9916C101.054 12.6229 100.102 13.964 100.079 13.9756C100.062 13.9872 99.1038 12.6636 97.9544 11.0264L95.8644 8.05408L94.1635 8.03666L92.4625 8.02505L92.5728 8.1818Z" fill="#72707E"/>
<path d="M0.0579834 39.4902V48.7788H0.435333H0.812684V40.0243V31.2755L4.75454 38.9967C7.64562 44.657 8.72542 46.7237 8.8067 46.7353C8.89378 46.7469 9.63687 45.3246 12.8298 39.0431L16.7485 31.3336L16.7833 33.8589C16.8007 35.2464 16.8239 39.1709 16.8297 42.5786L16.8356 48.7788H17.1839H17.5322V39.4902V30.2015H16.9981H16.4582L12.6557 37.7137C10.5657 41.8471 8.83573 45.2143 8.81251 45.191C8.79509 45.1678 7.06508 41.7949 4.97515 37.6905L1.17262 30.2306L0.6153 30.2132L0.0579834 30.1957V39.4902Z" fill="#72707E"/>
<path d="M23.0474 39.4902V48.7788H29.0559H35.0645V48.4014V48.0241H29.4043H23.744L23.7556 43.7978L23.773 39.5772L28.6379 39.5598L33.4971 39.5482V39.1999V38.8516H28.6205H23.744L23.7556 34.8865L23.773 30.9272L29.2475 30.9098L34.7162 30.8982V30.5499V30.2015H28.8818H23.0474V39.4902Z" fill="#72707E"/>
<path d="M38.896 39.4902V48.7788H42.6869C44.8523 48.7788 46.7449 48.7556 47.1048 48.7207C51.3369 48.3143 54.6866 45.3536 55.5633 41.2318C55.7374 40.4132 55.7548 38.7006 55.5923 37.8647C54.8608 34.0679 51.9755 31.1827 48.0859 30.3641C47.4706 30.2364 47.3661 30.2306 43.1804 30.2132L38.896 30.1957V39.4902ZM46.8958 30.9562C49.0322 31.1478 50.8319 31.9548 52.3239 33.3945C53.1134 34.1492 53.5952 34.7878 54.0364 35.6528C54.6866 36.9126 54.9131 37.795 54.9595 39.2115C55.0001 40.3726 54.9073 41.0344 54.5705 42.0503C54.1293 43.3914 53.5023 44.3957 52.4806 45.4117C51.2092 46.683 49.7927 47.4493 47.9814 47.8557C47.4183 47.9834 47.2906 47.9892 43.5287 48.0067L39.6507 48.0299V39.4669V30.8982H42.9482C44.7594 30.8982 46.5359 30.9272 46.8958 30.9562Z" fill="#72707E"/>
<path d="M59.157 39.4902V48.7788H59.5054H59.8537V39.4902V30.2015H59.5054H59.157V39.4902Z" fill="#72707E"/>
<path d="M71.4642 30.2829C70.8198 30.3758 70.129 30.55 69.5368 30.759C68.8286 31.0144 67.6849 31.6356 67.0463 32.1116C63.476 34.7937 62.3033 39.4612 64.2133 43.4147C65.4673 46.0039 67.9171 47.9197 70.7792 48.5409C73.113 49.0459 75.5454 48.6686 77.6702 47.4727C78.1636 47.194 79.3015 46.3697 79.3015 46.2884C79.3015 46.2303 78.8719 45.8181 78.8138 45.8181C78.7906 45.8181 78.6049 45.9459 78.4075 46.0968C77.8211 46.5612 77.3451 46.8631 76.7239 47.1592C74.5875 48.1751 72.3292 48.3261 70.0767 47.6062C66.9941 46.6193 64.6487 43.9488 64.1262 40.8313C64.0043 40.1231 64.0043 38.7994 64.1204 38.1202C64.8113 34.1203 68.2771 31.1131 72.4279 30.9157C74.6224 30.8112 76.869 31.5427 78.4887 32.8895L78.808 33.1566L79.0577 32.9128L79.3073 32.6689L79.0577 32.4425C78.6629 32.0942 77.6586 31.444 77.0664 31.1595C76.3988 30.8402 75.5106 30.5384 74.7443 30.3758C73.9896 30.2133 72.277 30.1668 71.4642 30.2829Z" fill="#72707E"/>
<path d="M83.9748 39.3276C81.6759 44.3435 79.7659 48.5291 79.7253 48.6162L79.6556 48.7846L80.0968 48.7672L80.5381 48.7497L81.4611 46.7179C81.9662 45.5974 82.5409 44.3377 82.7383 43.9139L83.0924 43.1475L88.5843 43.1592L94.0704 43.1766L95.3534 45.9632L96.6364 48.7497L97.0544 48.7672C97.2866 48.7788 97.4724 48.7614 97.4666 48.7381C97.4666 48.7149 95.5392 44.5408 93.1822 39.4611L88.9036 30.2306L88.5263 30.2131L88.1547 30.1957L83.9748 39.3276ZM91.1155 36.7616C92.5146 39.7804 93.6698 42.2942 93.6815 42.3464C93.7105 42.4451 93.4376 42.4509 88.5611 42.4509C85.2346 42.4509 83.4233 42.4335 83.4349 42.3928C83.5511 42.0503 88.5147 31.2059 88.5379 31.2349C88.5611 31.2581 89.7222 33.7428 91.1155 36.7616Z" fill="#72707E"/>
<path d="M99.7945 39.4902V48.7788H104.265H108.735V48.4014V48.0241H104.642H100.549V39.1128V30.2015H100.172H99.7945V39.4902Z" fill="#72707E"/>
<path d="M143.648 38.9968C143.677 39.2697 143.666 39.3335 143.561 39.438C143.463 39.5367 143.399 39.5541 143.23 39.5193C142.696 39.4206 142.476 39.2116 142.592 38.9155C142.656 38.7356 142.615 38.7007 142.418 38.7704C142.284 38.8168 142.261 38.8633 142.243 39.0723C142.226 39.2639 142.255 39.3451 142.365 39.4554C142.516 39.6064 142.952 39.7225 143.364 39.7225H143.625V39.9721C143.625 40.2334 143.701 40.3611 143.863 40.3611C143.933 40.3611 143.968 40.2856 143.991 40.0534C144.032 39.7167 144.13 39.6064 144.403 39.6064C144.647 39.6006 145.042 39.4148 145.158 39.2522C145.21 39.1768 145.251 39.02 145.251 38.8981C145.251 38.6891 145.245 38.6775 145.053 38.6775C144.867 38.6775 144.856 38.6891 144.821 38.9504C144.763 39.3742 144.531 39.589 144.206 39.5193C143.927 39.4554 143.84 39.3103 143.886 38.9736C143.927 38.6775 143.927 38.6775 143.77 38.6775C143.608 38.6775 143.608 38.6775 143.648 38.9968Z" fill="#72707E"/>
<path d="M116.485 38.8168C115.771 38.9619 115.243 39.1999 114.941 39.5308L114.784 39.6934L114.755 41.1447C114.714 43.0315 114.517 44.419 114.134 45.5743C113.873 46.3464 113.704 46.5147 113.17 46.5147C112.903 46.5147 112.868 46.5321 112.833 46.6541C112.816 46.7295 112.828 46.8747 112.862 46.9733C112.915 47.1301 112.955 47.1533 113.124 47.1533C113.571 47.1533 114.018 46.776 114.308 46.1606C114.714 45.284 114.906 44.1229 115.034 41.6788C115.127 39.9082 115.156 39.7805 115.504 39.5134C116.003 39.1303 116.758 38.9967 118.18 39.0432C119.394 39.078 119.719 39.1535 119.991 39.4612C120.218 39.7224 120.27 39.9953 120.142 40.2681C119.968 40.6397 119.904 40.6513 118.122 40.6455C116.189 40.6455 115.788 40.6803 115.672 40.8487C115.556 41.0054 115.562 41.3479 115.678 41.5105C115.8 41.6846 115.974 41.7717 116.282 41.8124C116.526 41.8414 116.543 41.853 116.56 42.033C116.59 42.329 116.804 42.3929 117.78 42.3929C118.523 42.3929 118.604 42.4045 118.784 42.5264C119.144 42.7703 119.132 43.1824 118.761 43.4611C118.616 43.5714 118.494 43.5888 117.652 43.612C116.566 43.6469 116.479 43.6759 116.543 44.0126C116.566 44.1229 116.624 44.2448 116.677 44.2855C116.729 44.3261 117.037 44.39 117.356 44.4248C118.064 44.5119 118.674 44.6976 119.016 44.9299C119.365 45.1679 119.498 45.2027 119.614 45.0924C119.759 44.9473 119.724 44.7847 119.527 44.686C119.225 44.5293 118.546 44.3783 117.936 44.3435C117.025 44.2855 116.868 44.2564 116.804 44.1345C116.764 44.0532 116.769 44.001 116.839 43.9313C116.92 43.8559 117.071 43.8442 117.867 43.8559C118.964 43.8733 119.19 43.8152 119.341 43.4437C119.446 43.194 119.411 42.7586 119.266 42.5148C119.092 42.2245 118.952 42.1897 117.954 42.1897C117.008 42.1897 116.891 42.1607 116.932 41.9517C116.949 41.853 117.037 41.8356 117.704 41.7891C118.917 41.7079 119.794 41.8762 119.974 42.2303C120.032 42.3407 120.084 42.7006 120.125 43.1998C120.218 44.5119 120.334 45.3769 120.497 45.8877C120.694 46.5031 121.077 47.2694 121.187 47.2694C121.315 47.2694 121.292 47.1301 121.095 46.6831C120.793 45.9864 120.595 44.8428 120.456 42.9444C120.386 42.0039 120.375 41.9517 120.23 41.8008C119.928 41.5047 119.603 41.4524 117.849 41.4176C116.973 41.406 116.206 41.3712 116.154 41.3421C116.026 41.2725 116.021 41.0983 116.137 40.9764C116.218 40.8951 116.433 40.8893 117.873 40.9241C119.661 40.9648 119.928 40.9357 120.276 40.6687C120.694 40.3494 120.81 39.8618 120.572 39.4322C120.409 39.1477 120.206 39.0374 119.573 38.8981C118.865 38.7471 117.077 38.7007 116.485 38.8168Z" fill="#72707E"/>
<path d="M134.232 38.7877C134.174 38.8225 134.18 38.8806 134.25 39.0432C134.447 39.5134 134.302 40.0533 133.884 40.4306C133.605 40.6803 133.564 40.6919 133.373 40.5409C133.297 40.4829 133.112 40.4132 132.961 40.3958C132.804 40.3726 132.595 40.3261 132.496 40.2971C132.311 40.2391 132.305 40.2275 132.305 39.9024V39.5656L132.827 39.5366C133.332 39.5076 133.466 39.4728 133.396 39.3973C133.309 39.3102 132.421 39.2463 131.655 39.2754C130.615 39.3102 130.435 39.3741 130.215 39.8095C130.075 40.0881 130.07 40.1346 130.075 41.1447C130.075 42.2593 130.128 42.5496 130.395 42.9386C130.708 43.403 131.196 43.5539 132.38 43.5539C133.222 43.5539 133.582 43.4785 133.582 43.2985C133.582 43.223 133.512 43.2056 133.234 43.2056C133.042 43.2056 132.885 43.1882 132.885 43.165C132.885 43.1418 132.949 43.0547 133.03 42.9734L133.176 42.8225L133.042 42.747C132.775 42.6077 132.624 42.1665 132.688 41.7485L132.729 41.5221H133.123C133.431 41.5221 133.524 41.5046 133.524 41.4408C133.524 41.2608 133.28 41.1737 132.787 41.1737H132.305V40.7674C132.305 40.5409 132.328 40.361 132.351 40.361C132.374 40.361 132.566 40.4539 132.769 40.5642C132.978 40.6745 133.228 40.7674 133.332 40.7674C133.46 40.7674 133.541 40.8022 133.582 40.8835C133.64 40.9938 133.657 40.9938 133.82 40.9125C134.273 40.6745 134.638 40.1288 134.714 39.5598L134.755 39.258L134.993 39.2521C135.829 39.2231 136.223 39.3276 136.293 39.5947C136.363 39.8791 136.287 39.9198 135.463 40.0475C135.184 40.0881 134.801 40.39 134.801 40.5642C134.801 40.7615 135.016 40.8602 135.62 40.9415C136.334 41.0344 136.705 41.1563 136.908 41.3595C137.077 41.5221 137.088 41.5279 137.164 41.4292C137.204 41.3711 137.239 41.255 137.239 41.1737C137.239 40.9299 137.025 40.866 136.177 40.8486C135.445 40.837 135.265 40.7906 135.265 40.6222C135.265 40.5874 135.318 40.5061 135.387 40.4423C135.48 40.3552 135.631 40.3261 136.026 40.3029C136.31 40.2855 136.572 40.2391 136.607 40.2042C136.728 40.0823 136.775 39.7108 136.694 39.5192C136.566 39.2173 136.247 39.1186 135.393 39.107C134.731 39.1012 134.673 39.0954 134.592 38.9793C134.482 38.8167 134.319 38.7297 134.232 38.7877ZM131.782 39.8675C131.782 40.1288 131.759 40.2449 131.713 40.2449C131.649 40.2507 130.882 40.5351 130.557 40.6745C130.482 40.7093 130.453 40.6687 130.424 40.4713C130.372 40.1346 130.47 39.8559 130.697 39.7398C130.975 39.5947 131.318 39.496 131.567 39.496L131.782 39.4902V39.8675ZM131.759 41.0867C131.747 41.1273 131.585 41.1795 131.405 41.2028C130.958 41.255 130.493 41.4001 130.534 41.464C130.557 41.4988 130.801 41.5221 131.091 41.5221H131.608V41.673C131.608 41.7601 131.492 42.0445 131.347 42.3116C131.144 42.6773 131.086 42.8457 131.086 43.0547C131.086 43.1998 131.062 43.3217 131.039 43.3217C130.975 43.3217 130.592 42.4974 130.511 42.1897C130.476 42.062 130.447 41.7194 130.447 41.4292C130.447 40.8602 130.47 40.8138 130.743 40.866C130.848 40.8835 131.004 40.8138 131.324 40.599L131.753 40.3029L131.771 40.6629C131.782 40.8544 131.776 41.046 131.759 41.0867ZM132.386 42.0736L132.345 42.6251L132.566 42.8283C132.908 43.1534 132.839 43.2056 132.014 43.2056C131.631 43.2056 131.318 43.1824 131.318 43.1592C131.318 43.1301 131.387 43.0489 131.469 42.9676C131.747 42.7064 131.794 42.5438 131.753 42.0097L131.713 41.5221H132.067H132.421L132.386 42.0736Z" fill="#72707E"/>
<path d="M141.315 38.8051C141.286 38.8458 141.239 39.0025 141.216 39.1534C141.175 39.4321 141.03 39.6179 140.804 39.6875C140.595 39.7514 140.49 39.5888 140.49 39.1999C140.49 38.8341 140.409 38.7355 140.206 38.8632C140.124 38.9154 140.101 38.9967 140.107 39.2289C140.107 39.4089 140.078 39.5714 140.032 39.6237C139.921 39.763 139.614 39.7456 139.387 39.5888C139.178 39.4495 139.12 39.3682 139.068 39.1244C139.05 39.0373 138.998 38.9503 138.946 38.927C138.807 38.8748 138.574 39.136 138.574 39.3392C138.574 39.705 138.778 39.8036 139.532 39.8095L140.113 39.8153L140.153 40.0591C140.2 40.3261 140.293 40.5351 140.374 40.5351C140.432 40.5351 140.537 40.21 140.56 39.9546C140.577 39.8269 140.612 39.8036 140.868 39.7746C141.222 39.7282 141.541 39.6005 141.704 39.4379C141.849 39.2928 141.866 38.9561 141.733 38.8283C141.622 38.718 141.396 38.7064 141.315 38.8051Z" fill="#72707E"/>
<path d="M123.852 38.8516C123.179 38.898 122.79 39.0316 122.679 39.2464C122.645 39.3044 122.65 39.6644 122.679 40.1288C122.743 41.0402 122.697 44.7557 122.61 45.8181C122.54 46.6366 122.407 47.6351 122.29 48.1983C122.215 48.5408 122.221 48.5814 122.302 48.6453C122.482 48.7846 122.604 48.7324 122.668 48.5002C122.761 48.146 122.946 46.9501 123.022 46.2535C123.057 45.8993 123.097 44.2854 123.115 42.6657L123.144 39.7166L123.283 39.5541C123.364 39.4554 123.521 39.3625 123.666 39.3276C124.084 39.2231 126.116 39.1361 126.674 39.1999C127.765 39.3276 128.073 39.3741 128.183 39.4321C128.462 39.5831 128.462 39.5599 128.491 42.8863C128.508 44.6105 128.549 46.3231 128.583 46.6889C128.659 47.4958 128.798 48.4131 128.903 48.8078C128.967 49.0633 128.996 49.0981 129.118 49.0807C129.425 49.0459 129.437 48.9588 129.269 48.2331C128.943 46.8688 128.932 46.6366 128.903 42.8863C128.885 40.9706 128.862 39.3451 128.851 39.2812C128.81 39.078 128.311 38.9038 127.631 38.8458C126.935 38.7877 124.752 38.7935 123.852 38.8516Z" fill="#72707E"/>
<path d="M117.501 39.6934C116.734 39.7921 116.026 39.9314 115.887 40.0069C115.794 40.0591 115.794 40.0649 115.887 40.0997C115.939 40.123 116.758 40.1172 117.71 40.0881C119.271 40.0475 119.446 40.0301 119.463 39.943C119.515 39.6643 118.627 39.554 117.501 39.6934Z" fill="#72707E"/>
<path d="M125.658 39.9198C125.64 40.094 125.565 40.3262 125.495 40.4249C125.344 40.6455 124.955 40.8603 124.601 40.9126C124.172 40.9764 124.131 40.9416 124.084 40.4191C124.067 40.1637 124.026 39.9547 123.997 39.9547C123.974 39.9547 123.91 40.0011 123.852 40.0534C123.765 40.1462 123.759 40.2682 123.794 41.406C123.812 42.091 123.858 42.7529 123.887 42.869C123.968 43.1476 124.375 43.5076 124.81 43.6817C125.083 43.792 125.246 43.8152 125.803 43.8152C126.407 43.8152 126.5 43.7978 126.807 43.6585C127.283 43.4321 127.475 43.287 127.597 43.0373C127.753 42.7354 127.846 41.8298 127.823 40.8255L127.806 39.9837L127.649 39.9663L127.486 39.9489V40.4075C127.486 40.9184 127.469 40.9416 127.103 40.9416C126.511 40.9416 125.977 40.4133 125.977 39.8328C125.977 39.6354 125.96 39.6063 125.838 39.6063C125.716 39.6063 125.698 39.6412 125.658 39.9198ZM125.948 40.7152C126.087 40.9822 126.569 41.1854 127.08 41.1912L127.486 41.197V41.4118V41.6208L126.72 41.6614C126.296 41.6789 125.542 41.7021 125.048 41.7079L124.148 41.7195V41.4873V41.2609L124.59 41.226C125.1 41.1854 125.571 40.9648 125.733 40.6978C125.785 40.6107 125.832 40.5352 125.844 40.5352C125.849 40.5352 125.902 40.6165 125.948 40.7152ZM127.417 42.2304L127.399 42.5381L125.838 42.5555C124.979 42.5613 124.253 42.5497 124.23 42.5265C124.206 42.4974 124.172 42.3581 124.148 42.2013L124.108 41.9285H125.768H127.434L127.417 42.2304ZM127.185 42.927C127.109 43.0315 126.888 43.1941 126.697 43.2928C126.395 43.4495 126.296 43.4669 125.832 43.4669C125.17 43.4669 124.799 43.345 124.427 43.0025L124.148 42.7471L125.739 42.7413H127.33L127.185 42.927Z" fill="#72707E"/>
<path d="M141.767 39.9836C141.703 40.0591 141.709 40.1114 141.785 40.2739L141.878 40.4713L141.442 40.57C141.094 40.6455 140.96 40.7035 140.815 40.8545C140.589 41.0751 140.548 41.2492 140.548 41.9168C140.548 42.7993 140.775 43.194 141.373 43.3624C141.785 43.4785 141.825 43.5482 141.825 44.1403V44.5409H141.64C141.367 44.5409 140.484 44.3783 140.194 44.2796C139.776 44.1287 139.764 44.0939 140.026 43.8094C140.27 43.5423 140.339 43.3798 140.304 43.1128C140.281 42.9096 139.991 42.6948 139.666 42.6483C139.468 42.6135 139.445 42.5903 139.445 42.4451C139.445 42.3058 139.486 42.2652 139.764 42.1374C140.124 41.9749 140.293 41.7137 140.223 41.4176C140.153 41.1331 140.008 41.0344 139.492 40.9183C139.341 40.8835 139.335 40.8661 139.346 40.5758C139.358 40.2739 139.358 40.2739 139.167 40.2565C139.016 40.2391 138.969 40.2623 138.929 40.3726C138.899 40.4539 138.905 40.5584 138.94 40.6339C139.021 40.8138 138.952 40.9415 138.766 40.9415C138.54 40.9473 138.145 41.1331 138.029 41.2957C137.907 41.4756 137.913 41.7659 138.04 41.9285C138.093 41.9981 138.284 42.1026 138.458 42.1607C138.754 42.2594 138.778 42.2826 138.795 42.4684C138.812 42.6599 138.807 42.6715 138.54 42.7354C138.209 42.8225 137.936 43.0721 137.936 43.3043C137.936 43.4959 138.116 43.8094 138.278 43.8965C138.342 43.9313 138.551 43.9952 138.749 44.0416C138.946 44.0881 139.149 44.1635 139.201 44.21C139.526 44.4944 140.391 44.7441 141.28 44.8079L141.831 44.8486L141.814 45.0576C141.796 45.3014 141.674 45.3769 141.175 45.4697C140.769 45.5452 140.304 45.7774 140.026 46.0445C139.77 46.2825 139.497 46.8282 139.358 47.3565C139.259 47.7513 139.242 48.4421 139.329 48.6105C139.405 48.744 139.689 48.7614 139.794 48.6337C139.828 48.5872 139.898 48.2679 139.944 47.9254C140.124 46.567 140.519 45.8935 141.326 45.5917C141.872 45.3885 141.849 45.3594 141.791 46.207C141.762 46.6192 141.738 47.3042 141.738 47.7338C141.738 48.4189 141.756 48.5524 141.872 48.7962C141.942 48.9588 142.029 49.0691 142.069 49.0575C142.209 49.011 142.243 48.5582 142.214 47.014L142.191 45.4581L142.481 45.493C143.091 45.5626 143.584 45.9226 143.881 46.5031C144.078 46.8921 144.142 47.1591 144.206 47.8499C144.269 48.5408 144.339 48.7208 144.531 48.7208C144.804 48.7208 144.862 48.5756 144.827 47.9719C144.786 47.1997 144.635 46.7701 144.194 46.1838C143.764 45.6091 143.567 45.493 142.748 45.3594L142.174 45.2665V45.0576V44.8486L142.708 44.7731C143.637 44.6454 144.153 44.4422 144.606 44.0242C144.769 43.8733 144.937 43.7746 145.071 43.7571C145.698 43.6527 145.901 43.4785 145.982 42.9792C146.017 42.7702 145.999 42.7296 145.843 42.567C145.709 42.4393 145.611 42.3929 145.46 42.3929C145.303 42.3929 145.227 42.3581 145.158 42.2477C145.042 42.0678 145.082 42.0097 145.349 41.9575C145.75 41.8878 146.121 41.5395 146.121 41.2318C146.121 40.9183 145.883 40.7558 145.326 40.6803L145.024 40.6397L145.007 40.3436C144.989 40.0649 144.978 40.0417 144.844 40.0417C144.711 40.0417 144.699 40.0649 144.682 40.3436C144.67 40.5352 144.635 40.6513 144.595 40.6513C144.403 40.6513 144.078 40.7906 143.921 40.9357C143.77 41.0751 143.741 41.1447 143.741 41.3711C143.741 41.7543 143.921 41.9285 144.322 41.9285C144.606 41.9285 144.612 41.9343 144.612 42.0968C144.612 42.2826 144.438 42.4509 144.252 42.4509C143.933 42.4509 143.66 42.7993 143.695 43.165C143.712 43.3276 143.753 43.3682 144.055 43.5133L144.391 43.6817L144.235 43.8442C143.886 44.2042 143.027 44.5409 142.447 44.5409H142.156L142.197 44.21C142.278 43.5075 142.325 43.4204 142.667 43.2695C143.312 42.9908 143.433 42.718 143.346 41.7543C143.312 41.406 143.254 41.0518 143.207 40.959C143.114 40.7616 142.65 40.4945 142.307 40.4423C142.063 40.4074 142 40.3494 142.116 40.2739C142.232 40.2043 142.174 40.0127 142.023 39.9546C141.837 39.885 141.854 39.8792 141.767 39.9836ZM145.338 40.7964C145.727 40.9531 145.721 41.4234 145.332 41.6788C144.879 41.9691 144.124 41.6034 144.24 41.1505C144.328 40.7848 144.891 40.6048 145.338 40.7964ZM142.429 40.9067C142.568 40.9938 142.667 41.2434 142.708 41.6092C142.731 41.8298 142.632 41.8588 141.802 41.8646L141.169 41.8704L141.204 41.5801C141.251 41.1796 141.355 40.988 141.593 40.8661C141.831 40.7442 142.214 40.7616 142.429 40.9067ZM139.59 41.0809C139.747 41.1505 139.794 41.2086 139.828 41.3827C139.904 41.7891 139.567 42.1026 139.05 42.1026C138.847 42.1026 138.766 42.0678 138.627 41.9343C138.365 41.6672 138.406 41.1796 138.708 41.0576C138.905 40.9764 139.37 40.9938 139.59 41.0809ZM142.777 42.4684C142.772 42.8341 142.76 42.8805 142.586 43.0489C142.418 43.2172 142.371 43.2347 142.029 43.2347C141.686 43.2347 141.64 43.2172 141.477 43.0605C141.355 42.9386 141.28 42.7818 141.233 42.5612C141.123 42.0388 141.123 42.0388 142.011 42.0562L142.783 42.0736L142.777 42.4684ZM145.355 42.7006C145.523 42.8573 145.518 43.0953 145.332 43.3159C145.158 43.5249 144.867 43.5946 144.554 43.5017C144.24 43.4088 144.078 43.194 144.153 42.9734C144.229 42.7702 144.316 42.6948 144.595 42.5903C144.867 42.4916 145.181 42.538 145.355 42.7006ZM139.532 42.9154C139.706 42.985 139.799 43.1186 139.805 43.3159C139.811 43.5482 139.712 43.6527 139.434 43.7339C138.969 43.8558 138.458 43.6468 138.458 43.3276C138.458 42.9154 138.992 42.7122 139.532 42.9154Z" fill="#72707E"/>
<path d="M134.104 41.4641C134.104 41.5337 134.342 41.5686 135.039 41.6034C135.347 41.615 135.707 41.6614 135.84 41.7021C136.16 41.795 136.392 42.062 136.34 42.271C136.316 42.3523 136.293 42.4277 136.281 42.4394C136.276 42.451 136.061 42.4161 135.811 42.3639C135.556 42.3058 135.045 42.2478 134.673 42.2362C134.075 42.2071 133.988 42.2129 133.988 42.2942C133.988 42.3871 134.104 42.4103 135.057 42.48C135.771 42.5322 136.142 42.7354 136.049 43.0257C135.985 43.2347 135.718 43.2811 134.795 43.2463C134.081 43.2173 133.93 43.2289 133.93 43.2928C133.93 43.4205 134.099 43.4785 134.586 43.5192C135.178 43.5656 135.8 43.4727 136.125 43.2928C136.27 43.2115 136.386 43.1476 136.398 43.1476C136.403 43.1476 136.444 44.239 136.485 45.5685C136.554 47.7339 136.554 48.0125 136.473 48.2389L136.38 48.4886H136.549C136.763 48.4886 136.903 48.2796 136.908 47.9487C136.914 47.8151 136.885 46.596 136.845 45.2434C136.804 43.8907 136.787 42.6484 136.804 42.4858C136.839 42.2071 136.833 42.1781 136.63 41.9401C136.514 41.8066 136.345 41.6556 136.258 41.6092C135.962 41.4582 134.104 41.3305 134.104 41.4641Z" fill="#72707E"/>
<path d="M115.643 42.0968C115.643 42.1258 115.678 42.1781 115.725 42.2129C115.771 42.2536 115.835 42.4161 115.87 42.5729C115.939 42.8922 115.91 43.1766 115.672 44.4596C115.492 45.4291 115.487 45.8587 115.643 46.1664C115.794 46.4683 115.794 46.4915 115.579 46.5379C115.475 46.5554 115.289 46.6831 115.15 46.8224C114.61 47.3623 114.807 48.0067 115.643 48.4363C115.992 48.6163 116.671 48.6221 116.99 48.4537L117.205 48.3434H116.7C115.678 48.3376 115.109 47.8441 115.452 47.2636C115.568 47.0662 115.643 47.0488 115.643 47.2172C115.643 47.5713 117.547 47.9138 117.658 47.5771C117.675 47.5365 117.507 47.5016 117.199 47.4726C116.497 47.4204 116.061 47.3275 115.905 47.1998C115.632 46.985 115.748 46.8456 116.259 46.776C116.7 46.7179 117.768 46.985 118.093 47.2288C118.43 47.49 118.621 47.8616 118.587 48.2099C118.558 48.5698 118.43 48.744 118.012 49.011C117.484 49.3419 117.327 49.6496 117.559 49.8818C117.931 50.2534 118.534 49.7135 118.807 48.7556C118.935 48.3202 118.906 47.6235 118.749 47.3042C118.546 46.8863 118 46.6366 116.979 46.4857C116.224 46.3812 116.114 46.3289 116.108 46.0967C116.108 45.969 116.398 45.8761 116.804 45.8761C117.565 45.8761 118.453 46.3173 119.214 47.072C119.603 47.4552 119.678 47.5074 119.841 47.49C119.986 47.4784 120.032 47.4436 120.044 47.3391C120.073 47.1359 119.417 46.5321 118.848 46.2303C118.308 45.9516 117.698 45.7948 116.77 45.6962C116.166 45.6323 116.09 45.6091 116.009 45.4872C115.922 45.3594 115.922 45.3362 116.009 45.2549C116.23 45.0285 117.269 45.1098 118.209 45.4175C118.888 45.6381 119.26 45.8355 119.603 46.1548C119.835 46.3696 119.91 46.4102 119.986 46.358C120.038 46.3289 120.084 46.2361 120.084 46.1606C120.084 46.0561 119.997 45.969 119.69 45.7832C118.993 45.3536 117.89 45.075 116.497 44.9763L115.992 44.9356L116.021 44.6686C116.09 44.0706 116.166 43.345 116.166 43.2405C116.166 43.136 116.206 43.1302 117.095 43.1708L118.023 43.2114V43.0779C118.023 42.9444 118.023 42.9444 117.234 42.9618C116.172 42.9908 116.189 42.9967 116.154 42.5845C116.131 42.3348 116.096 42.2303 115.992 42.1491C115.858 42.0388 115.643 42.0039 115.643 42.0968Z" fill="#72707E"/>
<path d="M132.798 44.1983C131.155 44.2448 130.853 44.2622 130.679 44.3493L130.476 44.4537L131.312 44.4828L132.148 44.5118L132.258 44.8253C132.316 44.9995 132.351 45.1504 132.34 45.162C132.328 45.1794 132.148 45.2201 131.945 45.2665C131.736 45.3071 131.451 45.4 131.306 45.4697C131.074 45.5742 131.033 45.6264 130.975 45.847C130.906 46.1315 130.894 47.2519 130.964 47.7222C131.016 48.0821 131.213 48.3259 131.602 48.5001C131.834 48.6046 131.985 48.6162 133.21 48.6162C135.12 48.6162 135.341 48.5524 135.503 47.9486C135.683 47.281 135.666 46.0909 135.469 45.6787C135.353 45.4349 135.271 45.3942 134.383 45.2084C134.226 45.1794 134.22 45.162 134.22 44.8079V44.4305L134.987 44.4421C135.771 44.4537 135.95 44.4015 135.631 44.2564C135.399 44.1519 134.923 44.1403 132.798 44.1983ZM133.849 44.7847C133.826 44.982 133.791 45.1678 133.779 45.191C133.762 45.2143 133.506 45.2375 133.205 45.2375C132.595 45.2375 132.636 45.2665 132.566 44.7266L132.525 44.4247H133.205H133.89L133.849 44.7847ZM132.351 45.7193C132.415 45.8528 132.409 45.9109 132.316 46.1199C132.2 46.3927 131.811 46.7759 131.562 46.8688C131.329 46.9559 131.225 46.7759 131.26 46.3405C131.289 46.0154 131.562 45.6903 131.898 45.5974C132.183 45.5161 132.264 45.5336 132.351 45.7193ZM133.82 45.9051C133.837 46.0967 133.895 46.3347 133.948 46.4334C134.052 46.6366 134.447 47.0139 134.795 47.2403C134.998 47.3797 135.033 47.4319 135.033 47.6003C135.033 47.7512 134.987 47.8499 134.836 48.0008C134.726 48.1111 134.598 48.1982 134.551 48.1982C134.499 48.1982 134.377 48.0241 134.255 47.7686C133.982 47.2113 133.599 46.8049 133.338 46.8049C133.234 46.8049 133.059 46.8572 132.961 46.921C132.775 47.0313 132.351 47.5654 132.107 47.9776C131.968 48.2273 131.956 48.2331 131.73 48.1111C131.393 47.9428 131.353 47.4609 131.655 47.3042C131.974 47.1358 132.415 46.7469 132.56 46.4972C132.641 46.3579 132.729 46.1141 132.746 45.9573C132.798 45.5045 132.775 45.5219 133.303 45.5394L133.785 45.5568L133.82 45.9051ZM134.795 45.6671C135.016 45.7658 135.144 45.9922 135.184 46.3521C135.236 46.8107 135.207 46.8688 134.952 46.7933C134.673 46.7062 134.342 46.4218 134.244 46.1896C134.162 45.9922 134.133 45.6322 134.197 45.5684C134.244 45.5219 134.621 45.5858 134.795 45.6671ZM133.605 47.1591C133.768 47.2868 134.366 48.1344 134.319 48.175C134.308 48.1866 134.011 48.2273 133.663 48.2679C133.007 48.3317 132.363 48.2679 132.363 48.1286C132.363 48.0183 132.717 47.4842 132.932 47.2519C133.176 47.0023 133.373 46.9733 133.605 47.1591Z" fill="#72707E"/>
<path d="M123.846 44.4654C123.806 44.4771 123.771 44.5583 123.771 44.6338V44.7731H124.613H125.454V45.1447V45.5104L125.007 45.5511C124.763 45.5685 124.363 45.5859 124.119 45.5859C123.771 45.5859 123.66 45.6033 123.631 45.673C123.573 45.8297 123.806 45.8762 124.636 45.8762H125.454V46.596V47.3101L124.473 47.3565C123.533 47.3972 123.492 47.403 123.457 47.5191C123.44 47.5887 123.422 47.6642 123.422 47.6874C123.422 47.7165 124.479 47.7339 125.768 47.7339C128.253 47.7339 128.223 47.7397 128.125 47.4668C128.067 47.3217 127.707 47.2694 126.79 47.2694C126.023 47.2694 126.029 47.2753 125.988 46.4625L125.959 45.8123L126.97 45.8297L127.98 45.8471V45.702C127.98 45.5627 127.962 45.5569 127.486 45.5162C127.213 45.4988 126.766 45.4814 126.488 45.4756L125.977 45.4698V45.1273C125.977 44.7209 125.983 44.7151 126.761 44.7151C127.457 44.7151 127.893 44.657 127.893 44.5699C127.893 44.5235 127.759 44.4829 127.538 44.4596C127.12 44.419 123.951 44.419 123.846 44.4654Z" fill="#72707E"/>
<path fill-rule="evenodd" clip-rule="evenodd" d="M121 22.5C115.5 20 114.667 15.1667 114.5 13C114.5 13 112.5 14.5 112.5 20C112.5 25.5 115.781 28.0856 119 30.5C120.474 31.6054 122.109 32.2091 123.67 32.7849L123.67 32.7849C125.517 33.4668 127.258 34.1095 128.5 35.5C128.5 34.2768 125.126 32.1339 122.565 30.5078L122.565 30.5077C121.985 30.1398 121.448 29.7984 121 29.5C118 27.5 117.5 22 118 23.5C118.5 25 120 27 125.5 29C129.541 30.4694 130.073 33.558 130.269 34.6969C130.34 35.1083 130.367 35.2653 130.5 35C130.9 34.2 130.667 32.6667 130.5 32C130.303 31.2134 129.701 30.3335 129.018 29.3356L129.018 29.3356L129.018 29.3356C127.998 27.8468 126.799 26.0955 126.5 24C126.102 21.2139 126.654 19.3782 127.149 17.7365L127.149 17.7365C127.275 17.3158 127.398 16.9079 127.5 16.5C128.5 12 124.783 8.15987 125 8.5C125.217 8.84013 125.914 10.3431 125.5 12C125.434 12.2642 125.333 12.5981 125.214 12.9903L125.214 12.9903C124.436 15.5676 122.896 20.6604 125.5 25C122.5 22.5 121.5 12.5 121 7.5C120.6 3.5 117.833 -0.5 116.5 -2C118.532 2.51568 118.117 6.72549 117.741 10.5374C117.285 15.1669 116.887 19.2094 121 22.5ZM132.271 13.5C131.86 13.9 131.757 15.1667 131.757 15.5C131.757 15.375 131.693 15.1875 131.612 14.9531L131.612 14.9531C131.371 14.25 130.985 13.125 131.757 12C132.786 10.5001 132.786 10.1667 132.786 9.5C132.957 10 133.3 11.1 133.3 11.5C133.3 12 133.12 12.6747 132.271 13.5ZM137 13.5C138.667 13.3334 141.7 14.2 140.5 19C139 25 134 26 129.5 25C131.5 26.5 134 28.5 131.5 35.5L138 30.5C140 28.8333 144.3 24.9 145.5 22.5C147 19.5 146 15.5 144.5 14C143 12.5 139.5 11 136 12.5C133.2 13.7 130.833 16.8333 130 18C130.253 17.7467 130.521 17.4507 130.807 17.1335C132.218 15.5724 134.091 13.5 137 13.5Z" fill="#72707E"/>
</g>
<defs>
<clipPath id="clip0_2_44870">
<rect width="147" height="52" fill="white" transform="translate(0 -2)"/>
</clipPath>
</defs>
</svg>
