<svg width="23" height="23" viewBox="0 0 23 23" fill="none" xmlns="http://www.w3.org/2000/svg">
<path fill-rule="evenodd" clip-rule="evenodd" d="M6.23632 3.28943C6.23632 5.2779 4.62435 6.88987 2.63588 6.88987C4.62435 6.88987 6.23632 8.50184 6.23632 10.4903C6.23632 8.50184 7.84829 6.88987 9.83675 6.88987C7.84829 6.88987 6.23632 5.2779 6.23632 3.28943Z" fill="#B470EB" stroke="#B470EB" stroke-width="1.07968" stroke-linecap="round" stroke-linejoin="round"/>
<path fill-rule="evenodd" clip-rule="evenodd" d="M16.1375 14.0907C16.1375 11.6051 14.1225 9.59015 11.6369 9.59015C14.1225 9.59015 16.1375 7.57518 16.1375 5.0896C16.1375 7.57518 18.1525 9.59015 20.638 9.59015C18.1525 9.59015 16.1375 11.6051 16.1375 14.0907Z" fill="#B470EB" stroke="#B470EB" stroke-width="1.07968" stroke-linecap="round" stroke-linejoin="round"/>
<path d="M16.1375 14.0908V14.9909" stroke="#B470EB" stroke-width="1.07968" stroke-linecap="round" stroke-linejoin="round"/>
<path d="M16.1375 5.08968V4.18958" stroke="#B470EB" stroke-width="1.07968" stroke-linecap="round" stroke-linejoin="round"/>
<path d="M9.83671 19.4915V20.3916" stroke="#B470EB" stroke-width="1.07968" stroke-linecap="round" stroke-linejoin="round"/>
<path d="M9.83671 13.1906V12.2905" stroke="#B470EB" stroke-width="1.07968" stroke-linecap="round" stroke-linejoin="round"/>
<path d="M6.23628 10.4902V11.3903" stroke="#B470EB" stroke-width="1.07968" stroke-linecap="round" stroke-linejoin="round"/>
<path d="M6.23628 2.3894V3.28951" stroke="#B470EB" stroke-width="1.07968" stroke-linecap="round" stroke-linejoin="round"/>
<path fill-rule="evenodd" clip-rule="evenodd" d="M9.83673 12.7406C9.83673 14.7291 8.22476 16.341 6.2363 16.341C8.22476 16.341 9.83673 17.953 9.83673 19.9415C9.83673 17.953 11.4487 16.341 13.4372 16.341C11.4487 16.341 9.83673 14.7291 9.83673 12.7406Z" fill="#B470EB" stroke="#B470EB" stroke-width="1.07968" stroke-linecap="round" stroke-linejoin="round"/>
</svg>
